<svg width="24" height="24" viewBox="0 0 24 24" fill="none" xmlns="http://www.w3.org/2000/svg">
<mask id="mask0_540_1547" style="mask-type:luminance" maskUnits="userSpaceOnUse" x="0" y="0" width="24" height="24">
<path d="M24 0H0V24H24V0Z" fill="white"/>
</mask>
<g mask="url(#mask0_540_1547)">
<path d="M16.8889 15.9606C16.6989 15.9606 16.4989 15.8806 16.3589 15.7406L13.1689 12.5506C12.8789 12.2606 12.8789 11.7806 13.1689 11.4906L16.3889 8.2706C16.6189 8.0406 16.9689 7.99062 17.2589 8.13062L21.7489 10.3806C22.3689 10.6806 22.7589 11.3006 22.7589 12.0006C22.7589 12.7006 22.3689 13.3206 21.7489 13.6206L17.2389 15.8806C17.1189 15.9306 16.9989 15.9606 16.8889 15.9606ZM14.7589 12.0206L17.0289 14.2906L21.0589 12.2706C21.0589 12.2706 21.0589 12.2706 21.0689 12.2706C21.2189 12.2006 21.2389 12.0706 21.2389 12.0006C21.2389 11.9306 21.2189 11.8006 21.0689 11.7306L17.0589 9.72061L14.7589 12.0206Z" fill="#0066FF"/>
<path d="M3.06951 22.749C2.73951 22.749 2.39951 22.659 2.10951 22.469C1.56951 22.139 1.24951 21.5591 1.24951 20.9191V3.05905C1.24951 2.42905 1.56951 1.84906 2.10951 1.50906C2.64951 1.17906 3.30951 1.13904 3.87951 1.42904L17.2495 8.11904C17.4695 8.22904 17.6195 8.42906 17.6495 8.66906C17.6795 8.90906 17.6095 9.14906 17.4395 9.31906L4.63951 22.119C4.57951 22.179 4.51951 22.2191 4.43951 22.2591L3.85951 22.549C3.61951 22.689 3.33951 22.749 3.06951 22.749ZM3.06951 2.74905C2.99951 2.74905 2.93951 2.77904 2.89951 2.79904C2.83951 2.82904 2.74951 2.91906 2.74951 3.06906V20.929C2.74951 21.089 2.83951 21.1691 2.89951 21.1991C2.95951 21.2391 3.06951 21.279 3.21951 21.209L3.67951 20.9791L15.6495 9.00906L3.20951 2.78906C3.15951 2.75906 3.10951 2.74905 3.06951 2.74905Z" fill="#0066FF"/>
<path d="M4.11926 22.3495C3.88926 22.3495 3.65926 22.2396 3.50926 22.0396C3.28926 21.7396 3.32926 21.3295 3.58926 21.0695L13.1693 11.4895C13.3093 11.3495 13.4993 11.2695 13.6993 11.2695C13.8993 11.2695 14.0893 11.3495 14.2293 11.4895L17.4193 14.6795C17.5893 14.8495 17.6693 15.0895 17.6293 15.3295C17.5893 15.5695 17.4393 15.7695 17.2293 15.8795L4.46926 22.2695C4.34926 22.3195 4.23926 22.3495 4.11926 22.3495ZM13.6993 13.0795L7.92926 18.8495L15.6193 14.9995L13.6993 13.0795Z" fill="#0066FF"/>
<path d="M13.6995 12.7696C13.5095 12.7696 13.3195 12.6996 13.1695 12.5496L3.55954 2.93961C3.26954 2.64961 3.26954 2.16961 3.55954 1.87961C3.84954 1.58961 4.32954 1.58961 4.61954 1.87961L14.2295 11.4896C14.5195 11.7796 14.5195 12.2596 14.2295 12.5496C14.0895 12.6996 13.8895 12.7696 13.6995 12.7696Z" fill="#0066FF"/>
<path d="M16.8993 15.9794C16.7193 15.9794 16.5293 15.9094 16.3893 15.7594L16.3593 15.7294C16.0693 15.4394 16.0693 14.9594 16.3693 14.6694C16.6693 14.3794 17.1393 14.3794 17.4293 14.6794C17.7193 14.9694 17.7293 15.4694 17.4393 15.7594C17.2793 15.9094 17.0893 15.9794 16.8993 15.9794Z" fill="#0066FF"/>
</g>
</svg>
