<svg width="249" height="190" viewBox="0 0 249 190" fill="none" xmlns="http://www.w3.org/2000/svg">
<path d="M106.03 153.04C90.03 153.04 86.72 144.5 86.72 137.34V92.25H38.62V137.36C38.62 144.52 35.27 153.06 19.31 153.06C3.35001 153.06 0 144.52 0 137.36V15.7C0 8.54001 3.35001 0 19.31 0C35.27 0 38.62 8.54001 38.62 15.7V57.44H86.72V15.7C86.72 8.54001 90.07 0 106.03 0C121.99 0 125.34 8.54001 125.34 15.7V137.34C125.34 144.5 121.99 153.04 106.03 153.04Z" fill="#231F20"/>
<path d="M123.138 15.6995V137.339C123.138 146.339 117.508 150.849 106.028 150.849C94.5475 150.849 88.9075 146.349 88.9075 137.339V90.0395H36.4175V137.339C36.4175 146.339 30.7875 150.849 19.3075 150.849C7.8275 150.849 2.1875 146.349 2.1875 137.339V15.6995C2.1875 6.69946 7.8175 2.18945 19.3075 2.18945C30.7975 2.18945 36.4175 6.68946 36.4175 15.6995V59.6295H88.9075V15.6995C88.9075 6.69946 94.5375 2.18945 106.028 2.18945C117.518 2.18945 123.138 6.68946 123.138 15.6995Z" fill="#BB5765"/>
<path d="M29.4478 172.039V187.819C29.4478 188.989 28.7178 189.579 27.2278 189.579C25.7378 189.579 25.0078 188.989 25.0078 187.819V181.689H18.1978V187.819C18.1978 188.989 17.4678 189.579 15.9778 189.579C14.4878 189.579 13.7578 188.989 13.7578 187.819V172.039C13.7578 170.869 14.4878 170.289 15.9778 170.289C17.4678 170.289 18.1978 170.869 18.1978 172.039V177.739H25.0078V172.039C25.0078 170.869 25.7378 170.289 27.2278 170.289C28.7178 170.289 29.4478 170.869 29.4478 172.039Z" fill="#BB5765"/>
<path d="M37.1588 187.819C37.1588 188.989 36.4288 189.579 34.9388 189.579C33.4488 189.579 32.7188 188.989 32.7188 187.819V172.039C32.7188 170.869 33.4488 170.289 34.9388 170.289C36.4288 170.289 37.1588 170.869 37.1588 172.039V187.819Z" fill="#BB5765"/>
<path d="M46.507 184.25C45.9646 184.265 45.4227 184.204 44.897 184.07V187.84C44.897 189.01 44.167 189.6 42.677 189.6C41.187 189.6 40.457 189.01 40.457 187.84V173.5C40.457 172.36 40.457 171.17 42.297 170.64C43.5023 170.353 44.7382 170.215 45.977 170.23C50.767 170.23 54.187 172.36 54.187 177.13C54.167 182.15 50.397 184.25 46.507 184.25ZM46.127 180.45C48.407 180.45 49.627 179.31 49.627 177.29C49.627 175.04 48.077 174.11 45.977 174.11C45.6151 174.108 45.2538 174.139 44.897 174.2V180.33C45.296 180.403 45.7014 180.437 46.107 180.43L46.127 180.45Z" fill="#BB5765"/>
<path d="M62.509 184.249C61.9666 184.264 61.4247 184.204 60.899 184.069V187.84C60.899 189.01 60.169 189.599 58.679 189.599C57.189 189.599 56.459 189.01 56.459 187.84V173.499C56.459 172.359 56.459 171.169 58.299 170.639C59.5077 170.353 60.7469 170.216 61.989 170.229C66.779 170.229 70.199 172.359 70.199 177.129C70.189 182.149 66.419 184.249 62.509 184.249ZM62.129 180.449C64.409 180.449 65.639 179.309 65.639 177.289C65.639 175.039 64.089 174.109 61.989 174.109C61.6237 174.108 61.2591 174.138 60.899 174.199V180.329C61.3013 180.404 61.71 180.437 62.119 180.429L62.129 180.449Z" fill="#BB5765"/>
<path d="M81.1771 170.08C86.8671 170.08 90.5571 173.85 90.5571 179.93C90.5571 186.01 86.8671 189.78 81.1771 189.78C75.4871 189.78 71.7871 186.01 71.7871 179.93C71.7871 173.85 75.5071 170.08 81.1771 170.08ZM81.1771 185.92C84.0671 185.92 85.9971 183.76 85.9971 179.92C85.9971 176.08 84.0671 173.92 81.1771 173.92C78.2871 173.92 76.3471 176.08 76.3471 179.92C76.3471 183.76 78.2771 185.92 81.1771 185.92Z" fill="#BB5765"/>
<path d="M99.2121 184.249C98.6697 184.265 98.1277 184.204 97.6021 184.069V187.84C97.6021 189.01 96.8721 189.599 95.3821 189.599C93.8921 189.599 93.1621 189.01 93.1621 187.84V173.499C93.1621 172.359 93.1621 171.17 95.0021 170.64C96.2075 170.353 97.4433 170.216 98.6821 170.229C103.472 170.229 106.892 172.359 106.892 177.129C106.892 182.149 103.122 184.249 99.2121 184.249ZM98.8321 180.45C101.112 180.45 102.332 179.309 102.332 177.289C102.332 175.039 100.792 174.109 98.6821 174.109C98.3202 174.108 97.9589 174.139 97.6021 174.2V180.33C98.0077 180.404 98.4198 180.438 98.8321 180.429V180.45Z" fill="#BB5765"/>
<path d="M117.878 170.08C123.578 170.08 127.258 173.85 127.258 179.93C127.258 186.01 123.578 189.78 117.878 189.78C112.178 189.78 108.498 186.01 108.498 179.93C108.498 173.85 112.178 170.08 117.878 170.08ZM117.878 185.92C120.768 185.92 122.698 183.76 122.698 179.92C122.698 176.08 120.768 173.92 117.878 173.92C114.988 173.92 113.058 176.08 113.058 179.92C113.058 183.76 114.988 185.92 117.878 185.92Z" fill="#BB5765"/>
<path d="M137.721 187.819C137.721 188.989 136.991 189.579 135.501 189.579C134.011 189.579 133.281 188.989 133.281 187.819V174.379H129.631C128.461 174.379 127.881 173.709 127.881 172.379C127.881 171.049 128.461 170.379 129.631 170.379H141.381C142.551 170.379 143.131 171.029 143.131 172.379C143.131 173.729 142.551 174.379 141.381 174.379H137.721V187.819Z" fill="#BB5765"/>
<path d="M159.511 188.349C159.511 189.049 158.981 189.579 157.431 189.579C155.881 189.579 155.301 189.049 154.981 188.059L154.101 185.399H147.261L146.411 188.059C146.091 189.059 145.511 189.579 144.021 189.579C142.531 189.579 142.021 189.049 142.021 188.349C142.062 187.847 142.181 187.355 142.371 186.889L147.511 172.629C148.131 170.899 148.801 170.289 150.731 170.289C152.661 170.289 153.361 170.899 153.971 172.629L159.121 186.889C159.326 187.353 159.458 187.845 159.511 188.349ZM152.871 181.689L150.651 174.879L148.461 181.689H152.871Z" fill="#BB5765"/>
<path d="M174.578 185.249C174.397 185.78 174.054 186.24 173.597 186.566C173.141 186.893 172.594 187.068 172.033 187.068C171.472 187.068 170.926 186.893 170.469 186.566C170.013 186.24 169.67 185.78 169.488 185.249L166.098 175.609L165.508 187.819C165.448 188.989 164.718 189.579 163.318 189.579C161.918 189.579 161.318 188.989 161.318 187.819L162.318 172.949C162.438 171.169 162.988 170.289 165.208 170.289C167.138 170.289 168.208 170.959 168.928 173.039L172.138 181.859L175.358 173.039C176.088 171.039 176.988 170.289 179.008 170.289C181.028 170.289 181.728 171.189 181.838 172.949L182.838 187.819C182.918 188.989 182.218 189.579 180.758 189.579C179.298 189.579 178.568 188.989 178.508 187.819L177.928 175.579L174.578 185.249Z" fill="#BB5765"/>
<path d="M196.506 184.019C196.711 183.438 196.809 182.825 196.796 182.209V172.039C196.796 170.869 197.496 170.289 198.896 170.289C200.296 170.289 201.006 170.869 201.006 172.039V182.179C201.04 183.469 200.809 184.752 200.326 185.949C199.136 188.729 196.586 189.779 193.406 189.779C190.226 189.779 187.676 188.779 186.476 185.949C186.002 184.76 185.774 183.488 185.806 182.209V172.039C185.806 170.869 186.536 170.289 188.026 170.289C189.516 170.289 190.246 170.869 190.246 172.039V182.249C190.232 182.865 190.33 183.478 190.536 184.059C190.796 184.637 191.217 185.127 191.75 185.471C192.282 185.815 192.902 185.998 193.536 185.998C194.169 185.998 194.79 185.815 195.322 185.471C195.854 185.127 196.275 184.637 196.536 184.059L196.506 184.019Z" fill="#BB5765"/>
<path d="M203.57 175.75C203.57 172.36 206.32 170.11 210.2 170.11C211.878 170.093 213.529 170.54 214.97 171.4C215.75 171.9 216.11 172.33 216.11 173.01C216.11 174.01 215.26 175.26 214.23 175.26C213.774 175.199 213.337 175.039 212.95 174.79C212.113 174.298 211.169 174.017 210.2 173.97C208.74 173.97 207.95 174.7 207.95 175.52C207.95 178.12 216.51 177.71 216.51 183.94C216.51 187.59 213.59 189.75 209.65 189.75C207.859 189.787 206.097 189.29 204.59 188.32C204.265 188.156 203.988 187.912 203.783 187.611C203.578 187.31 203.453 186.962 203.42 186.6C203.42 185.6 204.36 184.32 205.32 184.32C205.807 184.374 206.272 184.553 206.67 184.84C207.55 185.46 208.593 185.808 209.67 185.84C211.13 185.84 212.12 185.14 212.12 184.12C212.13 181.13 203.57 181.72 203.57 175.75Z" fill="#BB5765"/>
<path d="M183.635 49.4391C182.635 50.5391 180.025 52.6391 179.225 52.7591C178.325 52.4691 175.995 49.2591 175.225 48.1991C174.865 47.6991 174.575 47.2991 174.365 47.0391C174.365 46.4391 175.735 44.4091 178.765 43.0391C180.201 45.3087 181.831 47.45 183.635 49.4391Z" fill="#D1D1E8"/>
<path d="M142.458 65.2299C144.683 65.2299 146.488 63.4256 146.488 61.1999C146.488 58.9742 144.683 57.1699 142.458 57.1699C140.232 57.1699 138.428 58.9742 138.428 61.1999C138.428 63.4256 140.232 65.2299 142.458 65.2299Z" fill="#5BC9EF"/>
<path d="M126.131 49.6191C127.367 49.6191 128.575 49.9857 129.603 50.6725C130.631 51.3592 131.432 52.3353 131.905 53.4774C132.378 54.6194 132.502 55.8761 132.261 57.0885C132.02 58.3009 131.424 59.4145 130.55 60.2886C129.676 61.1627 128.563 61.7579 127.35 61.9991C126.138 62.2402 124.881 62.1164 123.739 61.6434C122.597 61.1704 121.621 60.3693 120.934 59.3415C120.247 58.3137 119.881 57.1053 119.881 55.8691C119.881 54.2115 120.539 52.6218 121.711 51.4497C122.884 50.2776 124.473 49.6191 126.131 49.6191Z" fill="#5BC9EF"/>
<path d="M124.627 81.2503C124.668 81.4914 124.729 81.7288 124.807 81.9603C118.977 85.7103 115.007 89.9603 112.977 94.6903C105.537 92.6203 102.857 90.4603 102.857 89.1003C102.857 88.4803 103.447 86.8403 108.857 84.8103C113.97 83.0886 119.228 81.8368 124.567 81.0703C124.582 81.1319 124.602 81.1921 124.627 81.2503Z" fill="#5BC9EF"/>
<path d="M202.227 134.751C205.838 134.531 209.428 135.432 212.507 137.331C232.947 126.471 245.127 108.491 245.127 89.1406C245.127 87.3506 243.507 85.7406 241.727 84.5106C241.637 85.7106 241.477 86.9706 241.257 88.2906C241.328 88.5685 241.365 88.8539 241.367 89.1406C241.356 89.8559 241.134 90.5518 240.727 91.1406L240.507 91.4406C238.857 93.6006 234.637 95.5506 227.977 97.2406C228.584 100.58 228.584 104.001 227.977 107.341C227.243 112.275 225.28 116.944 222.267 120.921C218.587 125.401 211.747 127.141 205.437 127.141C200.377 127.141 195.657 126.021 193.207 124.301C191.337 123.001 190.787 121.301 191.727 119.661C194.467 115.031 197.727 106.341 196.727 102.711C196.637 102.332 196.443 101.986 196.167 101.711C188.237 102.261 179.877 102.541 171.297 102.551C171.072 104.644 170.071 106.577 168.492 107.97C166.913 109.363 164.87 110.114 162.765 110.077C160.66 110.039 158.645 109.215 157.117 107.767C155.589 106.319 154.658 104.351 154.507 102.251C137.737 101.521 123.167 99.7206 113.377 97.1506H113.317C104.777 94.9106 100.627 92.3006 100.627 89.1506C100.627 86.7506 103.067 84.6806 108.087 82.8106C113.975 80.8274 120.045 79.4306 126.207 78.6406C128.042 77.3438 130.11 76.4134 132.297 75.9006L132.687 76.9006L136.367 77.4906L144.977 73.3906L131.757 74.5506L132.067 75.3406C109.627 78.5006 96.8574 84.1306 96.8574 89.1706C96.8574 108.521 109.047 126.501 129.487 137.361C132.564 135.457 136.156 134.556 139.767 134.781C139.918 134.78 140.068 134.81 140.207 134.869C140.346 134.928 140.471 135.015 140.575 135.125C140.678 135.235 140.758 135.365 140.81 135.507C140.861 135.649 140.883 135.8 140.873 135.951C140.863 136.101 140.823 136.249 140.754 136.383C140.685 136.517 140.589 136.636 140.472 136.732C140.355 136.827 140.22 136.898 140.075 136.939C139.929 136.98 139.777 136.991 139.627 136.971C137.617 136.846 135.602 137.118 133.697 137.771C131.743 138.449 129.939 139.502 128.387 140.871C126.805 142.274 125.511 143.973 124.577 145.871C123.634 147.832 123.084 149.958 122.957 152.131V152.411C122.943 152.6 122.943 152.791 122.957 152.981C123.062 153.885 123.522 154.711 124.235 155.276C124.949 155.842 125.858 156.1 126.762 155.996C127.667 155.891 128.493 155.431 129.058 154.718C129.623 154.004 129.882 153.095 129.777 152.191C129.622 150.849 129.734 149.489 130.107 148.191C130.5 146.853 131.152 145.606 132.027 144.521C132.942 143.398 134.066 142.463 135.337 141.771C135.854 141.5 136.388 141.266 136.937 141.071H136.997H137.107H137.217H137.527H137.647C159.067 149.324 182.788 149.324 204.207 141.071H204.327H204.647H204.747H204.857H204.917C205.468 141.263 206.003 141.497 206.517 141.771C207.789 142.463 208.913 143.398 209.827 144.521C210.703 145.606 211.355 146.853 211.747 148.191C212.122 149.489 212.234 150.849 212.077 152.191C212.026 152.638 212.062 153.092 212.186 153.526C212.309 153.959 212.517 154.364 212.797 154.718C213.077 155.071 213.424 155.366 213.818 155.585C214.211 155.804 214.645 155.944 215.092 155.996C215.997 156.1 216.906 155.842 217.619 155.276C218.333 154.711 218.793 153.885 218.897 152.981C218.912 152.791 218.912 152.6 218.897 152.411V152.141C218.774 149.968 218.223 147.841 217.277 145.881C216.346 143.981 215.051 142.283 213.467 140.881C211.917 139.51 210.113 138.456 208.157 137.781C206.253 137.127 204.237 136.855 202.227 136.981C202.078 137.001 201.926 136.99 201.78 136.949C201.635 136.908 201.5 136.837 201.383 136.742C201.266 136.646 201.17 136.527 201.101 136.393C201.032 136.259 200.992 136.111 200.982 135.961C200.972 135.81 200.994 135.659 201.045 135.517C201.096 135.375 201.176 135.245 201.28 135.135C201.384 135.025 201.509 134.938 201.648 134.879C201.787 134.82 201.936 134.79 202.087 134.791L202.227 134.751ZM139.737 118.401C138.507 118.401 137.305 118.036 136.282 117.352C135.259 116.669 134.462 115.697 133.991 114.561C133.52 113.424 133.397 112.174 133.637 110.967C133.877 109.761 134.469 108.652 135.339 107.782C136.209 106.913 137.317 106.32 138.524 106.08C139.731 105.84 140.981 105.963 142.118 106.434C143.254 106.905 144.226 107.702 144.909 108.725C145.593 109.748 145.957 110.95 145.957 112.181C145.957 113.83 145.302 115.412 144.136 116.579C142.969 117.745 141.387 118.401 139.737 118.401Z" fill="#BB5765"/>
<path d="M139.74 108.16C140.531 108.16 141.305 108.395 141.963 108.834C142.62 109.274 143.133 109.899 143.436 110.629C143.739 111.36 143.818 112.165 143.663 112.941C143.509 113.716 143.128 114.429 142.569 114.989C142.009 115.548 141.297 115.929 140.521 116.083C139.745 116.238 138.94 116.158 138.21 115.856C137.479 115.553 136.854 115.04 136.414 114.382C135.975 113.725 135.74 112.951 135.74 112.16C135.74 111.099 136.162 110.082 136.912 109.332C137.662 108.582 138.679 108.16 139.74 108.16Z" fill="#5BC9EF"/>
<path d="M162.951 95.25C164.188 95.25 165.396 95.6168 166.425 96.304C167.453 96.9912 168.254 97.9679 168.726 99.1105C169.199 100.253 169.322 101.51 169.08 102.723C168.838 103.936 168.242 105.049 167.367 105.923C166.492 106.797 165.377 107.391 164.164 107.631C162.951 107.871 161.694 107.746 160.552 107.271C159.411 106.797 158.435 105.994 157.75 104.965C157.064 103.936 156.699 102.727 156.701 101.49C156.704 99.8341 157.363 98.247 158.535 97.0771C159.707 95.9071 161.295 95.25 162.951 95.25Z" fill="#5BC9EF"/>
<path d="M246.109 59.2505C246.109 60.7804 244.729 62.9804 242.569 64.7205C240.689 66.2304 238.939 66.8305 238.189 66.6405C236.189 66.1405 234.379 63.7004 233.829 62.8104C233.756 62.6866 233.659 62.5784 233.543 62.4922C233.428 62.406 233.297 62.3434 233.158 62.3081C233.018 62.2728 232.873 62.2654 232.731 62.2864C232.589 62.3074 232.452 62.3563 232.329 62.4304C232.205 62.5035 232.096 62.6005 232.01 62.7159C231.924 62.8314 231.862 62.9628 231.828 63.1026C231.793 63.2423 231.787 63.3875 231.81 63.5297C231.832 63.6719 231.883 63.8081 231.959 63.9304C232.049 64.0904 234.119 67.4904 237.079 68.5804C237.079 68.7104 237.169 68.8304 237.219 68.9604C238.589 72.6104 241.119 79.3604 238.629 90.3704C237.719 91.4204 235.069 93.2804 227.449 95.2104C227.239 94.528 226.985 93.8599 226.689 93.2104C225.891 91.3095 224.537 89.6948 222.803 88.5791C221.07 87.4633 219.039 86.899 216.979 86.9604C216.826 86.9458 216.672 86.9633 216.527 87.0117C216.381 87.0601 216.247 87.1383 216.134 87.2414C216.021 87.3446 215.93 87.4702 215.868 87.6104C215.806 87.7506 215.774 87.9022 215.774 88.0554C215.774 88.2087 215.806 88.3603 215.868 88.5005C215.93 88.6407 216.021 88.7664 216.134 88.8695C216.247 88.9726 216.381 89.0508 216.527 89.0992C216.672 89.1476 216.826 89.165 216.979 89.1504C218.624 89.0884 220.247 89.5353 221.629 90.4301C223.011 91.3249 224.083 92.6241 224.699 94.1504C227.909 100.92 225.939 113.05 220.579 119.59C217.069 123.87 210.579 124.8 207.089 124.97C202.039 125.22 196.859 124.23 194.479 122.57C193.159 121.64 193.479 121.08 193.629 120.84C196.459 116.04 200.079 106.84 198.849 102.21C198.738 101.686 198.521 101.191 198.209 100.756C197.898 100.32 197.499 99.954 197.039 99.6804H196.979L196.849 99.6204H196.739H196.639H196.419C188.419 100.18 179.989 100.47 171.319 100.47C171.06 98.468 170.091 96.6249 168.588 95.2765C167.086 93.928 165.149 93.1636 163.13 93.1225C161.111 93.0813 159.145 93.766 157.589 95.0521C156.032 96.3382 154.989 98.1402 154.649 100.13C138.649 99.4405 124.769 97.7704 115.139 95.4004C116.989 91.3504 120.599 87.5005 125.659 84.1705C126.499 85.8705 127.739 87.7105 129.029 88.3205C129.176 88.3888 129.336 88.4263 129.499 88.4304C129.709 88.434 129.915 88.3763 130.092 88.2644C130.27 88.1525 130.411 87.9913 130.499 87.8004C130.623 87.5389 130.639 87.239 130.544 86.9657C130.448 86.6924 130.249 86.4677 129.989 86.3404C129.119 85.9304 127.819 83.7805 127.179 82.1905C127.043 81.8661 126.933 81.5317 126.849 81.1905C127.756 80.2666 128.855 79.5531 130.069 79.1005C131.321 78.4338 132.72 78.0901 134.139 78.1005C134.384 78.1875 134.597 78.3481 134.749 78.5604L134.819 78.6405C135.903 80.446 136.412 82.5387 136.279 84.6405C136.276 84.9151 136.376 85.1808 136.559 85.3854C136.742 85.59 136.995 85.7188 137.268 85.7464C137.541 85.774 137.815 85.6984 138.035 85.5344C138.256 85.3705 138.407 85.1301 138.459 84.8604C138.584 82.6527 138.175 80.4473 137.269 78.4304C151.739 72.9304 170.119 71.0205 186.839 73.2804C187.29 73.9311 187.774 74.5586 188.289 75.1605C191.896 79.3025 196.786 82.1186 202.179 83.1605C204.221 83.5838 206.302 83.7949 208.389 83.7905C213.234 83.6811 218.019 82.6881 222.509 80.8604C222.651 80.8141 222.782 80.7394 222.894 80.6409C223.006 80.5423 223.097 80.4219 223.161 80.287C223.225 80.1522 223.261 80.0057 223.267 79.8565C223.273 79.7072 223.248 79.5584 223.194 79.4191C223.14 79.2798 223.059 79.1528 222.955 79.046C222.85 78.9392 222.725 78.8547 222.587 78.7978C222.449 78.7408 222.301 78.7126 222.152 78.7147C222.002 78.7169 221.855 78.7495 221.719 78.8104C217.408 80.5278 212.819 81.4396 208.179 81.5005C200.769 81.5005 194.339 78.8105 189.889 73.6005C187.436 70.8189 185.853 67.3784 185.338 63.7057C184.822 60.0331 185.396 56.2898 186.989 52.9405C188.609 54.5005 190.319 56.0004 192.039 57.3604C195.389 60.0204 202.949 65.3604 209.129 65.3604C210.329 65.3766 211.52 65.1344 212.619 64.6504C212.75 64.5914 212.868 64.507 212.967 64.4021C213.066 64.2973 213.143 64.174 213.194 64.0394C213.245 63.9047 213.269 63.7613 213.265 63.6174C213.26 63.4735 213.228 63.3318 213.169 63.2005C213.11 63.0691 213.025 62.9507 212.92 62.852C212.815 62.7533 212.692 62.6762 212.558 62.6251C212.423 62.5741 212.28 62.55 212.136 62.5544C211.992 62.5587 211.85 62.5914 211.719 62.6504C207.969 64.3504 201.119 61.7105 193.399 55.6005C184.629 48.6605 177.589 39.2905 178.319 35.5405C178.789 33.1605 181.139 30.5405 184.929 28.1705C191.339 24.1705 199.739 22.1005 202.929 22.9505C205.499 23.6305 206.929 27.8905 208.309 32.0005C209.809 36.4405 211.219 40.6404 214.309 41.8704C215.24 42.2616 216.255 42.4144 217.261 42.3148C218.267 42.2153 219.232 41.8667 220.069 41.3004C221.07 40.6428 222.251 40.311 223.449 40.3505C224.249 40.4005 226.299 41.7505 229.449 45.3505C233.829 50.3505 236.659 55.4105 236.739 56.7605C235.544 57.08 234.395 57.5504 233.319 58.1605C233.098 58.3256 232.947 58.5675 232.897 58.8384C232.846 59.1093 232.899 59.3894 233.044 59.6232C233.19 59.857 233.419 60.0276 233.684 60.1012C233.95 60.1748 234.233 60.1459 234.479 60.0204C236.749 58.6004 243.309 57.2105 245.479 58.3905C245.673 58.4271 245.847 58.5363 245.964 58.696C246.081 58.8557 246.132 59.0539 246.109 59.2505ZM225.899 60.2505C226.419 58.8537 226.588 57.3501 226.389 55.8728C226.19 54.3954 225.63 52.9899 224.759 51.7805C223.309 49.7805 221.069 48.2505 219.419 48.2505C219.127 48.2505 218.847 48.3663 218.641 48.5726C218.435 48.7789 218.319 49.0587 218.319 49.3505C218.319 49.6422 218.435 49.922 218.641 50.1283C218.847 50.3345 219.127 50.4505 219.419 50.4505C220.891 50.8307 222.162 51.7613 222.969 53.0504C223.641 53.9709 224.073 55.045 224.225 56.1749C224.377 57.3049 224.244 58.4549 223.839 59.5204C223.789 59.6557 223.768 59.7993 223.774 59.943C223.781 60.0868 223.816 60.2278 223.877 60.3579C223.938 60.4881 224.025 60.6048 224.132 60.7013C224.238 60.7979 224.363 60.8724 224.499 60.9205C224.618 60.9591 224.743 60.9793 224.869 60.9805C225.095 60.9822 225.317 60.9126 225.501 60.7816C225.686 60.6506 225.825 60.4648 225.899 60.2505ZM203.109 29.3704C203.109 28.6921 202.908 28.0289 202.531 27.4648C202.154 26.9008 201.618 26.4611 200.991 26.2015C200.365 25.9419 199.675 25.874 199.01 26.0064C198.344 26.1387 197.733 26.4654 197.253 26.9451C196.774 27.4248 196.447 28.0359 196.315 28.7013C196.182 29.3666 196.25 30.0563 196.51 30.6831C196.769 31.3098 197.209 31.8455 197.773 32.2224C198.337 32.5993 199 32.8004 199.679 32.8004C200.588 32.8004 201.461 32.4391 202.104 31.7958C202.747 31.1526 203.109 30.2801 203.109 29.3704Z" fill="#A3A3C3"/>
<path d="M224.76 51.7487C225.631 52.9582 226.191 54.3637 226.39 55.8411C226.589 57.3184 226.42 58.822 225.9 60.2188C225.828 60.4283 225.693 60.6107 225.515 60.7413C225.336 60.8719 225.121 60.9443 224.9 60.9488C224.774 60.9476 224.649 60.9274 224.53 60.8888C224.394 60.8407 224.269 60.7662 224.163 60.6696C224.056 60.5731 223.969 60.4564 223.908 60.3262C223.847 60.1961 223.812 60.0551 223.805 59.9113C223.798 59.7676 223.82 59.624 223.87 59.4887C224.275 58.4232 224.408 57.2732 224.256 56.1432C224.104 55.0133 223.672 53.9392 223 53.0187C222.193 51.7296 220.922 50.799 219.45 50.4188C219.158 50.4188 218.878 50.3028 218.672 50.0966C218.465 49.8903 218.35 49.6105 218.35 49.3188C218.35 49.027 218.465 48.7472 218.672 48.5409C218.878 48.3346 219.158 48.2188 219.45 48.2188C221.07 48.2487 223.31 49.7087 224.76 51.7487Z" fill="#231F20"/>
<path d="M199.676 32.799C201.565 32.799 203.096 31.2678 203.096 29.379C203.096 27.4902 201.565 25.959 199.676 25.959C197.787 25.959 196.256 27.4902 196.256 29.379C196.256 31.2678 197.787 32.799 199.676 32.799Z" fill="#231F20"/>
<path d="M142.513 54.9805C143.743 54.9785 144.947 55.3416 145.971 56.0239C146.995 56.7061 147.794 57.6769 148.266 58.8132C148.739 59.9496 148.863 61.2006 148.624 62.4078C148.386 63.615 147.794 64.7242 146.924 65.5951C146.055 66.466 144.947 67.0594 143.74 67.3002C142.533 67.541 141.282 67.4184 140.145 66.9479C139.008 66.4775 138.036 65.6802 137.352 64.6571C136.668 63.6341 136.303 62.4311 136.303 61.2005C136.305 59.5534 136.96 57.9743 138.124 56.8087C139.288 55.6431 140.866 54.9858 142.513 54.9805ZM146.513 61.2005C146.513 60.4094 146.278 59.636 145.839 58.9782C145.399 58.3204 144.774 57.8077 144.043 57.505C143.313 57.2022 142.508 57.123 141.732 57.2773C140.956 57.4317 140.244 57.8126 139.684 58.372C139.125 58.9315 138.744 59.6442 138.59 60.4201C138.435 61.196 138.514 62.0003 138.817 62.7312C139.12 63.4621 139.633 64.0868 140.29 64.5263C140.948 64.9659 141.722 65.2005 142.513 65.2005C143.565 65.2006 144.575 64.786 145.324 64.0466C146.072 63.3073 146.5 62.3026 146.513 61.2505V61.2005Z" fill="#231F20"/>
<path d="M139.739 105.959C140.97 105.957 142.173 106.32 143.198 107.002C144.222 107.685 145.021 108.655 145.493 109.792C145.965 110.928 146.09 112.179 145.851 113.386C145.612 114.594 145.021 115.703 144.151 116.574C143.282 117.445 142.173 118.038 140.966 118.279C139.76 118.52 138.508 118.397 137.371 117.926C136.234 117.456 135.262 116.659 134.578 115.636C133.894 114.613 133.529 113.41 133.529 112.179C133.532 110.532 134.187 108.953 135.35 107.787C136.514 106.622 138.092 105.964 139.739 105.959ZM143.739 112.179C143.739 111.388 143.505 110.615 143.065 109.957C142.626 109.299 142.001 108.786 141.27 108.483C140.539 108.181 139.735 108.102 138.959 108.256C138.183 108.41 137.47 108.791 136.911 109.351C136.351 109.91 135.97 110.623 135.816 111.399C135.662 112.175 135.741 112.979 136.044 113.71C136.347 114.441 136.859 115.065 137.517 115.505C138.175 115.944 138.948 116.179 139.739 116.179C140.267 116.183 140.79 116.082 141.279 115.883C141.768 115.684 142.213 115.39 142.587 115.018C142.962 114.646 143.259 114.204 143.462 113.717C143.665 113.229 143.769 112.707 143.769 112.179H143.739Z" fill="#231F20"/>
<path d="M137.149 141.06H137.259H137.569H137.689C159.108 149.313 182.83 149.313 204.249 141.06H204.369H204.689H204.789H204.899H204.959C205.509 141.252 206.044 141.486 206.559 141.76C207.83 142.453 208.955 143.387 209.869 144.51C210.744 145.595 211.396 146.842 211.789 148.18C212.163 149.478 212.275 150.838 212.119 152.18C212.014 153.085 212.273 153.994 212.838 154.707C213.404 155.421 214.229 155.88 215.134 155.985C216.038 156.09 216.947 155.831 217.661 155.266C218.374 154.7 218.834 153.875 218.939 152.97C218.953 152.781 218.953 152.59 218.939 152.4V152.13C218.815 149.957 218.265 147.83 217.319 145.87C216.387 143.971 215.093 142.273 213.509 140.87C211.959 139.499 210.154 138.446 208.199 137.77C206.294 137.116 204.279 136.845 202.269 136.97C202.119 136.991 201.967 136.98 201.821 136.939C201.676 136.898 201.541 136.827 201.424 136.731C201.307 136.636 201.211 136.517 201.142 136.383C201.073 136.248 201.033 136.101 201.023 135.95C201.013 135.8 201.035 135.649 201.086 135.507C201.138 135.365 201.218 135.235 201.321 135.125C201.425 135.015 201.55 134.928 201.689 134.868C201.828 134.809 201.978 134.779 202.129 134.78C205.77 134.531 209.398 135.422 212.509 137.33C232.949 126.47 245.129 108.49 245.129 89.1403C245.129 87.3503 243.509 85.7402 241.729 84.5103C241.639 85.7103 241.479 86.9703 241.259 88.2903C241.33 88.5681 241.367 88.8535 241.369 89.1403C241.358 89.8555 241.135 90.5515 240.729 91.1403L240.509 91.4402C238.859 93.6003 234.639 95.5502 227.979 97.2402C228.585 100.58 228.585 104.001 227.979 107.34C227.244 112.274 225.281 116.944 222.269 120.92C218.589 125.4 211.749 127.14 205.439 127.14C200.379 127.14 195.659 126.02 193.209 124.3C191.339 123 190.789 121.3 191.729 119.66C194.469 115.03 197.729 106.34 196.729 102.71C196.638 102.331 196.444 101.985 196.169 101.71C188.239 102.26 179.879 102.54 171.299 102.55C171.073 104.644 170.073 106.577 168.494 107.97C166.915 109.363 164.872 110.114 162.767 110.076C160.661 110.039 158.646 109.215 157.118 107.766C155.59 106.318 154.659 104.35 154.509 102.25C137.739 101.52 123.169 99.7202 113.379 97.1502H113.319C104.779 94.9102 100.629 92.3002 100.629 89.1502C100.629 86.7502 103.069 84.6802 108.089 82.8102C113.977 80.827 120.046 79.4303 126.209 78.6403C128.194 77.2241 130.463 76.2551 132.859 75.8002C133.446 75.6825 134.051 75.6825 134.639 75.8002C135.078 75.9249 135.487 76.1395 135.839 76.4302C138.149 75.5302 140.559 74.7202 143.049 74.0103C139.439 74.3403 136.049 74.7402 132.779 75.1802C109.899 78.3302 96.8587 84.0202 96.8587 89.1102C96.8587 108.46 109.049 126.44 129.489 137.3C132.566 135.397 136.158 134.496 139.769 134.72C139.92 134.719 140.069 134.749 140.208 134.809C140.347 134.868 140.472 134.955 140.576 135.065C140.68 135.175 140.76 135.305 140.811 135.447C140.862 135.589 140.884 135.74 140.874 135.89C140.865 136.041 140.824 136.188 140.755 136.323C140.686 136.457 140.59 136.576 140.473 136.671C140.356 136.767 140.221 136.838 140.076 136.879C139.931 136.92 139.778 136.931 139.629 136.91C137.619 136.785 135.604 137.057 133.699 137.71C131.744 138.388 129.94 139.441 128.389 140.81C126.806 142.214 125.512 143.912 124.579 145.81C123.635 147.771 123.085 149.898 122.959 152.07V152.35C122.944 152.54 122.944 152.731 122.959 152.92C123.063 153.825 123.523 154.65 124.237 155.216C124.95 155.781 125.859 156.04 126.764 155.935C127.668 155.83 128.494 155.371 129.059 154.657C129.625 153.944 129.883 153.035 129.779 152.13C129.623 150.788 129.735 149.429 130.109 148.13C130.501 146.792 131.153 145.545 132.029 144.46C132.943 143.337 134.067 142.403 135.339 141.71C135.855 141.44 136.39 141.206 136.939 141.01H136.999L137.149 141.06ZM248.299 59.1403C248.379 61.8303 246.099 64.6402 243.939 66.3802C242.648 67.4833 241.123 68.2769 239.479 68.7003C241.118 72.9293 241.926 77.435 241.859 81.9702C245.489 84.1702 247.329 86.5803 247.329 89.1403C247.329 109.01 235.099 127.44 214.509 138.74L215.059 139.2C216.863 140.801 218.334 142.741 219.389 144.91C220.461 147.13 221.086 149.539 221.229 152V152.27C221.249 152.583 221.249 152.897 221.229 153.21C221.072 154.584 220.416 155.852 219.385 156.774C218.355 157.696 217.021 158.207 215.639 158.21C215.426 158.225 215.212 158.225 214.999 158.21C214.26 158.132 213.545 157.908 212.893 157.552C212.242 157.196 211.667 156.715 211.202 156.136C210.738 155.557 210.392 154.891 210.185 154.178C209.979 153.465 209.915 152.718 209.999 151.98C210.123 150.94 210.035 149.885 209.739 148.88C209.435 147.822 208.921 146.836 208.229 145.98C207.496 145.082 206.596 144.335 205.579 143.78C205.284 143.622 204.98 143.482 204.669 143.36C182.968 151.6 158.999 151.6 137.299 143.36C136.982 143.481 136.675 143.625 136.379 143.79C135.359 144.338 134.458 145.082 133.729 145.98C133.04 146.839 132.527 147.824 132.219 148.88C131.928 149.886 131.84 150.94 131.959 151.98C132.042 152.718 131.978 153.465 131.772 154.178C131.565 154.891 131.22 155.557 130.755 156.136C130.29 156.715 129.716 157.196 129.064 157.552C128.413 157.908 127.697 158.132 126.959 158.21C126.742 158.225 126.525 158.225 126.309 158.21C124.928 158.209 123.596 157.698 122.568 156.775C121.54 155.852 120.889 154.583 120.739 153.21C120.714 152.897 120.714 152.583 120.739 152.27V151.98C120.882 149.523 121.507 147.117 122.579 144.9C123.633 142.731 125.105 140.791 126.909 139.19L127.459 138.73C106.879 127.43 94.6387 109 94.6387 89.1302C94.6387 78.1302 128.079 71.9402 159.149 70.8102C167.833 69.7671 176.609 69.7436 185.299 70.7402C183.722 67.7428 182.898 64.407 182.898 61.0202C182.898 57.6335 183.722 54.2976 185.299 51.3002L185.039 51.0302C183.559 52.6202 180.639 54.9503 179.119 54.9503C177.599 54.9503 176.009 53.1103 173.369 49.4803C173.019 49.0003 172.719 48.5802 172.549 48.3802C172.321 48.0867 172.169 47.7411 172.108 47.3745C172.047 47.0079 172.078 46.6318 172.199 46.2802C172.619 44.7302 174.469 42.5803 177.579 41.1703C176.379 38.8503 175.799 36.7603 176.119 35.1703C176.879 31.3403 180.669 28.2702 183.709 26.3602C190.219 22.2902 199.269 19.7802 203.469 20.8802C207.179 21.8802 208.799 26.6902 210.369 31.3502C211.639 35.1302 212.949 39.0302 215.099 39.8802C216.829 40.5702 217.699 40.1102 219.029 39.4102C220.388 38.5651 221.969 38.1471 223.569 38.2102C225.319 38.3202 227.849 40.2702 231.099 44.0002C234.159 47.5202 238.289 53.3202 238.869 56.3102C241.689 55.7302 244.769 55.5902 246.549 56.5402C247.052 56.7702 247.481 57.1347 247.79 57.5936C248.099 58.0524 248.275 58.5877 248.299 59.1403ZM242.569 64.6703C244.729 62.9303 246.159 60.7303 246.109 59.2003C246.108 59.0399 246.057 58.8837 245.964 58.7531C245.871 58.6225 245.74 58.5237 245.589 58.4702C243.389 57.2902 236.829 58.6802 234.589 60.1002C234.343 60.2257 234.06 60.2545 233.794 60.181C233.529 60.1074 233.3 59.9368 233.154 59.703C233.009 59.4691 232.956 59.1891 233.007 58.9182C233.057 58.6473 233.208 58.4054 233.429 58.2402C234.505 57.6302 235.654 57.1598 236.849 56.8402C236.769 55.4902 233.939 50.4702 229.559 45.4302C226.389 41.7902 224.339 40.4302 223.559 40.4302C222.361 40.3908 221.18 40.7226 220.179 41.3802C219.342 41.9465 218.377 42.2951 217.371 42.3946C216.365 42.4942 215.351 42.3414 214.419 41.9503C211.329 40.7203 209.919 36.5202 208.419 32.0802C207.039 27.9702 205.609 23.7102 203.039 23.0302C199.819 22.1802 191.419 24.2302 185.039 28.2502C181.249 30.6202 178.899 33.2502 178.429 35.6202C177.699 39.3702 184.739 48.7402 193.509 55.6802C201.229 61.7902 208.079 64.4303 211.829 62.7303C212.094 62.6109 212.396 62.6018 212.668 62.7049C212.939 62.8081 213.159 63.015 213.279 63.2802C213.398 63.5455 213.407 63.8472 213.304 64.1191C213.201 64.3911 212.994 64.6109 212.729 64.7303C211.63 65.2142 210.439 65.4564 209.239 65.4402C203.059 65.4402 195.499 60.0702 192.149 57.4402C190.429 56.0802 188.719 54.5802 187.099 53.0202C185.506 56.3696 184.932 60.1128 185.448 63.7855C185.963 67.4582 187.546 70.8987 189.999 73.6802C194.449 78.8902 200.879 81.5802 208.289 81.5802C212.929 81.5193 217.518 80.6076 221.829 78.8903C221.965 78.8293 222.112 78.7967 222.262 78.7946C222.411 78.7924 222.559 78.8206 222.697 78.8776C222.835 78.9345 222.96 79.0189 223.065 79.1258C223.169 79.2326 223.25 79.3595 223.304 79.4989C223.358 79.6382 223.383 79.787 223.377 79.9362C223.371 80.0855 223.335 80.232 223.271 80.3668C223.207 80.5017 223.116 80.6221 223.004 80.7207C222.892 80.8193 222.761 80.894 222.619 80.9402C218.104 82.7408 213.298 83.7 208.439 83.7702C206.352 83.7747 204.271 83.5636 202.229 83.1403C196.836 82.0984 191.946 79.2823 188.339 75.1403C187.824 74.5384 187.34 73.9109 186.889 73.2603C170.169 71.0003 151.789 72.9102 137.319 78.4102C138.226 80.4271 138.634 82.6325 138.509 84.8402C138.457 85.1099 138.306 85.3503 138.085 85.5142C137.865 85.6782 137.591 85.7538 137.318 85.7262C137.045 85.6986 136.792 85.5699 136.609 85.3652C136.426 85.1606 136.326 84.8948 136.329 84.6202C136.462 82.5184 135.953 80.4258 134.869 78.6202L134.799 78.5402C134.647 78.3279 134.434 78.1673 134.189 78.0802C132.77 78.0699 131.371 78.4136 130.119 79.0802C128.905 79.5329 127.806 80.2464 126.899 81.1703C126.983 81.5116 127.093 81.8459 127.229 82.1703C127.869 83.7603 129.169 85.9102 130.039 86.3203C130.299 86.4475 130.498 86.6722 130.594 86.9455C130.689 87.2188 130.673 87.5187 130.549 87.7802C130.461 87.9711 130.32 88.1323 130.142 88.2442C129.965 88.3561 129.759 88.4138 129.549 88.4102C129.386 88.4061 129.226 88.3686 129.079 88.3002C127.789 87.6902 126.549 85.8502 125.709 84.1502C120.649 87.4802 117.039 91.3302 115.189 95.3802C124.819 97.7503 138.739 99.3802 154.699 100.11C155.039 98.12 156.082 96.318 157.639 95.0319C159.195 93.7458 161.161 93.0611 163.18 93.1022C165.199 93.1434 167.136 93.9078 168.638 95.2563C170.141 96.6047 171.11 98.4478 171.369 100.45C180.039 100.45 188.479 100.16 196.469 99.6003H196.689H196.789H196.899L197.029 99.6602H197.089C197.549 99.9338 197.948 100.3 198.259 100.735C198.571 101.171 198.788 101.666 198.899 102.19C200.129 106.78 196.509 116.02 193.679 120.82C193.539 121.06 193.209 121.62 194.529 122.55C196.909 124.21 202.089 125.2 207.139 124.95C210.669 124.78 217.139 123.85 220.629 119.57C225.989 113.03 227.959 100.9 224.749 94.1302C224.133 92.6039 223.061 91.3047 221.679 90.4099C220.298 89.5151 218.674 89.0682 217.029 89.1302C216.876 89.1448 216.722 89.1274 216.577 89.079C216.431 89.0306 216.297 88.9523 216.184 88.8492C216.071 88.7461 215.98 88.6205 215.918 88.4803C215.856 88.3401 215.824 88.1885 215.824 88.0352C215.824 87.882 215.856 87.7304 215.918 87.5902C215.98 87.45 216.071 87.3243 216.184 87.2212C216.297 87.1181 216.431 87.0399 216.577 86.9915C216.722 86.9431 216.876 86.9257 217.029 86.9402C219.089 86.8788 221.12 87.4431 222.853 88.5588C224.587 89.6746 225.941 91.2893 226.739 93.1902C227.035 93.8397 227.289 94.5078 227.499 95.1902C235.119 93.2602 237.769 91.4003 238.679 90.3503C241.169 79.3503 238.679 72.5902 237.269 68.9402C237.269 68.8102 237.169 68.6902 237.129 68.5602C234.129 67.4702 232.129 64.0702 232.009 63.9102C231.933 63.7879 231.882 63.6517 231.86 63.5095C231.837 63.3673 231.843 63.2221 231.878 63.0824C231.912 62.9426 231.974 62.8112 232.06 62.6957C232.146 62.5803 232.255 62.4833 232.379 62.4102C232.502 62.3362 232.639 62.2872 232.781 62.2662C232.923 62.2452 233.068 62.2526 233.208 62.2879C233.347 62.3232 233.478 62.3858 233.593 62.472C233.709 62.5582 233.806 62.6664 233.879 62.7902C234.429 63.6802 236.259 66.1202 238.239 66.6202C238.939 66.7802 240.689 66.1803 242.569 64.6703ZM179.229 52.7603C180.029 52.6403 182.619 50.5402 183.639 49.4402C181.833 47.4675 180.2 45.343 178.759 43.0902C175.759 44.4102 174.339 46.4402 174.359 47.0902C174.569 47.3502 174.859 47.7502 175.219 48.2502C175.999 49.2502 178.329 52.4702 179.229 52.7603ZM169.229 101.46C169.229 100.224 168.862 99.0149 168.175 97.9869C167.487 96.9589 166.511 96.1578 165.368 95.6851C164.225 95.2123 162.968 95.0891 161.756 95.3311C160.543 95.5731 159.429 96.1693 158.556 97.0444C157.682 97.9194 157.088 99.034 156.848 100.247C156.608 101.46 156.733 102.717 157.207 103.859C157.682 105.001 158.485 105.976 159.514 106.662C160.543 107.347 161.752 107.712 162.989 107.71C164.638 107.697 166.214 107.033 167.376 105.862C168.537 104.691 169.189 103.109 169.189 101.46H169.229ZM124.809 82.0002C124.73 81.7687 124.67 81.5313 124.629 81.2902C124.624 81.2303 124.624 81.1701 124.629 81.1102C119.289 81.8767 114.031 83.1286 108.919 84.8503C103.479 86.8503 102.919 88.5203 102.919 89.1403C102.919 90.5003 105.599 92.6603 113.039 94.7303C115.009 90.0203 118.979 85.7502 124.809 82.0002Z" fill="#231F20"/>
<path d="M126.126 47.4297C127.795 47.4297 129.427 47.9247 130.815 48.8521C132.203 49.7795 133.284 51.0976 133.923 52.6398C134.562 54.182 134.729 55.8791 134.403 57.5163C134.078 59.1535 133.274 60.6573 132.094 61.8377C130.913 63.018 129.409 63.8219 127.772 64.1475C126.135 64.4732 124.438 64.306 122.896 63.6672C121.353 63.0284 120.035 61.9467 119.108 60.5587C118.181 59.1708 117.686 57.539 117.686 55.8697C117.688 53.6321 118.578 51.4869 120.16 49.9046C121.743 48.3224 123.888 47.4323 126.126 47.4297ZM132.366 55.8697C132.368 54.6327 132.002 53.423 131.316 52.3936C130.63 51.3643 129.654 50.5617 128.512 50.0874C127.37 49.6131 126.112 49.4885 124.899 49.7293C123.685 49.9701 122.571 50.5656 121.696 51.4403C120.821 52.315 120.226 53.4295 119.985 54.6429C119.744 55.8562 119.869 57.1137 120.343 58.2561C120.818 59.3985 121.62 60.3745 122.649 61.0605C123.679 61.7465 124.889 62.1117 126.126 62.1097C127.78 62.107 129.365 61.4488 130.535 60.2791C131.705 59.1095 132.363 57.5238 132.366 55.8697Z" fill="#231F20"/>
<path d="M126.34 61.4487C128.405 61.4487 130.08 59.7743 130.08 57.7087C130.08 55.6432 128.405 53.9688 126.34 53.9688C124.274 53.9688 122.6 55.6432 122.6 57.7087C122.6 59.7743 124.274 61.4487 126.34 61.4487Z" fill="#27AAE1"/>
<path d="M129.109 60.44C130.059 60.44 130.829 59.6699 130.829 58.72C130.829 57.7701 130.059 57 129.109 57C128.159 57 127.389 57.7701 127.389 58.72C127.389 59.6699 128.159 60.44 129.109 60.44Z" fill="white"/>
<path d="M164.043 105.97C166.108 105.97 167.783 104.296 167.783 102.23C167.783 100.165 166.108 98.4902 164.043 98.4902C161.977 98.4902 160.303 100.165 160.303 102.23C160.303 104.296 161.977 105.97 164.043 105.97Z" fill="#27AAE1"/>
<path d="M166.812 104.95C167.762 104.95 168.532 104.18 168.532 103.23C168.532 102.28 167.762 101.51 166.812 101.51C165.862 101.51 165.092 102.28 165.092 103.23C165.092 104.18 165.862 104.95 166.812 104.95Z" fill="white"/>
<path d="M142.027 64.2892C143.226 64.2892 144.197 63.3177 144.197 62.1192C144.197 60.9208 143.226 59.9492 142.027 59.9492C140.829 59.9492 139.857 60.9208 139.857 62.1192C139.857 63.3177 140.829 64.2892 142.027 64.2892Z" fill="#27AAE1"/>
<path d="M143.639 63.6992C144.191 63.6992 144.639 63.2515 144.639 62.6992C144.639 62.1469 144.191 61.6992 143.639 61.6992C143.086 61.6992 142.639 62.1469 142.639 62.6992C142.639 63.2515 143.086 63.6992 143.639 63.6992Z" fill="white"/>
<path d="M140.606 115.02C141.804 115.02 142.776 114.048 142.776 112.85C142.776 111.651 141.804 110.68 140.606 110.68C139.407 110.68 138.436 111.651 138.436 112.85C138.436 114.048 139.407 115.02 140.606 115.02Z" fill="#27AAE1"/>
<path d="M142.217 114.439C142.769 114.439 143.217 113.992 143.217 113.439C143.217 112.887 142.769 112.439 142.217 112.439C141.665 112.439 141.217 112.887 141.217 113.439C141.217 113.992 141.665 114.439 142.217 114.439Z" fill="white"/>
<path d="M242.019 61.25C242.019 62.15 239.539 64.25 238.019 64.25C236.499 64.25 235.279 63.52 235.279 62.62C235.409 61.9611 235.761 61.3667 236.276 60.9355C236.791 60.5043 237.438 60.2624 238.109 60.25C239.629 60.25 242.019 60.3 242.019 61.25Z" fill="#8080AD"/>
</svg>
