<svg width="225" height="214" viewBox="0 0 225 214" fill="none" xmlns="http://www.w3.org/2000/svg">
<path d="M205.909 183.257C191.309 183.257 185.909 178.587 178.619 167.397L157.479 135.397C155.289 135.527 152.999 135.527 150.949 135.527C148.899 135.527 147.539 135.527 146.599 135.447V167.517C146.599 174.677 143.369 183.217 127.969 183.217C112.569 183.217 109.379 174.717 109.379 167.517V57.1768C109.379 53.0568 109.379 47.9268 111.439 43.4568C113.759 38.4568 118.239 35.0068 125.159 33.0068C132.569 30.7768 145.619 29.7568 154.599 29.7568C163.613 29.6511 172.6 30.7783 181.309 33.1068C188.629 35.0484 195.499 38.4049 201.529 42.9868C207.028 47.2379 211.419 52.7543 214.329 59.0668C217.337 65.8437 218.839 73.193 218.729 80.6068C218.9 90.1192 216.458 99.4961 211.669 107.717C207.339 114.86 201.288 120.804 194.069 125.007L212.379 150.517L212.879 151.207C220.789 162.207 224.059 166.727 224.059 172.067C224.141 173.761 223.759 175.446 222.956 176.94C222.152 178.434 220.957 179.681 219.499 180.547C216.569 182.367 212.109 183.257 205.909 183.257ZM145.909 103.377C147.789 103.527 149.759 103.647 151.829 103.647C160.689 103.647 167.889 101.647 172.639 98.0168C177.389 94.3868 179.639 89.3568 179.639 82.8568C179.639 76.5468 177.439 71.6168 173.109 68.2268C168.779 64.8368 162.109 62.9768 153.899 62.9768C151.242 62.9703 148.588 63.1575 145.959 63.5368L145.909 103.377Z" fill="#231F20"/>
<path d="M221.9 172.057C221.9 177.687 217.84 181.057 205.9 181.057C191.9 181.057 187.2 176.557 180.44 166.187L158.589 133.077C156.119 133.307 153.41 133.307 150.94 133.307C145.94 133.307 145.3 133.077 144.4 133.077V167.517C144.4 176.517 138.999 181.027 127.959 181.027C116.919 181.027 111.52 176.527 111.52 167.517V57.177C111.52 48.397 111.739 39.1771 125.709 35.1071C132.459 33.1071 144.85 31.957 154.54 31.957C193.54 31.957 216.479 49.7471 216.479 80.6071C216.479 100.427 207.02 115.517 190.8 124.307L210.63 151.787C218.74 163.047 221.9 167.327 221.9 172.057ZM151.9 105.837C171.04 105.837 181.9 97.277 181.9 82.837C181.9 68.647 171.539 60.767 153.969 60.767C150.572 60.7484 147.18 61.0498 143.839 61.6671V105.367C146.209 105.607 148.919 105.837 151.849 105.837H151.9Z" fill="#D64C4C"/>
<path d="M134.188 212.196C134.188 212.996 133.608 213.476 131.908 213.476C129.908 213.476 129.248 212.836 128.288 211.366L125.188 206.656C124.828 206.656 124.448 206.656 124.098 206.656C123.388 206.656 123.298 206.656 123.168 206.656V211.516C123.168 212.796 122.398 213.436 120.828 213.436C119.258 213.436 118.488 212.796 118.488 211.516V195.866C118.488 194.616 118.488 193.306 120.488 192.726C121.832 192.41 123.208 192.259 124.588 192.276C130.128 192.276 133.398 194.806 133.398 199.196C133.44 200.47 133.118 201.73 132.472 202.829C131.826 203.928 130.882 204.822 129.748 205.406L132.558 209.316C133.738 210.916 134.188 211.516 134.188 212.196ZM124.188 202.776C126.908 202.776 128.448 201.566 128.448 199.516C128.448 197.466 126.968 196.376 124.448 196.376C123.965 196.373 123.483 196.416 123.008 196.506V202.716C123.428 202.746 123.808 202.776 124.228 202.776H124.188Z" fill="#D64C4C"/>
<path d="M154.518 212.137C154.518 212.897 153.948 213.477 152.248 213.477C150.548 213.477 149.908 212.897 149.558 211.817L148.558 208.897H141.058L140.138 211.817C139.778 212.897 139.138 213.477 137.508 213.477C135.878 213.477 135.328 212.897 135.328 212.137C135.371 211.586 135.503 211.046 135.718 210.537L141.378 194.907C142.058 193.017 142.788 192.337 144.908 192.337C147.028 192.337 147.788 193.017 148.458 194.907L154.098 210.537C154.32 211.045 154.462 211.585 154.518 212.137ZM147.248 204.827L144.818 197.367L142.418 204.827H147.248Z" fill="#D64C4C"/>
<path d="M171.95 207.456C171.95 211.136 168.74 213.546 163.04 213.546C161.65 213.567 160.263 213.416 158.91 213.096C156.91 212.516 156.91 211.206 156.91 209.956V195.866C156.91 194.616 156.91 193.306 158.91 192.726C160.263 192.407 161.65 192.255 163.04 192.276C168.36 192.276 171.27 194.456 171.27 197.916C171.303 199.013 170.933 200.084 170.232 200.927C169.53 201.77 168.544 202.329 167.46 202.496C170.5 203.036 171.95 204.986 171.95 207.456ZM161.38 196.376V200.896H163.04C163.637 200.909 164.232 200.821 164.8 200.636C165.248 200.531 165.645 200.274 165.926 199.91C166.206 199.546 166.352 199.096 166.34 198.636C166.34 197.226 165.34 196.296 162.95 196.296C162.425 196.28 161.9 196.306 161.38 196.376ZM167.01 207.006C167.033 206.473 166.866 205.949 166.538 205.527C166.21 205.106 165.743 204.815 165.22 204.706C164.532 204.521 163.822 204.433 163.11 204.446H161.38V209.446C161.963 209.528 162.551 209.568 163.14 209.566C165.96 209.566 167.01 208.516 167.01 207.006Z" fill="#D64C4C"/>
<path d="M189.821 207.456C189.821 211.136 186.611 213.546 180.911 213.546C179.521 213.567 178.134 213.416 176.781 213.096C174.781 212.516 174.781 211.206 174.781 209.956V195.866C174.781 194.616 174.781 193.306 176.781 192.726C178.134 192.407 179.521 192.255 180.911 192.276C186.231 192.276 189.141 194.456 189.141 197.916C189.18 199.009 188.82 200.078 188.128 200.925C187.436 201.772 186.46 202.337 185.381 202.516C188.381 203.036 189.821 204.986 189.821 207.456ZM179.251 196.376V200.896H180.911C181.508 200.909 182.103 200.821 182.671 200.636C183.119 200.531 183.516 200.274 183.797 199.91C184.077 199.546 184.223 199.096 184.211 198.636C184.211 197.226 183.211 196.296 180.821 196.296C180.297 196.28 179.771 196.306 179.251 196.376ZM184.881 207.006C184.904 206.473 184.737 205.949 184.409 205.527C184.081 205.106 183.614 204.815 183.091 204.706C182.404 204.521 181.693 204.433 180.981 204.446H179.251V209.446C179.834 209.528 180.422 209.568 181.011 209.566C183.831 209.566 184.881 208.516 184.881 207.006Z" fill="#D64C4C"/>
<path d="M197.501 211.517C197.501 212.797 196.701 213.437 195.071 213.437C193.441 213.437 192.641 212.797 192.641 211.517V194.267C192.641 192.977 193.441 192.337 195.071 192.337C196.701 192.337 197.501 192.977 197.501 194.267V211.517Z" fill="#D64C4C"/>
<path d="M210.671 211.517C210.671 212.797 209.871 213.437 208.231 213.437C206.591 213.437 205.801 212.797 205.801 211.517V196.827H201.801C200.511 196.827 199.871 196.087 199.871 194.647C199.871 193.207 200.511 192.497 201.801 192.497H214.671C215.951 192.497 216.591 193.207 216.591 194.647C216.591 196.087 215.951 196.827 214.671 196.827H210.671V211.517Z" fill="#D64C4C"/>
<path d="M66.1897 100.299C66.2331 100.611 66.1527 100.928 65.9659 101.182C65.7792 101.436 65.5007 101.607 65.1897 101.659L61.7296 102.309C61.424 102.366 61.1082 102.304 60.8475 102.134C60.5869 101.965 60.4014 101.701 60.3296 101.399L58.6797 94.4889C59.8656 94.1173 60.9114 93.3958 61.6797 92.4189C61.9424 92.5938 62.2242 92.7381 62.5197 92.8489C63.2833 93.1364 64.0938 93.2788 64.9097 93.2689H65.2096L66.1897 100.299Z" fill="white"/>
<path d="M62.3803 82.3163C62.5088 82.4446 62.6 82.6055 62.6441 82.7817C62.6881 82.9578 62.6833 83.1426 62.6303 83.3163C62.5984 83.9121 62.3686 84.4803 61.9772 84.9307C61.5859 85.3811 61.0553 85.688 60.4698 85.8028C59.8842 85.9176 59.2771 85.8338 58.7447 85.5645C58.2122 85.2952 57.7849 84.856 57.5303 84.3163C57.4236 84.1752 57.3563 84.0082 57.3353 83.8326C57.3142 83.6569 57.3401 83.4787 57.4103 83.3163C57.4721 83.1455 57.5792 82.9948 57.7201 82.8803C57.8611 82.7658 58.0305 82.6919 58.2103 82.6664L61.4003 82.0663C61.47 82.0573 61.5406 82.0573 61.6103 82.0663C61.749 82.052 61.8892 82.0668 62.0218 82.1099C62.1544 82.153 62.2765 82.2233 62.3803 82.3163Z" fill="#FFAFA3"/>
<path d="M83.8894 72.5181C84.2394 73.0481 83.5694 75.4181 83.0894 77.1481C82.3675 79.4738 81.8587 81.8603 81.5694 84.2781V84.3381C81.4294 87.9581 80.6794 90.6381 79.5694 91.6881C77.2994 93.7481 73.0294 95.6881 67.9994 97.0581L67.4295 92.8881C69.9995 92.0881 71.6494 90.1682 71.2794 88.2281C71.2525 88.087 71.1981 87.9525 71.1192 87.8323C71.0403 87.7122 70.9385 87.6088 70.8196 87.528C70.7008 87.4472 70.5672 87.3907 70.4264 87.3615C70.2857 87.3324 70.1406 87.3312 69.9994 87.3582C69.8582 87.3851 69.7238 87.4395 69.6037 87.5184C69.4835 87.5973 69.3801 87.6991 69.2993 87.8179C69.2186 87.9368 69.162 88.0704 69.1328 88.2111C69.1037 88.3518 69.1025 88.4969 69.1294 88.6381C69.2794 89.4381 67.9994 90.6382 66.0694 90.9781C65.1704 91.1646 64.2379 91.1058 63.3694 90.8081C63.1424 90.75 62.9329 90.6379 62.7587 90.4811C62.5845 90.3244 62.451 90.1278 62.3694 89.9081L61.9295 87.5482C62.6469 87.1746 63.2732 86.6476 63.7641 86.0046C64.2549 85.3617 64.5981 84.6186 64.7694 83.8281C64.9068 83.3046 64.9091 82.7548 64.7762 82.2302C64.6432 81.7055 64.3795 81.2231 64.0094 80.8281C63.6359 80.4198 63.1642 80.1137 62.6392 79.9387C62.1142 79.7637 61.5533 79.7256 61.0094 79.8281L57.8095 80.4281C57.2692 80.531 56.7635 80.7681 56.3389 81.1176C55.9143 81.4671 55.5843 81.9177 55.3794 82.4281C55.1763 82.9316 55.1046 83.4785 55.1711 84.0173C55.2375 84.5561 55.44 85.0691 55.7594 85.5081C56.2064 86.1833 56.7964 86.7519 57.4877 87.1736C58.179 87.5953 58.9545 87.8597 59.7594 87.9481L60.1994 90.2982C60.3494 91.0982 59.0794 92.2981 57.1994 92.6381C55.3194 92.9781 53.6594 92.3681 53.4994 91.5681C53.4741 91.4268 53.4211 91.2919 53.3435 91.1711C53.2659 91.0503 53.1653 90.946 53.0473 90.8643C52.9293 90.7825 52.7963 90.7248 52.6559 90.6946C52.5156 90.6644 52.3706 90.6622 52.2294 90.6881C51.9432 90.7416 51.6899 90.9063 51.5249 91.1462C51.36 91.3862 51.2968 91.6818 51.3494 91.9681C51.6894 93.7781 53.6494 94.9681 56.0894 94.9681H56.6294L57.5495 98.8181C51.7707 99.2616 45.959 98.6862 40.3794 97.1181C36.6394 96.0281 33.9394 92.8381 32.3794 87.6181C32.2494 87.2081 32.1294 86.7881 32.0194 86.3681C28.7794 73.8081 32.5594 55.8181 35.1794 52.6481V52.5981C35.1938 52.5701 35.2105 52.5433 35.2294 52.5181L35.2894 52.4081V52.3181C35.295 52.2817 35.295 52.2446 35.2894 52.2081C35.2894 52.2081 35.2894 52.1481 35.2894 52.1181C35.2943 52.0783 35.2943 52.038 35.2894 51.9981C35.2993 51.9689 35.2993 51.9373 35.2894 51.9081V51.7881C35.2847 51.7583 35.2847 51.7279 35.2894 51.6981V51.5881C35.2856 51.5583 35.2856 51.528 35.2894 51.4981V51.3981L35.2294 51.3081L35.1595 51.2181C34.3495 50.4081 29.2294 44.6581 27.3294 41.2181C32.3294 36.2181 36.9994 29.8781 37.3294 26.5081C37.3584 26.3581 37.3558 26.2037 37.3217 26.0547C37.2877 25.9057 37.223 25.7655 37.1318 25.6429C37.0406 25.5204 36.9248 25.4181 36.7919 25.3428C36.659 25.2674 36.5119 25.2205 36.3598 25.2052C36.2078 25.1899 36.0542 25.2064 35.9089 25.2537C35.7636 25.301 35.6298 25.378 35.5159 25.4799C35.402 25.5817 35.3106 25.7062 35.2475 25.8454C35.1844 25.9846 35.151 26.1354 35.1494 26.2881C34.8694 29.0681 30.3094 35.2381 25.3094 40.1481L25.1494 40.3081C23.4261 42.0194 21.5667 43.5879 19.5894 44.9981C16.5894 46.9981 15.4594 46.9181 15.1794 46.8381C14.8994 46.7581 14.4394 46.6381 14.0194 45.6481C12.4394 41.9381 14.6494 32.3181 16.8694 28.2381C17.7994 26.5381 21.8694 24.1581 27.3294 22.1581C32.4694 20.2681 36.3894 19.6081 37.5194 19.8081C37.9294 23.2881 41.5194 39.1081 43.6094 44.0981C42.6134 44.5592 41.6794 45.1438 40.8294 45.8381C40.6067 46.0265 40.4678 46.2955 40.4435 46.5862C40.4191 46.8769 40.5112 47.1653 40.6994 47.3881C40.804 47.5088 40.9328 47.6059 41.0776 47.6732C41.2224 47.7404 41.3798 47.7761 41.5394 47.7781C41.7989 47.7824 42.05 47.6856 42.2394 47.5081C43.1793 46.7545 44.2278 46.1477 45.3494 45.7081C45.4579 45.6831 45.5624 45.6427 45.6595 45.5881C49.5195 44.0881 54.5295 43.7881 57.1695 45.2381C57.2975 45.332 57.4443 45.3971 57.5999 45.4289C57.7555 45.4607 57.9161 45.4584 58.0707 45.4222C58.2253 45.386 58.3703 45.3168 58.4956 45.2192C58.621 45.1217 58.7237 44.9982 58.7968 44.8572C58.8698 44.7162 58.9114 44.5611 58.9189 44.4025C58.9263 44.2438 58.8992 44.0855 58.8396 43.9383C58.78 43.7911 58.6892 43.6586 58.5735 43.5498C58.4578 43.441 58.32 43.3585 58.1695 43.3081C57.3818 42.8939 56.5404 42.5911 55.6695 42.4081C59.3595 37.4681 62.6695 28.1681 64.4295 22.6881C67.0595 14.4581 69.0594 5.81813 69.1394 2.32812C70.5394 2.80812 74.5095 6.20811 77.0495 12.2481C79.8595 18.9281 82.2095 32.1882 66.7995 46.5482C66.2292 46.223 65.6417 45.9293 65.0395 45.6682C64.7842 45.5998 64.5127 45.6256 64.2749 45.741C64.0371 45.8563 63.8488 46.0534 63.7444 46.2962C63.64 46.539 63.6266 46.8112 63.7065 47.0632C63.7863 47.3151 63.9542 47.5299 64.1795 47.6682C71.3895 50.7682 77.3495 59.7581 80.1795 71.7781C79.4242 72.4257 78.7524 73.1647 78.1795 73.9781C78.0375 74.2148 77.9896 74.4961 78.0453 74.7664C78.1011 75.0367 78.2563 75.2761 78.4804 75.4373C78.7044 75.5984 78.9809 75.6693 79.2549 75.6362C79.5289 75.603 79.7803 75.4681 79.9594 75.2581C80.5365 74.4305 81.2499 73.7068 82.0694 73.1181C82.537 72.7436 83.111 72.5266 83.7094 72.4981C83.7701 72.4913 83.8317 72.4981 83.8894 72.5181Z" fill="#EAAF6E"/>
<path d="M140.552 54.1971C140.724 54.6648 140.801 55.1622 140.778 55.6601C140.756 56.1581 140.635 56.6466 140.422 57.0971C139.996 57.9982 139.233 58.6954 138.297 59.0379C137.361 59.3804 136.328 59.3406 135.422 58.927C132.69 57.6503 129.734 56.9264 126.721 56.7971C123.625 56.6736 120.533 57.156 117.621 58.2171C111.901 60.3261 107.178 64.5 104.381 69.9171C102.158 68.9007 99.7241 68.4277 97.2815 68.5371C96.9689 67.6506 96.7117 66.7455 96.5115 65.8271C95.8399 62.6912 95.7821 59.4549 96.3414 56.2971C96.9335 53.0618 98.1531 49.9738 99.9315 47.2071C101.769 44.3703 104.148 41.9236 106.932 40.0071L107.071 39.9071C107.227 39.8057 107.387 39.7122 107.552 39.627C108.461 39.188 109.507 39.1269 110.461 39.4571C110.933 39.6167 111.367 39.8687 111.74 40.1984C112.113 40.5281 112.416 40.9288 112.631 41.377C113.073 42.2843 113.137 43.3297 112.809 44.284C112.481 45.2382 111.788 46.0233 110.881 46.4671C108.664 47.5467 106.682 49.0559 105.052 50.9071C103.368 52.8265 102.08 55.0592 101.261 57.4771C100.425 59.9737 100.085 62.6099 100.261 65.237C100.3 65.8639 100.374 66.4883 100.481 67.1071C100.476 67.1536 100.476 67.2006 100.481 67.247C100.481 67.247 100.481 67.247 100.481 67.317L100.542 67.427L100.641 67.5771C100.683 67.6349 100.73 67.6885 100.782 67.737L100.871 67.807H100.932L101.062 67.877H101.121H101.261H101.361H101.682H101.821H101.902C102.011 67.8257 102.112 67.7583 102.201 67.677L102.312 67.557C102.342 67.5126 102.369 67.4658 102.391 67.4171C103.467 64.9587 104.892 62.6684 106.621 60.617C109.055 57.7565 112.024 55.399 115.361 53.677C118.787 51.9202 122.525 50.8534 126.361 50.5371C130.273 50.2271 134.207 50.6857 137.942 51.8871H138.052C138.199 51.9299 138.342 51.9834 138.481 52.0471C138.955 52.2457 139.382 52.5388 139.738 52.9085C140.094 53.2782 140.371 53.7167 140.552 54.1971Z" fill="#BFDA5D"/>
<path d="M123.091 175.077C124.681 178.897 124.891 181.767 124.581 182.437C122.841 182.827 112.251 182.057 105.191 181.537C99.5208 181.127 95.3208 180.827 92.8008 180.757C94.8345 177.32 96.2715 173.564 97.0508 169.647C97.5208 169.487 98.0507 169.277 98.7307 169.037C102.361 167.677 109.111 165.147 114.971 166.147C118.471 166.747 121.461 171.157 123.091 175.077Z" fill="#EAAF6E"/>
<path d="M109.979 95.7554C113.659 101.125 114.339 105.755 111.869 108.755C110.993 109.835 109.816 110.629 108.487 111.036C107.159 111.444 105.739 111.447 104.409 111.045C100.409 109.405 99.5288 106.255 101.289 100.165C102.209 96.9755 104.489 94.4055 106.709 94.0355C106.875 94.0259 107.042 94.0259 107.209 94.0355C107.778 94.0662 108.33 94.2399 108.814 94.5405C109.298 94.8412 109.699 95.259 109.979 95.7554Z" fill="#EAAF6E"/>
<path d="M101.23 71.1261C104.614 71.9898 107.519 74.1567 109.312 77.154C111.105 80.1513 111.639 83.7359 110.8 87.1261C110.46 88.4261 109.91 90.1261 109.16 92.2061C108.28 91.8219 107.306 91.7037 106.36 91.866C103.3 92.366 100.36 95.5261 99.1897 99.5461C98.0197 103.566 97.2997 108.336 100.8 111.396C100.25 112.516 99.6997 113.616 99.1497 114.666C95.2197 112.316 90.4596 110.016 85.9696 107.846L82.4297 106.126C82.8597 95.7561 83.9797 85.3561 85.1697 80.6361C85.5958 78.9534 86.3493 77.3713 87.3872 75.98C88.4251 74.5887 89.727 73.4157 91.2185 72.5279C92.71 71.64 94.3618 71.0548 96.0796 70.8057C97.7974 70.5566 99.5474 70.6485 101.23 71.0761V71.1261Z" fill="#FE8C01"/>
<path d="M105.63 123.517C105.907 125.175 105.748 126.876 105.17 128.453C104.591 130.031 103.613 131.431 102.33 132.517C101.245 133.558 99.9208 134.318 98.4739 134.729C97.0271 135.141 95.5015 135.192 94.0304 134.877C92.2452 131.338 89.6055 128.3 86.3504 126.037C76.5104 119.377 66.0604 121.377 59.0304 124.227C50.6604 127.617 44.4004 133.307 43.9204 135.587C43.8641 135.868 43.9207 136.16 44.0779 136.4C44.2351 136.639 44.4803 136.807 44.7604 136.867C45.0453 136.927 45.3422 136.872 45.5873 136.715C45.8323 136.558 46.0058 136.311 46.0704 136.027C46.3404 134.837 51.7904 129.427 60.2104 126.107C66.6604 123.577 76.2104 121.817 85.1204 127.857C92.8504 133.097 97.0104 144.807 96.2604 159.177C95.7604 168.617 93.0704 177.507 89.8304 181.067L89.7104 181.197C89.3029 181.65 88.8231 182.032 88.2905 182.327C85.6005 183.767 77.0904 184.327 66.0804 183.697C54.588 183.097 43.1708 181.488 31.9604 178.887H31.8204H31.6104H31.5204H31.4105H31.3204H31.2205L31.1304 178.947L31.0504 179.007L30.9604 179.087C29.6704 180.587 25.0404 181.727 19.9604 181.807C14.3104 181.887 9.52042 180.687 7.75042 178.757C5.77337 176.554 4.27736 173.964 3.3579 171.15C2.43845 168.337 2.11579 165.362 2.41046 162.417C2.65454 158.63 3.83664 154.964 5.8504 151.747C5.88339 153.716 6.38383 155.649 7.31042 157.387C7.40866 157.564 7.55427 157.71 7.73089 157.809C7.90751 157.908 8.10817 157.956 8.31042 157.947C8.49668 157.951 8.68027 157.902 8.84045 157.807C8.96631 157.737 9.07711 157.643 9.16644 157.531C9.25576 157.418 9.32185 157.288 9.36089 157.15C9.39994 157.011 9.41116 156.866 9.39391 156.723C9.37667 156.581 9.33131 156.442 9.26043 156.317C7.08043 152.407 8.44042 147.067 9.12042 144.957C9.55148 143.564 10.135 142.222 10.8604 140.957C11.8604 145.787 15.6005 149.957 19.2205 153.957C22.8405 157.957 26.3805 161.957 27.2205 166.367C27.2653 166.621 27.3983 166.85 27.5959 167.015C27.7936 167.179 28.0431 167.269 28.3004 167.267C28.3634 167.277 28.4275 167.277 28.4904 167.267C28.6323 167.243 28.768 167.191 28.8895 167.114C29.011 167.037 29.1158 166.936 29.1978 166.818C29.2798 166.699 29.3373 166.566 29.3669 166.425C29.3966 166.284 29.3978 166.139 29.3704 165.997C28.4604 160.927 24.6004 156.657 20.8704 152.517C16.7304 147.917 12.8104 143.567 12.8104 138.427C12.8153 138.354 12.8153 138.28 12.8104 138.207C12.7916 138.136 12.7682 138.066 12.7404 137.997L12.6504 137.837L12.5804 137.757L12.5104 137.677C12.485 137.648 12.4545 137.625 12.4204 137.607L12.3504 137.547H12.2504H12.1605H12.0504H11.9604H11.7604C11.6908 137.537 11.6201 137.537 11.5504 137.547C11.478 137.563 11.4076 137.586 11.3404 137.617C9.72045 138.307 8.12042 141.547 7.25042 144.117C6.78686 145.5 6.45211 146.923 6.25042 148.367C5.83185 148.724 5.44387 149.116 5.09045 149.537C3.42045 135.837 4.9304 121.347 7.4804 115.157C13.1004 101.547 20.0104 93.3972 30.4804 88.1572V88.2572C32.3104 94.2572 35.4804 97.9072 40.0004 99.2572C44.5228 100.532 49.2019 101.165 53.9004 101.137C55.3404 101.137 56.7904 101.077 58.2604 100.967L58.4904 101.967C58.6661 102.71 59.0876 103.372 59.6866 103.846C60.2855 104.32 61.0268 104.577 61.7905 104.577C62.0052 104.577 62.2194 104.557 62.4305 104.517L65.8904 103.867C66.7492 103.706 67.5129 103.22 68.0231 102.511C68.5333 101.801 68.7508 100.923 68.6304 100.057L68.5304 99.3072C74.0604 97.8672 78.6604 95.7272 81.2604 93.3772L81.3904 93.2472C81.0304 96.9472 80.7405 101.017 80.5605 105.157C77.9305 103.807 75.8004 102.577 75.4804 101.947C75.3773 101.688 75.1798 101.478 74.9278 101.359C74.6758 101.241 74.388 101.222 74.1227 101.307C73.8574 101.392 73.6343 101.575 73.4983 101.818C73.3624 102.061 73.3239 102.347 73.3904 102.617C73.9404 104.387 77.6405 106.237 85.2905 109.927C89.7705 112.097 94.8404 114.547 98.8604 117.007C104 120.257 105.38 122.357 105.63 123.517Z" fill="#EAAF6E"/>
<path d="M101.711 68.0174H101.381H101.281H101.141H101.081L100.951 67.9474H100.891L100.801 67.8774C100.749 67.8288 100.702 67.7753 100.661 67.7174L100.561 67.5674L100.501 67.4574C100.501 67.4574 100.501 67.4574 100.501 67.3874C100.495 67.3409 100.495 67.2939 100.501 67.2474C100.393 66.6286 100.32 66.0043 100.281 65.3774C100.105 62.7503 100.445 60.1141 101.281 57.6174C102.1 55.1995 103.388 52.9669 105.071 51.0475C106.701 49.1963 108.683 47.6871 110.901 46.6074C111.807 46.1637 112.501 45.3786 112.829 44.4243C113.157 43.4701 113.093 42.4246 112.651 41.5174C112.435 41.0691 112.132 40.6685 111.76 40.3388C111.387 40.0091 110.952 39.757 110.481 39.5974C109.527 39.2672 108.48 39.3283 107.571 39.7674C107.406 39.8526 107.246 39.9461 107.091 40.0475L106.951 40.1474C104.167 42.064 101.788 44.5107 99.951 47.3474C98.1726 50.1141 96.953 53.2022 96.361 56.4374C95.8017 59.5952 95.8595 62.8316 96.5311 65.9674C96.7313 66.8858 96.9885 67.7909 97.3011 68.6774C99.7437 68.568 102.177 69.041 104.401 70.0574C107.191 64.6459 111.902 60.4728 117.611 58.3574C120.523 57.2964 123.614 56.814 126.711 56.9374C129.723 57.0668 132.68 57.7907 135.411 59.0674C136.318 59.481 137.351 59.5208 138.287 59.1783C139.222 58.8358 139.986 58.1385 140.411 57.2374C140.838 56.325 140.884 55.2806 140.541 54.3337C140.198 53.3868 139.493 52.6148 138.581 52.1874C138.442 52.1237 138.298 52.0703 138.151 52.0274H138.041C134.306 50.826 130.372 50.3674 126.461 50.6774C122.624 50.9937 118.887 52.0606 115.461 53.8174C112.123 55.5394 109.155 57.8969 106.721 60.7574C104.991 62.8088 103.567 65.099 102.491 67.5574C102.468 67.6061 102.441 67.653 102.411 67.6974L102.301 67.8174C102.212 67.8987 102.11 67.9661 102.001 68.0174H101.921H101.781H101.711ZM35.3811 51.7574V51.8774C35.391 51.9066 35.391 51.9383 35.3811 51.9674C35.386 52.0073 35.386 52.0476 35.3811 52.0874C35.3811 52.0874 35.3811 52.1474 35.3811 52.1774C35.3867 52.2138 35.3867 52.251 35.3811 52.2874V52.3774L35.3211 52.4874C35.3022 52.5126 35.2855 52.5394 35.2711 52.5674V52.6174C32.6511 55.7874 28.871 73.7774 32.111 86.3374C32.221 86.7574 32.3411 87.1774 32.4711 87.5874C34.0711 92.8074 36.7711 95.9974 40.4711 97.0874C46.037 98.6362 51.8312 99.198 57.591 98.7474L56.6711 94.8974H56.1311C53.6911 94.8974 51.7311 93.7374 51.3911 91.8974C51.3385 91.611 51.4015 91.3155 51.5665 91.0755C51.7314 90.8356 51.9848 90.6708 52.2711 90.6174C52.4123 90.5914 52.5572 90.5936 52.6976 90.6239C52.8379 90.6541 52.9709 90.7118 53.0889 90.7935C53.2069 90.8753 53.3076 90.9796 53.3852 91.1004C53.4628 91.2212 53.5158 91.3561 53.5411 91.4974C53.7011 92.2974 55.311 92.9274 57.241 92.5674C59.171 92.2074 60.441 91.0274 60.241 90.2274L59.8011 87.8774C58.9962 87.789 58.2206 87.5245 57.5294 87.1029C56.8381 86.6812 56.2481 86.1126 55.8011 85.4374C55.4817 84.9984 55.2792 84.4854 55.2127 83.9466C55.1462 83.4077 55.218 82.8609 55.4211 82.3574C55.626 81.8471 55.9559 81.3964 56.3806 81.047C56.8052 80.6975 57.3108 80.4604 57.851 80.3574L61.0511 79.7574C61.5949 79.6549 62.1559 79.6929 62.6809 79.8679C63.2059 80.0429 63.6775 80.3491 64.0511 80.7574C64.4211 81.1524 64.6849 81.6348 64.8178 82.1594C64.9507 82.6841 64.9485 83.2339 64.8111 83.7574C64.6398 84.5479 64.2964 85.291 63.8056 85.9339C63.3148 86.5768 62.6884 87.1038 61.971 87.4774L62.4111 89.8374C62.4926 90.0571 62.6262 90.2537 62.8004 90.4104C62.9745 90.5672 63.1841 90.6793 63.4111 90.7374C64.2796 91.0351 65.2121 91.0939 66.111 90.9074C68.041 90.5374 69.3211 89.3674 69.1711 88.5674C69.1442 88.4262 69.1452 88.2811 69.1744 88.1404C69.2035 87.9997 69.2602 87.8661 69.341 87.7472C69.4218 87.6284 69.5251 87.5266 69.6452 87.4477C69.7653 87.3688 69.8999 87.3144 70.0411 87.2874C70.1823 87.2605 70.3274 87.2616 70.4681 87.2908C70.6088 87.3199 70.7424 87.3765 70.8613 87.4573C70.9801 87.5381 71.0818 87.6415 71.1607 87.7616C71.2396 87.8817 71.2941 88.0163 71.321 88.1574C71.691 90.0974 70.041 92.0174 67.471 92.8174L68.0411 96.9874C73.0411 95.6574 77.341 93.6774 79.611 91.6174C80.771 90.6174 81.521 87.8874 81.611 84.2674V84.2074C81.9004 81.7896 82.4092 79.4031 83.1311 77.0774C83.6111 75.3474 84.2811 72.9774 83.9311 72.4474C83.8643 72.3981 83.784 72.3702 83.701 72.3674C83.1026 72.3959 82.5287 72.6129 82.0611 72.9874C81.2417 73.5761 80.5281 74.2997 79.951 75.1274C79.7719 75.3373 79.5205 75.4723 79.2465 75.5055C78.9726 75.5386 78.696 75.4677 78.472 75.3065C78.2479 75.1454 78.0927 74.906 78.0369 74.6357C77.9812 74.3654 78.0291 74.0841 78.1711 73.8474C78.744 73.034 79.4158 72.295 80.1711 71.6474C77.3111 59.6474 71.3511 50.6474 64.1711 47.5374C63.9459 47.3992 63.7779 47.1844 63.6981 46.9325C63.6182 46.6805 63.6316 46.4083 63.736 46.1655C63.8404 45.9227 64.0287 45.7256 64.2665 45.6103C64.5043 45.4949 64.7758 45.4691 65.0311 45.5374C65.6333 45.7986 66.2209 46.0923 66.7911 46.4174C82.2011 32.0574 79.8511 18.7974 77.0411 12.1174C74.5011 6.1174 70.5311 2.67741 69.1311 2.19741C69.051 5.68741 67.0511 14.3274 64.4211 22.5574C62.6711 28.0374 59.3511 37.3374 55.6611 42.2774C56.532 42.4604 57.3734 42.7632 58.1611 43.1774C58.3117 43.2278 58.4494 43.3103 58.5651 43.4191C58.6808 43.5279 58.7716 43.6604 58.8312 43.8076C58.8909 43.9548 58.9179 44.1131 58.9105 44.2718C58.9031 44.4304 58.8615 44.5855 58.7884 44.7265C58.7153 44.8675 58.6126 44.991 58.4873 45.0885C58.3619 45.1861 58.2169 45.2553 58.0623 45.2915C57.9077 45.3277 57.7471 45.33 57.5915 45.2982C57.4359 45.2664 57.2891 45.2014 57.1611 45.1074C54.5211 43.6574 49.5111 43.9574 45.6511 45.4574C45.554 45.512 45.4496 45.5524 45.3411 45.5774C44.2195 46.017 43.1709 46.6238 42.231 47.3774C42.0416 47.5548 41.7906 47.6517 41.5311 47.6474C41.3715 47.6454 41.2141 47.6097 41.0693 47.5424C40.9245 47.4752 40.7956 47.3781 40.6911 47.2574C40.5028 47.0346 40.4107 46.7462 40.4351 46.4555C40.4594 46.1649 40.5983 45.8957 40.8211 45.7074C41.6711 45.0131 42.605 44.4285 43.601 43.9674C41.481 38.9674 37.9211 23.1574 37.5111 19.6774C36.3811 19.4774 32.5111 20.1374 27.3211 22.0274C21.8911 24.0274 17.791 26.4074 16.861 28.1074C14.641 32.1874 12.4311 41.8074 14.0111 45.5174C14.4311 46.5174 15.011 46.6574 15.171 46.7074C15.331 46.7574 16.6311 46.8874 19.5811 44.8674C21.5583 43.4571 23.4177 41.8887 25.1411 40.1774L25.301 40.0174C30.301 35.1074 34.8611 28.9374 35.1411 26.1574C35.1427 26.0046 35.176 25.8539 35.2391 25.7147C35.3022 25.5755 35.3936 25.451 35.5075 25.3491C35.6214 25.2473 35.7553 25.1702 35.9006 25.123C36.0459 25.0757 36.1994 25.0591 36.3515 25.0745C36.5035 25.0898 36.6507 25.1367 36.7836 25.2121C36.9165 25.2874 37.0322 25.3897 37.1234 25.5122C37.2146 25.6348 37.2793 25.7751 37.3134 25.924C37.3474 26.073 37.35 26.2274 37.3211 26.3774C36.9911 29.7474 32.3211 36.0374 27.3211 41.0874C29.2211 44.5274 34.3211 50.2774 35.1511 51.0874L35.2211 51.1774L35.2811 51.2674V51.3674C35.2773 51.3973 35.2773 51.4275 35.2811 51.4574V51.5674C35.2889 51.6412 35.3246 51.7092 35.3811 51.7574ZM31.5111 178.907H31.601H31.811H31.9511C43.1614 181.508 54.5786 183.117 66.071 183.717C77.071 184.307 85.5911 183.787 88.2811 182.347C88.8137 182.052 89.2935 181.67 89.701 181.217L89.821 181.087C93.061 177.527 95.751 168.637 96.251 159.197C97.001 144.827 92.841 133.117 85.111 127.877C76.201 121.877 66.651 123.597 60.201 126.127C51.781 129.447 46.331 134.857 46.061 136.047C45.9964 136.331 45.8229 136.578 45.5779 136.735C45.3329 136.893 45.0359 136.947 44.751 136.887C44.4709 136.827 44.2257 136.659 44.0685 136.42C43.9113 136.18 43.8548 135.888 43.9111 135.607C44.3911 133.327 50.6511 127.607 59.0211 124.247C66.0211 121.397 76.501 119.397 86.341 126.057C89.5962 128.32 92.2358 131.358 94.0211 134.897C95.5028 135.22 97.0411 135.171 98.4995 134.756C99.9578 134.341 101.291 133.572 102.381 132.517C103.664 131.432 104.642 130.031 105.221 128.454C105.799 126.876 105.958 125.175 105.681 123.517C105.451 122.347 104.051 120.247 98.6811 116.937C94.6811 114.477 89.591 112.027 85.111 109.857C77.461 106.167 73.761 104.317 73.211 102.547C73.1444 102.277 73.1831 101.991 73.319 101.748C73.455 101.505 73.6781 101.322 73.9434 101.237C74.2087 101.152 74.4964 101.171 74.7484 101.29C75.0004 101.409 75.198 101.619 75.3011 101.877C75.6211 102.507 77.7511 103.737 80.3811 105.087C80.5611 100.947 80.851 96.8774 81.211 93.1774L81.081 93.3074C78.481 95.6574 73.881 97.7974 68.351 99.2374L68.451 99.9874C68.5714 100.853 68.354 101.732 67.8438 102.441C67.3336 103.15 66.5698 103.636 65.711 103.797L62.251 104.447C62.04 104.487 61.8257 104.507 61.611 104.507C60.8474 104.508 60.1061 104.25 59.5072 103.776C58.9082 103.303 58.4868 102.641 58.3111 101.897L58.081 100.897C56.611 101.007 55.161 101.067 53.721 101.067C49.0225 101.095 44.3434 100.462 39.8211 99.1874C35.3411 97.8774 32.131 94.1874 30.301 88.1874V88.0874C19.871 93.2974 12.961 101.447 7.30104 115.087C4.75104 121.277 3.24108 135.767 4.91108 149.467C5.2645 149.046 5.65249 148.654 6.07106 148.297C6.27274 146.853 6.6075 145.43 7.07106 144.047C7.94106 141.477 9.54108 138.237 11.1611 137.547C11.2331 137.529 11.3068 137.519 11.3811 137.517C11.4507 137.508 11.5214 137.508 11.5911 137.517H11.791H11.8811H11.991H12.0811H12.181L12.251 137.577C12.2851 137.595 12.3157 137.619 12.3411 137.647L12.4111 137.727L12.481 137.807L12.5711 137.967C12.5989 138.036 12.6223 138.106 12.6411 138.177C12.646 138.251 12.646 138.324 12.6411 138.397C12.6411 143.537 16.5611 147.887 20.7011 152.487C24.4311 156.627 28.2911 160.897 29.2011 165.967C29.2284 166.109 29.2272 166.254 29.1976 166.395C29.1679 166.536 29.1104 166.669 29.0285 166.788C28.9465 166.906 28.8416 167.007 28.7202 167.084C28.5987 167.161 28.463 167.213 28.3211 167.237C28.2581 167.247 28.194 167.247 28.1311 167.237C27.8738 167.239 27.6242 167.15 27.4266 166.985C27.2289 166.82 27.0959 166.591 27.051 166.337C26.241 161.887 22.601 157.837 19.051 153.927C15.501 150.017 11.7111 145.787 10.6911 140.927C9.96565 142.193 9.38212 143.534 8.95106 144.927C8.27106 147.037 6.95107 152.377 9.09107 156.287C9.16195 156.413 9.20732 156.551 9.22456 156.694C9.2418 156.837 9.23053 156.981 9.19148 157.12C9.15243 157.258 9.08635 157.388 8.99702 157.501C8.90769 157.614 8.79689 157.708 8.67103 157.777C8.51085 157.873 8.32732 157.921 8.14106 157.917C7.93882 157.926 7.73816 157.878 7.56153 157.779C7.38491 157.681 7.23931 157.534 7.14106 157.357C6.21447 155.62 5.71404 153.687 5.68104 151.717C3.66728 154.934 2.48513 158.601 2.24104 162.387C1.94638 165.333 2.26909 168.307 3.18855 171.12C4.108 173.934 5.60402 176.525 7.58107 178.727C9.35106 180.657 14.141 181.857 19.791 181.777C24.881 181.697 29.511 180.557 30.791 179.057L30.8811 178.977L30.9611 178.917L31.051 178.857H31.1511H31.241L31.5111 178.907ZM142.641 53.4474C143.039 54.5599 143.099 55.765 142.815 56.9117C142.531 58.0584 141.914 59.0957 141.043 59.8935C140.171 60.6912 139.084 61.2139 137.917 61.3961C136.749 61.5782 135.554 61.4118 134.481 60.9174C132.01 59.7622 129.336 59.1062 126.611 58.9874C123.803 58.8769 121.001 59.3152 118.361 60.2774C115.649 61.2839 113.16 62.8089 111.031 64.7674C109.115 66.5469 107.522 68.6445 106.321 70.9674C109.042 72.7121 111.147 75.2679 112.336 78.2736C113.526 81.2793 113.741 84.5829 112.951 87.7174C112.418 89.7019 111.784 91.6578 111.051 93.5774C111.327 93.8716 111.581 94.1858 111.811 94.5174C117.591 102.927 115.421 107.937 113.611 110.177C112.73 111.249 111.623 112.113 110.37 112.707C109.117 113.302 107.748 113.613 106.361 113.617C105.416 113.631 104.479 113.457 103.601 113.107C103.284 112.98 102.974 112.837 102.671 112.677C102.118 113.777 101.578 114.847 101.051 115.887C104.721 118.287 107.361 120.727 107.811 123.127C108.065 124.853 107.953 126.613 107.48 128.292C107.008 129.971 106.187 131.532 105.071 132.872C103.954 134.212 102.567 135.302 101.001 136.07C99.4349 136.837 97.7242 137.266 95.981 137.327C95.711 137.327 95.4511 137.327 95.1811 137.327C95.6211 138.327 96.021 139.447 96.3811 140.587C98.1783 146.669 98.8892 153.019 98.481 159.347C98.3418 161.97 98.0412 164.582 97.581 167.167L97.991 167.007C101.811 165.577 108.921 162.917 115.371 164.007C122.021 165.147 126.371 175.417 126.871 180.607C127.071 182.767 126.601 184.077 125.471 184.487C124.489 184.717 123.478 184.804 122.471 184.747C119.061 184.747 113.131 184.337 105.051 183.747C99.2911 183.327 92.8211 182.847 91.0511 182.957C90.5351 183.489 89.9458 183.943 89.3011 184.307C86.8911 185.587 81.401 186.187 74.3811 186.187C60.1204 186.028 45.9171 184.352 32.0111 181.187C29.5611 183.287 24.061 184.117 19.871 184.187H19.3811C16.5011 184.187 9.13106 183.837 6.01106 180.427C3.83509 177.999 2.18713 175.145 1.17152 172.047C0.155913 168.948 -0.205226 165.673 0.111033 162.427C0.374448 158.893 1.34717 155.448 2.97108 152.297C0.73108 137.547 2.35108 121.147 5.16108 114.297C11.0711 99.9674 18.4111 91.4474 29.5811 85.9974C27.9311 78.8074 28.4911 70.8474 29.0211 66.4974C29.7811 60.2274 31.2711 54.6474 32.8411 52.0174C30.1661 49.1165 27.7314 46.0029 25.561 42.7074C24.0338 44.1576 22.4028 45.4945 20.681 46.7074C18.471 48.2274 16.6811 48.9774 15.3211 48.9774C15.0276 48.9779 14.7352 48.9409 14.4511 48.8674C13.8575 48.6885 13.3135 48.374 12.8623 47.9488C12.4111 47.5236 12.0649 46.9994 11.851 46.4174C9.85102 41.6474 12.641 31.0474 14.851 27.0974C16.521 24.0374 23.161 21.2674 25.931 20.2074C30.321 18.5474 35.7511 17.0974 38.0111 17.6174C38.4188 17.6623 38.7982 17.8474 39.0846 18.1411C39.371 18.4347 39.5465 18.8187 39.5811 19.2274C39.7111 21.6974 43.6611 38.9674 45.5811 43.2274C47.9979 42.3921 50.5446 41.9958 53.101 42.0574C59.501 34.9874 66.961 8.1274 66.961 2.0574C66.9083 1.61463 67.0181 1.16776 67.2701 0.799892C67.5221 0.432019 67.8991 0.168167 68.331 0.0573992C70.661 -0.532601 75.0411 3.49744 77.9011 8.84744C81.1411 14.9074 86.611 30.6674 68.701 47.6674C74.701 52.0074 79.6011 60.1874 82.1811 70.5174C82.7614 70.2722 83.3947 70.1793 84.0211 70.2474C84.3715 70.2737 84.7117 70.377 85.0176 70.5498C85.3236 70.7227 85.5877 70.9608 85.7911 71.2474C86.2589 72.1133 86.3838 73.1236 86.1411 74.0774C88.4308 71.3054 91.6119 69.4145 95.1411 68.7274C94.8711 67.9074 94.641 67.0774 94.451 66.2274C93.7127 62.8128 93.6482 59.2868 94.2611 55.8474C94.9051 52.3253 96.2299 48.9625 98.1611 45.9474C100.153 42.8734 102.728 40.2199 105.741 38.1374L105.891 38.0374C106.134 37.8699 106.388 37.7196 106.651 37.5874C108.073 36.9444 109.69 36.8809 111.158 37.4104C112.627 37.9399 113.831 39.0208 114.515 40.4235C115.2 41.8262 115.31 43.4405 114.824 44.9236C114.338 46.4068 113.293 47.6421 111.911 48.3674C109.947 49.3179 108.193 50.6506 106.751 52.2874C105.262 53.9879 104.124 55.9658 103.401 58.1074C102.891 59.6298 102.588 61.2141 102.501 62.8174C103.297 61.5103 104.193 60.2666 105.181 59.0974C107.797 56.015 110.99 53.474 114.581 51.6174C118.256 49.7323 122.265 48.5873 126.381 48.2474C130.579 47.9074 134.802 48.3967 138.811 49.6874H138.931C139.16 49.7635 139.383 49.8537 139.601 49.9574C140.308 50.312 140.938 50.8029 141.455 51.4019C141.971 52.0008 142.364 52.696 142.611 53.4474H142.641ZM124.641 182.447C124.951 181.777 124.741 178.907 123.151 175.087C121.561 171.267 118.531 166.757 115.031 166.157C109.171 165.157 102.421 167.687 98.7911 169.047C98.1411 169.287 97.581 169.497 97.111 169.657C96.3317 173.574 94.8947 177.331 92.861 180.767C95.381 180.837 99.581 181.137 105.251 181.547C112.251 182.057 122.841 182.827 124.581 182.437L124.641 182.447ZM111.931 108.807C114.401 105.807 113.721 101.137 110.041 95.8074C109.761 95.311 109.361 94.8931 108.876 94.5925C108.392 94.2919 107.84 94.1182 107.271 94.0874C107.105 94.0779 106.938 94.0779 106.771 94.0874C104.551 94.4574 102.271 97.0274 101.351 100.217C99.591 106.307 100.501 109.457 104.471 111.097C105.794 111.485 107.202 111.474 108.518 111.065C109.835 110.656 111.001 109.867 111.871 108.797L111.931 108.807ZM110.861 87.1874C111.502 84.6532 111.377 81.986 110.503 79.5227C109.628 77.0595 108.043 74.9108 105.947 73.3482C103.852 71.7857 101.34 70.8795 98.7294 70.744C96.119 70.6086 93.527 71.2501 91.2811 72.5874C89.7946 73.4756 88.4989 74.6497 87.4691 76.0417C86.4392 77.4338 85.6955 79.0161 85.2811 80.6974C84.0911 85.4174 82.9711 95.8174 82.5411 106.187L86.081 107.907C90.571 110.077 95.3311 112.377 99.2611 114.727C99.8111 113.677 100.361 112.577 100.911 111.457C97.4111 108.397 98.1311 103.637 99.3011 99.6074C100.471 95.5774 103.411 92.4274 106.471 91.9274C107.418 91.765 108.391 91.8832 109.271 92.2674C109.911 90.2174 110.461 88.5174 110.801 87.1774L110.861 87.1874ZM65.2711 101.667C65.5821 101.616 65.8607 101.445 66.0474 101.191C66.2342 100.937 66.3144 100.62 66.2711 100.307L65.2711 93.3074H64.971C64.1552 93.3172 63.3446 93.1748 62.581 92.8874C62.2855 92.7766 62.0037 92.6323 61.741 92.4574C60.9727 93.4342 59.927 94.1558 58.741 94.5274L60.3911 101.437C60.4628 101.74 60.6482 102.003 60.9089 102.173C61.1695 102.342 61.4855 102.405 61.7911 102.347L65.2711 101.667ZM62.6711 83.2874C62.7241 83.1138 62.7289 82.9289 62.6849 82.7527C62.6408 82.5765 62.5496 82.4157 62.4211 82.2874C62.3252 82.1782 62.2065 82.0912 62.0736 82.0324C61.9406 81.9737 61.7964 81.9447 61.6511 81.9474C61.5814 81.9384 61.5108 81.9384 61.4411 81.9474L58.251 82.5474C58.0713 82.5729 57.9018 82.6469 57.7608 82.7614C57.6199 82.8759 57.5128 83.0266 57.451 83.1974C57.3807 83.3598 57.3548 83.538 57.3759 83.7136C57.397 83.8893 57.4643 84.0562 57.571 84.1974C57.8256 84.7371 58.253 85.1763 58.7855 85.4456C59.3179 85.7148 59.925 85.7987 60.5106 85.6839C61.0961 85.5691 61.6265 85.2622 62.0179 84.8118C62.4092 84.3614 62.6392 83.7932 62.6711 83.1974V83.2874Z" fill="#231F20"/>
<path d="M61.2719 73.8754C61.4158 73.8754 61.5584 73.8468 61.6913 73.7914C61.8242 73.736 61.9448 73.6549 62.0461 73.5526C62.1475 73.4503 62.2276 73.329 62.2817 73.1956C62.3359 73.0622 62.3631 72.9194 62.3618 72.7754C62.3618 70.2854 63.8118 68.1854 65.5118 68.1854C67.2118 68.1854 68.6619 70.2854 68.6619 72.7754C68.6473 72.928 68.6647 73.0819 68.7131 73.2274C68.7615 73.3728 68.8398 73.5066 68.9429 73.62C69.046 73.7334 69.1716 73.8241 69.3118 73.8861C69.4519 73.9481 69.6035 73.9802 69.7568 73.9802C69.9101 73.9802 70.0617 73.9481 70.2019 73.8861C70.3421 73.8241 70.4677 73.7334 70.5708 73.62C70.6739 73.5066 70.7521 73.3728 70.8005 73.2274C70.8489 73.0819 70.8664 72.928 70.8518 72.7754C70.8518 69.0354 68.4618 65.9854 65.5118 65.9854C62.5618 65.9854 60.1719 68.9854 60.1719 72.7754C60.1719 73.0671 60.2877 73.3469 60.494 73.5532C60.7003 73.7595 60.9801 73.8754 61.2719 73.8754Z" fill="#231F20"/>
<path d="M46.7612 76.2657C48.6832 76.2657 50.2412 74.7077 50.2412 72.7857C50.2412 70.8638 48.6832 69.3057 46.7612 69.3057C44.8393 69.3057 43.2812 70.8638 43.2812 72.7857C43.2812 74.7077 44.8393 76.2657 46.7612 76.2657Z" fill="#231F20"/>
<path d="M112.111 82.8886C104.571 79.5786 97.461 77.5886 92.611 77.4786C92.4584 77.464 92.3044 77.4815 92.1589 77.5298C92.0135 77.5782 91.8798 77.6565 91.7664 77.7596C91.6529 77.8627 91.5623 77.9884 91.5002 78.1285C91.4382 78.2687 91.4062 78.4203 91.4062 78.5736C91.4062 78.7269 91.4382 78.8785 91.5002 79.0187C91.5623 79.1589 91.6529 79.2845 91.7664 79.3876C91.8798 79.4907 92.0135 79.569 92.1589 79.6174C92.3044 79.6658 92.4584 79.6832 92.611 79.6686C97.611 79.7786 105.051 82.1086 112.181 85.3186C112.348 84.5143 112.324 83.682 112.111 82.8886Z" fill="#231F20"/>
<path d="M95.3812 97.8158C92.5312 96.6358 87.8112 96.1258 82.0712 96.3058C82.0807 96.4389 82.0807 96.5726 82.0712 96.7058C82.0242 97.316 81.9273 97.9214 81.7812 98.5158C87.1213 98.3058 91.7812 98.6958 94.5812 99.8458C94.8332 99.901 95.0967 99.8659 95.3254 99.7466C95.5542 99.6272 95.7337 99.4312 95.8326 99.1929C95.9315 98.9546 95.9436 98.6891 95.8666 98.4429C95.7895 98.1966 95.6284 97.9853 95.4113 97.8458L95.3812 97.8158Z" fill="#231F20"/>
<path d="M39.8117 44.3576C39.7417 43.0776 37.4117 35.5476 34.5717 32.2676C32.8344 34.8437 30.8914 37.275 28.7617 39.5376C30.0417 41.6076 34.5417 47.8476 35.2217 48.0776C35.9017 48.3076 39.8917 45.7876 39.8117 44.3576Z" fill="#FFAFA3"/>
</svg>
