<svg width="248" height="206" viewBox="0 0 248 206" fill="none" xmlns="http://www.w3.org/2000/svg">
<path d="M178.235 171.022C170.605 171.022 165.145 169.702 161.055 166.882C157.185 164.222 154.415 160.192 152.055 153.812L111.505 41.5817C109.715 36.1817 108.695 32.9717 108.695 29.5817C108.648 27.8778 109.043 26.1909 109.842 24.6854C110.642 23.1799 111.817 21.9072 113.255 20.9916C116.385 18.9316 120.985 17.9316 127.325 17.9316C133.925 17.9316 138.605 18.9917 142.035 21.2817C145.165 23.3717 147.255 26.4217 148.785 31.1617L179.115 122.162L208.815 31.1617C211.815 21.7717 217.935 17.9417 229.815 17.9417C235.865 17.9417 240.285 18.9417 243.325 21.0217C244.73 21.9583 245.875 23.2354 246.653 24.7339C247.431 26.2325 247.817 27.9037 247.775 29.5917C247.775 32.8117 246.695 36.5917 244.955 41.5917L204.175 153.802C199.505 166.512 192.735 171.022 178.235 171.022Z" fill="#231F20"/>
<path d="M210.897 31.8701C213.377 24.2201 217.897 20.1602 229.817 20.1602C241.527 20.1602 245.587 24.2201 245.587 29.6201C245.587 32.3201 244.687 35.7001 242.887 40.8801L202.117 153.06C198.057 164.06 192.657 168.82 178.237 168.82C163.817 168.82 158.187 164.09 154.137 153.06L113.587 40.8801C111.787 35.4801 110.887 32.5501 110.887 29.6201C110.887 24.2201 114.947 20.1602 127.327 20.1602C139.947 20.1602 144.227 24.2201 146.707 31.8701L179.137 129.18L210.897 31.8701Z" fill="#F498A3"/>
<path d="M136.545 185.383C136.855 184.383 137.415 183.933 138.905 183.933C140.395 183.933 140.905 184.433 140.905 185.103C140.869 185.588 140.754 186.064 140.565 186.513L135.495 200.513C134.985 201.883 134.315 202.513 132.495 202.513C130.675 202.513 130.005 201.923 129.495 200.513L124.445 186.513C124.262 186.062 124.147 185.587 124.105 185.103C124.105 184.433 124.615 183.933 126.155 183.933C127.695 183.933 128.265 184.433 128.575 185.383L132.575 197.503L136.545 185.383Z" fill="#F498A3"/>
<path d="M153.305 197.113C153.507 196.555 153.602 195.965 153.585 195.373V185.613C153.585 184.483 154.265 183.933 155.585 183.933C156.905 183.933 157.585 184.483 157.585 185.613V195.343C157.623 196.58 157.405 197.813 156.945 198.963C155.795 201.633 153.355 202.643 150.295 202.643C147.235 202.643 144.795 201.643 143.645 198.963C143.188 197.822 142.967 196.601 142.995 195.373V185.613C142.995 184.483 143.695 183.933 145.125 183.933C146.555 183.933 147.265 184.483 147.265 185.613V195.373C147.248 195.965 147.343 196.555 147.545 197.113C147.754 197.689 148.148 198.18 148.665 198.509C149.182 198.838 149.794 198.987 150.405 198.933C151.022 199.002 151.646 198.86 152.172 198.529C152.699 198.199 153.098 197.699 153.305 197.113Z" fill="#F498A3"/>
<path d="M170.267 198.513C171.387 198.513 171.947 199.133 171.947 200.393C171.947 201.653 171.387 202.303 170.267 202.303H162.907C161.427 202.303 160.777 201.663 160.777 200.173V185.613C160.777 184.483 161.477 183.933 162.907 183.933C164.337 183.933 165.047 184.483 165.047 185.613V198.513H170.267Z" fill="#F498A3"/>
<path d="M179.737 200.762C179.737 201.882 179.027 202.442 177.597 202.442C176.167 202.442 175.467 201.882 175.467 200.762V187.852H171.957C170.837 187.852 170.277 187.212 170.277 185.942C170.277 184.672 170.837 184.062 171.957 184.062H183.237C184.357 184.062 184.927 184.682 184.927 185.942C184.927 187.202 184.357 187.852 183.237 187.852H179.737V200.762Z" fill="#F498A3"/>
<path d="M197.297 197.113C197.495 196.554 197.589 195.965 197.577 195.373V185.613C197.577 184.483 198.247 183.933 199.577 183.933C200.907 183.933 201.577 184.483 201.577 185.613V195.343C201.612 196.581 201.391 197.814 200.927 198.963C199.777 201.633 197.337 202.643 194.277 202.643C191.217 202.643 188.777 201.643 187.627 198.963C187.174 197.821 186.956 196.6 186.987 195.373V185.613C186.987 184.483 187.687 183.933 189.117 183.933C190.547 183.933 191.247 184.483 191.247 185.613V195.373C191.233 195.966 191.332 196.556 191.537 197.113C191.792 197.656 192.197 198.115 192.703 198.436C193.21 198.758 193.797 198.929 194.397 198.929C194.997 198.929 195.585 198.758 196.091 198.436C196.598 198.115 197.002 197.656 197.257 197.113H197.297Z" fill="#F498A3"/>
<path d="M218.514 201.321C218.514 202.021 218.004 202.441 216.514 202.441C215.859 202.501 215.201 202.355 214.633 202.024C214.065 201.692 213.614 201.191 213.344 200.591L210.614 196.461C210.314 196.461 209.974 196.461 209.664 196.461C209.044 196.461 208.964 196.461 208.854 196.461V200.761C208.854 201.881 208.174 202.441 206.804 202.441C205.434 202.441 204.754 201.881 204.754 200.761V187.011C204.754 185.921 204.754 184.771 206.524 184.261C207.701 183.987 208.906 183.856 210.114 183.871C214.964 183.871 217.834 186.081 217.834 189.931C217.87 191.048 217.589 192.152 217.022 193.115C216.456 194.078 215.628 194.861 214.634 195.371L217.104 198.791C218.114 200.201 218.514 200.731 218.514 201.321ZM209.784 193.071C212.174 193.071 213.514 192.011 213.514 190.211C213.514 188.411 212.224 187.461 210.034 187.461C209.611 187.461 209.19 187.497 208.774 187.571V193.021C209.084 193.041 209.424 193.071 209.784 193.071Z" fill="#F498A3"/>
<path d="M229.375 191.13C230.505 191.13 231.065 191.75 231.065 192.99C231.065 194.23 230.505 194.81 229.375 194.81H224.665V198.63H230.665C231.785 198.63 232.355 199.24 232.355 200.48C232.355 201.72 231.785 202.3 230.665 202.3H222.735C221.255 202.3 220.605 201.66 220.605 200.17V186.17C220.605 184.68 221.255 184.03 222.735 184.03H230.535C231.655 184.03 232.225 184.65 232.225 185.89C232.225 187.13 231.655 187.71 230.535 187.71H224.645V191.1L229.375 191.13Z" fill="#F498A3"/>
<path d="M58.4347 29.1708C58.9747 33.0308 58.7647 36.2809 58.1647 37.9009C56.6547 39.3109 46.4747 43.1509 43.4947 43.1509C42.0147 43.1509 40.2747 41.4509 38.7247 39.9409C37.6773 38.7273 36.3904 37.7434 34.9447 37.0508C32.6347 36.2808 29.8347 37.6609 27.5947 38.7809C26.9847 39.0809 26.4147 39.3609 25.9747 39.5409C25.3146 39.7449 24.6202 39.8137 23.9329 39.7432C23.2457 39.6728 22.5796 39.4645 21.9747 39.1309C21.1535 38.6282 20.4568 37.946 19.9372 37.1354C19.4176 36.3248 19.0885 35.407 18.9747 34.4509C18.8616 33.8306 18.8047 33.2014 18.8047 32.5709C18.8489 32.4629 18.8727 32.3476 18.8747 32.2309C18.8801 32.095 18.8597 31.9592 18.8147 31.8309C19.1214 27.0452 20.7406 22.4366 23.4947 18.5109C24.6334 16.8237 26.1103 15.3915 27.8318 14.3053C29.5532 13.2191 31.4816 12.5024 33.4947 12.2009H33.6947L33.8647 12.1309L34.0447 12.0009L34.1147 11.9208L34.1847 11.8409L34.2547 11.7509C34.2514 11.7209 34.2514 11.6908 34.2547 11.6609C34.2509 11.631 34.2509 11.6007 34.2547 11.5709C34.2506 11.5343 34.2506 11.4974 34.2547 11.4609C34.2596 11.4277 34.2596 11.394 34.2547 11.3608C34.2585 11.3276 34.2585 11.2941 34.2547 11.2609C34.2859 11.1192 34.2859 10.9725 34.2547 10.8309C34.237 10.7593 34.2065 10.6915 34.1647 10.6309C33.0182 8.85438 32.5496 6.72449 32.8447 4.63086C34.0384 6.66112 35.6802 8.39183 37.6447 9.69086C37.9651 11.5498 38.932 13.2357 40.3747 14.4509C40.5745 14.6321 40.8349 14.732 41.1047 14.7309C41.3274 14.7333 41.5456 14.6675 41.7297 14.5422C41.9139 14.4169 42.0553 14.2382 42.1348 14.0301C42.2143 13.822 42.2282 13.5946 42.1745 13.3784C42.1209 13.1622 42.0023 12.9676 41.8347 12.8209C40.6911 11.8098 39.9759 10.4008 39.8347 8.88086C39.8396 8.84436 39.8396 8.80737 39.8347 8.77087C39.7326 7.10066 40.0096 5.42897 40.6447 3.88086C41.7047 6.29086 44.3247 9.66086 50.5747 13.6309C55.0247 16.4409 57.0147 22.6309 57.8147 26.0109C58.0647 27.0909 58.2547 28.1409 58.3947 29.1409C58.4102 29.1477 58.4238 29.1579 58.4347 29.1708Z" fill="#F498A3"/>
<path d="M43.0844 34.17C43.3735 34.17 43.6507 34.0552 43.8551 33.8508C44.0595 33.6464 44.1744 33.3692 44.1744 33.0801C44.1744 30.4801 45.5144 28.2901 47.1044 28.2901C48.6944 28.2901 50.0444 30.4801 50.0444 33.0801C50.0704 33.3524 50.1971 33.6053 50.3995 33.7893C50.602 33.9733 50.8658 34.0753 51.1394 34.0753C51.413 34.0753 51.6768 33.9733 51.8792 33.7893C52.0817 33.6053 52.2083 33.3524 52.2344 33.0801C52.2344 29.1601 49.9844 26.0801 47.1044 26.0801C44.2244 26.0801 41.9844 29.1401 41.9844 33.0801C41.9844 33.2241 42.0129 33.3666 42.0683 33.4995C42.1237 33.6324 42.2049 33.753 42.3072 33.8544C42.4094 33.9557 42.5308 34.0358 42.6642 34.09C42.7976 34.1442 42.9404 34.1714 43.0844 34.17Z" fill="#231F20"/>
<path d="M26.1273 30.9611C26.4164 30.9611 26.6937 30.8463 26.8981 30.6418C27.1025 30.4374 27.2173 30.1602 27.2173 29.8711C27.2173 27.2711 28.5673 25.0811 30.1573 25.0811C31.7473 25.0811 33.0873 27.2711 33.0873 29.8711C33.1134 30.1435 33.24 30.3964 33.4425 30.5804C33.645 30.7644 33.9087 30.8663 34.1823 30.8663C34.4559 30.8663 34.7197 30.7644 34.9222 30.5804C35.1247 30.3964 35.2513 30.1435 35.2773 29.8711C35.2773 25.9511 33.0273 22.8711 30.1573 22.8711C27.2873 22.8711 25.0273 25.9311 25.0273 29.8711C25.0273 30.0151 25.0559 30.1577 25.1113 30.2906C25.1667 30.4235 25.2478 30.544 25.3501 30.6454C25.4524 30.7467 25.5737 30.8269 25.7071 30.881C25.8405 30.9352 25.9834 30.9624 26.1273 30.9611Z" fill="#231F20"/>
<path d="M76.1844 182.692C76.5951 183.168 77.0987 183.556 77.6644 183.832C73.8706 186.402 69.8818 188.672 65.7344 190.622C66.2968 186.29 67.4753 182.06 69.2344 178.062C71.8344 179.13 74.1966 180.704 76.1844 182.692Z" fill="#3E4C68"/>
<path d="M86.736 177.37C87.1074 177.369 87.4782 177.342 87.846 177.29C85.396 179.75 82.406 181.82 80.146 182.06C79.7247 182.137 79.2907 182.104 78.8861 181.963C78.4814 181.823 78.1198 181.581 77.836 181.26C76.166 179.26 72.966 177.26 69.236 175.69L69.096 175.61L68.886 175.54C64.346 173.65 59.066 172.42 54.796 172.77H53.796C47.076 172.77 40.986 167.16 39.896 164.68C39.036 162.68 38.716 157.97 38.896 153.94C40.1222 156.072 41.6781 157.996 43.506 159.64C47.2668 163.12 52.1927 165.067 57.316 165.1H57.626C67.336 164.96 76.626 168.74 81.336 174.74C81.9705 175.568 82.7886 176.236 83.7258 176.692C84.663 177.149 85.6936 177.381 86.736 177.37Z" fill="#DDA377"/>
<path d="M91.3564 162.381C92.281 164.246 92.7635 166.299 92.7664 168.381C92.7721 169.552 92.484 170.705 91.9284 171.736C91.3729 172.767 90.5676 173.642 89.5864 174.281C88.5832 174.97 87.3572 175.256 86.1525 175.082C84.9479 174.908 83.8531 174.286 83.0864 173.341C78.0864 166.931 68.3564 162.851 58.1864 162.851H57.3464C46.7764 162.851 40.3464 153.791 39.3464 149.121C39.0564 147.701 39.6864 145.991 41.1164 144.311C42.997 142.298 45.2856 140.71 47.8293 139.653C50.373 138.595 53.1131 138.094 55.8664 138.181C64.9564 138.561 76.3164 144.631 84.0864 152.381C84.131 152.448 84.1849 152.508 84.2464 152.561H84.3064C87.2019 155.406 89.5866 158.727 91.3564 162.381Z" fill="#F1CDBD"/>
<path d="M86.7359 173.451C86.2997 173.456 85.8683 173.359 85.4761 173.168C85.0838 172.977 84.7414 172.697 84.4759 172.351C79.1759 165.571 68.8559 161.181 58.1859 161.181H57.3459C53.6986 161.075 50.1749 159.836 47.2645 157.635C44.3541 155.434 42.2015 152.382 41.1059 148.901V148.841C41.0973 148.221 41.2173 147.606 41.4583 147.035C41.6992 146.463 42.0559 145.948 42.5059 145.521C44.1397 143.792 46.1059 142.411 48.2865 141.461C50.4671 140.511 52.8173 140.011 55.1959 139.991H55.8459C64.1459 140.341 74.9759 145.811 82.8459 153.611C82.9321 153.724 83.0293 153.828 83.1359 153.921L83.2059 153.981C85.9039 156.622 88.1325 159.702 89.7959 163.091C90.6214 164.721 91.0497 166.524 91.0459 168.351V168.411C91.0616 169.286 90.8563 170.151 90.449 170.925C90.0417 171.699 89.4456 172.358 88.7159 172.841C88.1254 173.224 87.4397 173.436 86.7359 173.451Z" fill="#BB2929"/>
<path d="M61.0739 106.449L59.2639 108.579C58.3859 106.937 57.6305 105.233 57.0039 103.479C58.2584 104.602 59.6218 105.597 61.0739 106.449Z" fill="#3E4C68"/>
<path d="M48.5966 133.042C48.555 133.718 48.2541 134.352 47.7566 134.812C47.0366 135.302 45.8366 134.962 44.9466 134.592C41.9466 133.302 41.8166 129.702 41.8666 128.592C41.899 127.476 42.1755 126.38 42.6766 125.382C43.4966 128.812 45.4766 132.012 48.5966 133.042Z" fill="#F9B94D"/>
<path d="M53.1044 128.45C53.175 129.195 52.9917 129.942 52.5844 130.57C52.3379 130.825 52.0344 131.018 51.6989 131.132C51.3634 131.247 51.0054 131.281 50.6544 131.23C46.7244 131.13 44.8244 126.36 44.5044 123.23C44.3952 122.601 44.4283 121.956 44.6014 121.342C44.7744 120.727 45.083 120.159 45.5044 119.68C45.6303 119.559 45.7715 119.455 45.9244 119.37C45.6805 121.183 46.0565 123.025 46.9914 124.597C47.9263 126.169 49.3652 127.379 51.0744 128.03C51.7234 128.281 52.4093 128.423 53.1044 128.45Z" fill="#F9B94D"/>
<path d="M54.5952 122.181C54.8252 122.965 54.8966 123.788 54.8052 124.601C54.7706 125.092 54.5654 125.555 54.2252 125.911C53.6452 126.441 52.6353 126.191 51.8852 125.911C50.8931 125.561 50.0192 124.94 49.3632 124.118C48.7072 123.296 48.2955 122.306 48.1753 121.261C47.9095 119.573 48.2157 117.844 49.0452 116.351C50.2842 116.671 51.4118 117.324 52.3052 118.241C53.3918 119.337 54.1801 120.694 54.5952 122.181Z" fill="#F9B94D"/>
<path d="M59.7336 126.53C59.9554 126.664 60.1314 126.861 60.2385 127.097C60.3456 127.333 60.3788 127.595 60.3336 127.85C60.217 128.263 60.0347 128.655 59.7936 129.01C58.7777 130.442 57.46 131.633 55.9336 132.5C55.4412 132.06 55.0927 131.481 54.9336 130.84C55.2836 129.881 55.4068 128.855 55.2936 127.84C55.4431 127.747 55.5837 127.639 55.7136 127.52C56.2718 127.003 56.6708 126.337 56.8636 125.6C57.9004 125.559 58.9181 125.888 59.7336 126.53Z" fill="#F9B94D"/>
<path d="M67.0142 122.843C68.934 124.863 71.0068 126.732 73.2142 128.433C70.4442 130.133 65.0942 130.023 62.2142 129.143C62.3167 128.903 62.4003 128.656 62.4642 128.403C62.5914 127.911 62.5997 127.396 62.4884 126.901C62.3771 126.405 62.1494 125.943 61.8242 125.553C63.7092 124.984 65.47 124.064 67.0142 122.843Z" fill="#F9B94D"/>
<path d="M93.3739 112.13C93.8039 114.27 92.6339 115.53 91.5939 116.64C91.1139 117.081 90.7294 117.615 90.4639 118.21C90.3439 118.57 90.0539 119.41 91.8939 124.21C92.4554 125.712 93.0929 127.184 93.8039 128.62C92.6958 129.231 91.6449 129.941 90.6639 130.74C89.9339 128.33 88.5939 124 87.9439 122.4C87.1239 120.4 85.2439 119.85 83.8739 119.4C83.4205 119.288 82.9785 119.134 82.5539 118.94C82.1539 118.42 81.2339 115.78 80.4139 111.46C79.5539 106.97 79.4939 104.2 79.7139 103.67C79.8568 103.373 80.0496 103.102 80.2839 102.87L82.8239 112.7C82.8871 112.934 83.0248 113.14 83.2162 113.288C83.4075 113.436 83.642 113.518 83.8839 113.52C83.9769 113.53 84.0708 113.53 84.1639 113.52C84.4463 113.447 84.6882 113.265 84.8364 113.014C84.9845 112.762 85.0268 112.463 84.9539 112.18L82.1939 101.54C82.5739 101.33 82.9539 101.14 83.3039 100.97L87.5039 111.2C87.588 111.397 87.727 111.566 87.9042 111.687C88.0815 111.807 88.2896 111.874 88.5039 111.88C88.6443 111.879 88.7832 111.852 88.9139 111.8C89.1825 111.689 89.3963 111.477 89.5087 111.209C89.6212 110.941 89.623 110.64 89.5139 110.37L85.2939 100.09C85.4726 100.043 85.6593 100.033 85.8419 100.063C86.0245 100.092 86.199 100.159 86.3539 100.26C89.2139 101.78 92.7339 109.03 93.3739 112.13Z" fill="white"/>
<path d="M70.8459 110.29H71.0359H71.1859L71.3259 110.22C73.5436 108.608 75.5582 106.735 77.3259 104.64C77.3803 107.279 77.685 109.908 78.2359 112.49C78.5739 114.269 79.0078 116.028 79.5359 117.76C80.2959 120.19 80.8459 120.76 81.3159 121.03C81.9034 121.321 82.5202 121.549 83.1559 121.71C84.5559 122.12 85.4259 122.44 85.8159 123.4C86.5359 125.17 88.2459 130.8 88.8159 132.62C88.6259 132.84 88.4459 133.07 88.2759 133.3C81.7259 132.36 74.2759 127.76 67.8059 120.69C66.8759 119.69 65.9759 118.63 65.0859 117.53C67.1474 115.331 69.0207 112.962 70.6859 110.45H70.8059L70.8459 110.29Z" fill="#3E4C68"/>
<path d="M73.8869 94.9404C74.0069 97.1804 73.3669 102.04 69.3469 108.42C69.2958 108.472 69.255 108.533 69.2269 108.6C66.9381 112.097 64.2537 115.319 61.2269 118.2C60.7669 118.65 60.3669 118.59 59.1469 118.12C58.1469 117.73 56.5569 117.12 55.0769 118.12C54.9123 117.878 54.7354 117.645 54.5469 117.42C55.4569 116.42 57.1669 114.36 59.7669 111.3L59.9369 111.09C64.3969 105.89 71.2069 97.8504 73.8869 94.9404Z" fill="white"/>
<path d="M78.4064 29.9113C76.1778 30.2747 73.9973 30.8886 71.9064 31.7412C68.0464 33.3312 65.4464 35.4813 64.3764 37.9713C63.6352 38.0752 62.9117 38.2804 62.2264 38.5813C61.7429 38.1059 61.1814 37.7169 60.5664 37.4313C61.0206 34.7867 61.0578 32.0873 60.6764 29.4313C62.2364 28.3313 65.6764 27.7013 69.5064 27.8713C72.5779 27.9631 75.6016 28.6562 78.4064 29.9113Z" fill="#303644"/>
<path d="M62.917 43.6823C63.717 46.0023 63.917 49.5023 60.267 53.0523C58.6587 54.6612 56.6207 55.7722 54.397 56.2523L54.167 56.3023C51.4669 56.7527 48.6945 56.4339 46.167 55.3823C46.607 53.0423 46.917 52.5223 48.707 52.1723L50.127 51.9124C53.637 51.2824 58.017 50.4924 59.287 47.9124C59.548 47.3588 59.6707 46.7502 59.6446 46.1389C59.6185 45.5275 59.4443 44.9316 59.137 44.4023C59.0044 44.1371 58.7719 43.9354 58.4906 43.8417C58.2093 43.7479 57.9023 43.7697 57.637 43.9023C57.3718 44.035 57.1701 44.2675 57.0764 44.5488C56.9826 44.8301 57.0044 45.1371 57.137 45.4023C57.607 46.3523 57.377 46.8123 57.297 46.9623C56.517 48.5123 52.417 49.2524 49.707 49.7324L48.257 50.0023C44.727 50.6923 44.367 52.7423 43.827 55.8423C43.4947 57.9227 43.0066 59.9751 42.367 61.9824C41.447 64.8024 38.047 65.2424 34.287 64.9824H34.227C32.527 64.8724 30.757 64.6223 29.117 64.3823C27.3733 64.0752 25.6075 63.9114 23.837 63.8923C24.1345 61.0243 23.6181 58.1305 22.347 55.5424C22.2264 55.2771 22.0053 55.0707 21.7324 54.9685C21.4595 54.8663 21.1573 54.8766 20.892 54.9973C20.6268 55.118 20.4204 55.3391 20.3182 55.6119C20.216 55.8848 20.2264 56.1871 20.347 56.4523C24.427 65.4523 18.467 71.1423 13.687 75.7523C12.3837 76.9367 11.1672 78.2134 10.047 79.5723C4.94704 76.0923 2.04703 69.9523 2.14703 62.9323C2.24703 57.9323 4.01703 53.3123 6.35703 52.0323C7.44359 51.4423 8.65002 51.1069 9.88519 51.0515C11.1204 50.996 12.352 51.222 13.487 51.7123C14.1099 51.9168 14.6455 52.3255 15.007 52.8723C15.0331 53.1447 15.1597 53.3976 15.3622 53.5816C15.5646 53.7656 15.8284 53.8676 16.102 53.8676C16.3756 53.8676 16.6394 53.7656 16.8419 53.5816C17.0444 53.3976 17.171 53.1447 17.197 52.8723C17.1871 52.5224 17.0946 52.1797 16.927 51.8723C19.0254 50.8871 20.7707 49.2815 21.927 47.2723C22.1796 46.8581 22.3279 46.3887 22.3593 45.9045C22.3906 45.4203 22.3041 44.9357 22.107 44.4923C22.0443 44.3621 21.9561 44.2459 21.8477 44.1505C21.7392 44.055 21.6127 43.9823 21.4756 43.9366C21.3386 43.8909 21.1937 43.8732 21.0497 43.8845C20.9056 43.8958 20.7653 43.9358 20.637 44.0023C20.5078 44.0661 20.3925 44.1549 20.2978 44.2635C20.2031 44.3721 20.1309 44.4984 20.0853 44.6351C20.0398 44.7718 20.0218 44.9162 20.0324 45.0599C20.0429 45.2036 20.0819 45.3438 20.147 45.4724C20.147 45.5524 20.197 45.8223 19.967 46.3023C19.8065 46.6075 19.6156 46.8957 19.397 47.1624C18.947 46.7524 18.337 46.2623 17.527 45.6223C15.707 44.1823 12.957 42.0123 12.767 40.6223C12.547 39.0423 13.567 36.4323 15.027 34.8223C15.458 34.3115 15.9933 33.8989 16.597 33.6123C16.6253 34.0654 16.6821 34.5164 16.767 34.9623C17.477 38.6023 19.397 40.3323 20.877 41.1323C21.7634 41.6231 22.7428 41.923 23.752 42.0125C24.7612 42.1021 25.7781 41.9794 26.737 41.6523C27.267 41.4423 27.877 41.1423 28.517 40.8223C30.297 39.9423 32.747 38.7223 34.207 39.2123C35.3141 39.8344 36.3081 40.639 37.147 41.5923C38.987 43.3923 41.077 45.4323 43.447 45.4323C46.627 45.4323 57.317 41.6823 59.677 39.5223C60.2523 39.831 60.7565 40.2568 61.157 40.7723C61.9187 41.6251 62.5155 42.6118 62.917 43.6823Z" fill="#F9B94D"/>
<path d="M77.5065 66.3793C78.1365 69.5593 76.0265 80.2793 69.9165 88.5593C65.6865 94.2793 60.5965 97.4994 54.7765 98.0994C52.2896 98.3946 49.7686 98.0425 47.4577 97.0771C45.1468 96.1118 43.1244 94.566 41.5865 92.5894C35.5265 85.4494 33.7365 73.4493 35.0365 67.2393H35.9065C39.7665 67.2393 43.2665 66.2993 44.4465 62.6693C44.9836 60.9975 45.4178 59.2943 45.7465 57.5693C47.1849 58.0899 48.6836 58.4259 50.2065 58.5693C50.7465 58.6193 51.2865 58.6494 51.8165 58.6494H52.6865C51.5827 62.3864 51.2192 66.303 51.6165 70.1793C51.7561 71.9483 52.0336 73.7036 52.4465 75.4293C52.4419 75.449 52.4419 75.4696 52.4465 75.4893C53.1465 78.3093 54.3665 81.2993 56.5165 82.8893C56.7005 83.037 56.9307 83.1149 57.1665 83.1093C57.4018 83.1131 57.6321 83.0414 57.8236 82.9046C58.0151 82.7678 58.1577 82.5733 58.2304 82.3495C58.3032 82.1257 58.3022 81.8845 58.2277 81.6613C58.1532 81.438 58.0091 81.2446 57.8165 81.1093C56.5765 80.1893 55.5365 78.3394 54.8165 75.8494C58.9165 74.2094 60.2065 70.4293 61.3465 67.0693C62.1065 64.8193 62.8365 62.6993 64.3465 61.5493C66.1265 60.1593 69.3465 59.9593 72.3465 61.0693C75.1165 62.1793 77.0565 64.1393 77.5065 66.3793Z" fill="#F498A3"/>
<path d="M76.4561 51.1509H76.5461C77.2561 51.0909 80.2661 52.3709 83.8461 54.8509C86.0472 56.2617 87.9889 58.041 89.5861 60.1108C89.2161 60.1608 88.7961 60.2409 88.2961 60.3409C86.8483 60.5979 85.4508 61.084 84.1561 61.7809L84.0761 61.8509L83.9961 61.9208L83.9361 62.0009L83.8661 62.0909V62.1809V62.2809V62.3809V62.4909V62.6708C83.8617 62.704 83.8617 62.7377 83.8661 62.7709C83.8614 62.8041 83.8614 62.8377 83.8661 62.8709C83.8572 62.907 83.8572 62.9448 83.8661 62.9809V63.0809L83.9261 63.1809C83.9261 63.1809 83.9261 63.1809 83.9261 63.2309L84.0461 63.3709L84.1961 63.4809L84.3661 63.5609H84.5461C85.2261 63.6509 87.6461 64.9908 90.1261 67.6708C92.0675 69.6708 93.4473 72.1475 94.1261 74.8509C91.7067 74.4339 89.2198 74.6757 86.9261 75.5508H86.8761L86.7961 75.6309L86.7161 75.7009L86.6461 75.7809L86.5861 75.8709C86.5844 75.9042 86.5844 75.9376 86.5861 75.9709V76.0609V76.1609C86.5861 76.1609 86.5861 76.2309 86.5861 76.2609C86.5861 76.2909 86.5861 76.3409 86.5861 76.3709V76.4809C86.5812 76.514 86.5812 76.5477 86.5861 76.5809C86.5814 76.6174 86.5814 76.6543 86.5861 76.6909V76.7909V76.8909V76.9509V77.0109C88.4661 79.8809 87.0761 85.7209 82.7761 93.0109C80.1518 97.4725 76.9917 101.596 73.3661 105.291C73.9441 104.082 74.4484 102.84 74.8761 101.571C76.4961 96.7009 76.1561 93.3309 75.5361 92.2609C75.4016 91.993 75.1793 91.7794 74.9063 91.6556C74.6333 91.5319 74.3262 91.5055 74.0361 91.5809C73.4661 91.7509 72.6961 92.4008 62.4861 104.411C60.3005 103.206 58.3549 101.609 56.7461 99.7009C62.4061 98.6009 67.5261 95.1209 71.6461 89.5409C77.7661 81.2609 80.4561 69.8509 79.6461 65.6309C79.0561 62.6309 76.5861 60.0709 73.0461 58.7509C69.3161 57.3609 65.3561 57.6808 62.9561 59.5508C60.9561 61.1008 60.1061 63.6409 59.2661 66.1009C58.2661 69.1609 57.2661 72.1008 54.2661 73.4208C54.0244 72.1921 53.8574 70.9498 53.7661 69.7009C53.3861 64.9609 53.9461 60.3509 55.1661 57.9809C57.6582 57.3807 59.9377 56.1077 61.7561 54.3008C66.2261 49.9508 65.7561 45.4609 65.1161 43.1809C64.7942 42.0669 64.3053 41.0083 63.6661 40.0409C66.2061 39.2609 70.6661 39.7409 74.9461 41.3509C78.8461 42.8209 81.7961 44.8609 83.2461 47.0309C80.69 46.9534 78.1585 47.5501 75.9061 48.7609H75.8461L75.7461 48.8409L75.6661 48.9109L75.5961 48.9809L75.5361 49.0709C75.5157 49.0986 75.4989 49.1289 75.4861 49.1609C75.4861 49.1609 75.4861 49.2309 75.4361 49.2609V49.3608V49.4609C75.4361 49.4609 75.4361 49.5309 75.4361 49.5709C75.4312 49.6107 75.4312 49.651 75.4361 49.6909V49.7709C75.432 49.8141 75.432 49.8576 75.4361 49.9009C75.4314 49.9307 75.4314 49.961 75.4361 49.9908V50.0709L75.4961 50.1909C75.5236 50.2414 75.5572 50.2884 75.5961 50.3309C75.6302 50.37 75.6669 50.4067 75.7061 50.4409C75.7553 50.4831 75.809 50.52 75.8661 50.5508L76.0161 50.6108H76.0661H76.2461H76.3861L76.4561 51.1509Z" fill="white"/>
<path d="M87.5441 62.7626C88.6264 62.4511 89.7398 62.2599 90.8641 62.1926H90.9941H91.4141L91.6041 62.1326H91.6541L91.7941 62.0626L91.9241 61.9526L92.0141 61.8426V61.7826C92.0344 61.7548 92.0512 61.7245 92.0641 61.6926C92.0844 61.6648 92.1012 61.6346 92.1141 61.6026V61.5026C92.1185 61.4694 92.1185 61.4358 92.1141 61.4026C92.1141 61.4026 92.1141 61.3425 92.1141 61.3025C92.1141 61.2625 92.1141 61.2326 92.1141 61.1926C92.1141 61.1526 92.1141 61.1425 92.1141 61.1125C92.1187 61.066 92.1187 61.0191 92.1141 60.9726C91.5441 58.0526 87.3341 54.7626 84.8841 53.0626C83.192 51.8872 81.4098 50.8473 79.5541 49.9526C81.1964 49.4571 82.9434 49.4225 84.6041 49.8526H84.8041H85.0541C85.1073 49.8573 85.1608 49.8573 85.2141 49.8526H85.2841H85.4141L85.4941 49.8025L85.5941 49.7425L85.6641 49.6626C85.6951 49.6448 85.7223 49.621 85.7441 49.5926L85.8041 49.5026C85.8295 49.4804 85.8499 49.4531 85.8641 49.4225C85.888 49.3846 85.9081 49.3445 85.9241 49.3025V49.2326C85.9286 49.1827 85.9286 49.1325 85.9241 49.0826C85.9241 49.0826 85.9241 49.0826 85.9241 49.0226C85.9241 48.9626 85.9241 48.9526 85.9241 48.9126V48.8025C85.9241 48.8025 85.9241 48.8025 85.9241 48.7425C85.9288 48.6927 85.9288 48.6425 85.9241 48.5926C84.5141 43.5926 78.1341 40.7226 75.4541 39.7126C72.6401 38.6417 69.6722 38.0306 66.6641 37.9026C68.1864 36.0563 70.1803 34.6568 72.4341 33.8526C75.2587 32.7411 78.2362 32.0667 81.2641 31.8526H81.7341C84.7549 31.5997 87.7968 31.8532 90.7341 32.6026C88.4767 33.9843 86.5701 35.8702 85.1641 38.1125C85.0208 38.3672 84.9846 38.6683 85.0634 38.9496C85.1422 39.2309 85.3295 39.4693 85.5841 39.6125C85.8387 39.7558 86.1397 39.792 86.421 39.7133C86.7023 39.6345 86.9409 39.4472 87.0841 39.1926C88.3541 36.9226 91.7541 33.8726 96.4641 32.1926C99.0899 31.1923 101.898 30.7615 104.703 30.9287C107.508 31.0959 110.246 31.8574 112.734 33.1626C115.524 34.6126 118.944 38.8626 122.374 45.1626C126.227 52.4514 129.317 60.1188 131.594 68.0426C136.654 85.2826 137.804 101.043 134.964 112.513C134.688 108.099 134.154 103.704 133.364 99.3526C130.704 84.5126 125.464 70.5125 121.934 65.5525C121.758 65.337 121.506 65.1964 121.23 65.1592C120.954 65.1221 120.674 65.1911 120.446 65.3523C120.219 65.5135 120.062 65.7549 120.005 66.0278C119.949 66.3007 119.999 66.5848 120.144 66.8226C123.544 71.5926 128.604 85.2026 131.204 99.7326C134.204 116.553 133.204 130.223 128.264 138.523C125.994 134.293 123.214 123.353 122.364 117.653C123.126 118.003 123.911 118.3 124.714 118.543C124.82 118.557 124.928 118.557 125.034 118.543C125.27 118.54 125.5 118.462 125.689 118.32C125.877 118.178 126.016 117.979 126.084 117.753C126.125 117.614 126.138 117.469 126.123 117.325C126.107 117.181 126.064 117.042 125.994 116.916C125.924 116.789 125.83 116.678 125.716 116.588C125.603 116.498 125.473 116.432 125.334 116.393C120.264 114.893 113.274 109.473 107.114 102.253C100.694 94.7226 96.4741 86.7626 95.8341 80.9426C95.8229 80.7964 95.7824 80.6541 95.715 80.524C95.6475 80.3939 95.5546 80.2788 95.4416 80.1854C95.3287 80.0921 95.198 80.0224 95.0576 79.9807C94.9171 79.939 94.7697 79.926 94.6241 79.9426C94.331 79.9704 94.061 80.1135 93.8735 80.3404C93.6859 80.5674 93.5962 80.8595 93.6241 81.1526C94.3241 87.4826 98.6241 95.6825 105.424 103.653C109.55 108.646 114.461 112.936 119.964 116.353C120.544 121.823 124.144 136.793 127.154 140.813C126.334 167.813 113.904 184.423 108.584 191.553L108.534 191.623C107.264 187.743 107.234 182.283 107.774 177.093C107.779 177.066 107.779 177.039 107.774 177.013C107.794 176.904 107.794 176.792 107.774 176.683C108.404 171.003 109.704 165.683 110.774 163.293C110.895 163.027 110.905 162.725 110.803 162.452C110.701 162.179 110.494 161.958 110.229 161.838C109.964 161.717 109.662 161.707 109.389 161.809C109.116 161.911 108.895 162.117 108.774 162.383C107.564 165.023 106.184 170.603 105.544 176.623C103.094 186.333 91.3941 198.803 85.5941 202.833C85.0941 195.303 88.0841 184.683 91.3841 176.443C92.0462 175.605 92.6445 174.719 93.1741 173.793C94.2123 172.295 94.802 170.533 94.8741 168.713C96.0294 166.314 97.441 164.047 99.0841 161.953C99.271 161.73 99.3632 161.443 99.3407 161.153C99.3183 160.863 99.183 160.594 98.9641 160.403C98.8552 160.309 98.7289 160.238 98.5925 160.193C98.4561 160.149 98.3122 160.132 98.1691 160.143C98.0261 160.154 97.8866 160.193 97.7587 160.258C97.6309 160.324 97.5171 160.413 97.4241 160.523C96.3155 161.871 95.3315 163.317 94.4841 164.843C94.1831 163.66 93.7713 162.508 93.2541 161.403C91.5153 157.826 89.205 154.556 86.4141 151.723C87.963 149.942 89.6337 148.272 91.4141 146.723C91.4976 146.772 91.5845 146.815 91.6741 146.853C91.5082 147.268 91.4398 147.716 91.4741 148.163C91.5071 148.721 91.6813 149.261 91.9804 149.733C92.2795 150.206 92.6937 150.594 93.1841 150.863C94.1574 151.372 95.2462 151.62 96.3441 151.583C97.9067 151.564 99.4488 151.224 100.874 150.583C101.086 150.477 101.26 150.31 101.374 150.103C104.407 151.723 107.785 152.591 111.224 152.633C111.664 152.633 112.084 152.633 112.504 152.633C113.092 152.549 113.651 152.323 114.132 151.975C114.613 151.626 115.001 151.165 115.264 150.633C118.814 144.803 118.154 125.133 116.624 121.423C116.582 121.275 116.509 121.137 116.41 121.02C116.311 120.902 116.188 120.807 116.05 120.74C115.911 120.673 115.76 120.636 115.607 120.632C115.453 120.627 115.3 120.655 115.158 120.714C115.016 120.773 114.888 120.862 114.783 120.974C114.677 121.085 114.596 121.218 114.546 121.364C114.496 121.509 114.476 121.663 114.49 121.816C114.503 121.97 114.549 122.118 114.624 122.253C115.914 125.393 116.624 144.253 113.414 149.493C113.164 149.913 112.764 150.413 112.334 150.493C109.687 150.64 107.039 150.21 104.574 149.233C101.874 148.233 100.744 147.103 100.644 146.753C100.562 146.474 100.372 146.24 100.117 146.101C99.8623 145.962 99.5625 145.93 99.2841 146.013C99.0056 146.095 98.7712 146.284 98.6324 146.539C98.4936 146.794 98.4618 147.094 98.5441 147.373C98.7435 147.947 99.0879 148.46 99.5441 148.863C97.9041 149.503 95.4841 149.703 94.3041 149.023C94.1184 148.928 93.9617 148.786 93.8508 148.61C93.7398 148.434 93.6787 148.231 93.6741 148.023C93.5441 146.343 99.5041 143.503 104.214 142.523C104.355 142.493 104.488 142.436 104.606 142.355C104.725 142.274 104.826 142.17 104.905 142.05C104.983 141.93 105.037 141.795 105.064 141.654C105.09 141.513 105.089 141.368 105.059 141.228C105.03 141.087 104.973 140.954 104.892 140.835C104.81 140.717 104.707 140.615 104.587 140.537C104.466 140.458 104.332 140.404 104.191 140.378C104.05 140.351 103.905 140.353 103.764 140.383C103.674 140.383 96.2741 142.063 93.0041 145.073C92.6523 144.933 92.3169 144.755 92.0041 144.543C91.7868 144.425 91.6046 144.252 91.4763 144.042C91.348 143.831 91.2782 143.589 91.2741 143.343C91.2741 140.823 97.1341 136.643 99.0841 135.823C99.346 135.719 99.5588 135.52 99.6795 135.266C99.8001 135.011 99.8197 134.721 99.7341 134.453C99.6784 134.319 99.5968 134.198 99.4941 134.097C99.3913 133.995 99.2694 133.915 99.1354 133.861C99.0014 133.807 98.858 133.781 98.7136 133.783C98.5692 133.784 98.4266 133.815 98.2941 133.873C95.5497 135.247 93.0819 137.115 91.0141 139.383C88.9641 138.093 89.0141 136.853 89.3141 136.013C89.6393 135.117 90.1583 134.304 90.8341 133.633C90.9016 133.577 90.9621 133.513 91.0141 133.443C92.4509 132.057 94.1022 130.912 95.9041 130.053C96.6926 129.641 97.5443 129.364 98.4241 129.233C101.334 130.773 110.854 141.333 111.554 143.433C111.624 143.645 111.757 143.831 111.936 143.965C112.115 144.099 112.331 144.175 112.554 144.183C112.67 144.196 112.788 144.196 112.904 144.183C113.178 144.087 113.403 143.888 113.532 143.628C113.661 143.368 113.683 143.068 113.594 142.793C113.244 141.793 111.544 139.443 109.384 136.923C110.224 132.083 109.044 123.393 106.464 120.123C106.38 119.996 106.27 119.888 106.142 119.806C106.014 119.724 105.871 119.67 105.721 119.646C105.571 119.622 105.417 119.63 105.27 119.668C105.123 119.707 104.986 119.775 104.866 119.87C104.747 119.964 104.649 120.082 104.577 120.216C104.506 120.35 104.463 120.498 104.452 120.649C104.44 120.801 104.46 120.953 104.511 121.096C104.561 121.24 104.64 121.371 104.744 121.483C106.514 123.723 107.744 130.113 107.434 134.713C104.284 131.273 100.784 127.943 99.0941 127.193H99.0341H98.9241H98.8041H98.7341C97.7212 127.225 96.7251 127.46 95.8041 127.883C94.7441 125.883 92.6041 120.273 92.6041 119.033C92.8021 118.773 93.0158 118.526 93.2441 118.293C94.3541 117.103 96.2441 115.113 95.5641 111.863C94.8841 108.613 91.2241 100.483 87.4141 98.5326C86.9532 98.2666 86.4366 98.1118 85.9054 98.0806C85.3741 98.0493 84.843 98.1425 84.3541 98.3526L83.9741 98.5126L83.5241 98.7126C82.8341 99.0126 82.1041 99.3526 81.4141 99.7126C82.6041 98.0626 83.7341 96.3226 84.7641 94.5826C87.3241 90.2226 91.0841 82.5126 89.1341 77.4826C91.0741 77.0426 94.2341 77.1326 94.7841 77.6526L94.8441 77.7026L94.9441 77.7826H95.0341H95.1341H95.2341H95.3341H95.5541H95.6941H95.7341H95.8541H95.9441H96.0241L96.1241 77.7226C96.1241 77.7226 96.1241 77.7226 96.1841 77.7226L96.2941 77.6326L96.3441 77.5726C96.3697 77.5409 96.3931 77.5075 96.4141 77.4726C96.4174 77.4427 96.4174 77.4125 96.4141 77.3826C96.4366 77.3525 96.4536 77.3187 96.4641 77.2826C96.468 77.2494 96.468 77.2158 96.4641 77.1825C96.4679 77.1493 96.4679 77.1158 96.4641 77.0826C96.4641 77.0826 96.4641 76.9926 96.4641 76.9526V76.8526C96.4641 72.3526 93.4641 68.4626 91.7141 66.5426C90.4869 65.1138 89.0861 63.844 87.5441 62.7626Z" fill="#3E4C68"/>
<path d="M76.3463 51.14H76.1663H76.1163L75.9663 51.08C75.9092 51.0492 75.8556 51.0123 75.8063 50.97C75.7672 50.9359 75.7304 50.8991 75.6963 50.86C75.6574 50.8175 75.6238 50.7706 75.5963 50.72L75.5363 50.6V50.52C75.5316 50.4902 75.5316 50.4598 75.5363 50.43C75.5322 50.3868 75.5322 50.3432 75.5363 50.3V50.22C75.5314 50.1802 75.5314 50.1399 75.5363 50.1C75.5363 50.1 75.5363 50.03 75.5363 49.99V49.89V49.79C75.5363 49.79 75.5363 49.72 75.5863 49.69C75.5991 49.658 75.6159 49.6278 75.6363 49.6L75.6963 49.51L75.7663 49.44L75.8463 49.37L75.9463 49.29H76.0063C78.2588 48.0792 80.7902 47.4825 83.3463 47.56C81.8963 45.39 78.9463 43.35 75.0463 41.88C70.7363 40.27 66.3063 39.79 63.7663 40.57C64.4056 41.5374 64.8945 42.5961 65.2163 43.71C65.8863 45.99 66.3263 50.48 61.8563 54.83C60.038 56.6369 57.7584 57.9098 55.2663 58.51C54.0463 60.88 53.4863 65.51 53.8663 70.23C53.9577 71.479 54.1246 72.7213 54.3663 73.95C57.3063 72.6 58.2963 69.69 59.3663 66.63C60.2063 64.17 61.0663 61.63 63.0563 60.08C65.4563 58.21 69.4163 57.89 73.1463 59.28C76.6863 60.6 79.1463 63.17 79.7463 66.16C80.5763 70.38 77.8863 81.79 71.7463 90.07C67.6263 95.65 62.5063 99.13 56.8463 100.23C58.4551 102.138 60.4007 103.735 62.5863 104.94C72.7963 92.94 73.5863 92.28 74.1363 92.11C74.4264 92.0346 74.7335 92.0611 75.0065 92.1848C75.2795 92.3086 75.5018 92.5222 75.6363 92.79C76.2563 93.86 76.6363 97.23 74.9763 102.1C74.5486 103.369 74.0443 104.612 73.4663 105.82C77.0919 102.126 80.252 98.0017 82.8763 93.54C87.1763 86.24 88.5663 80.4 86.6863 77.54V77.48V77.42V77.32V77.22C86.6816 77.1835 86.6816 77.1465 86.6863 77.11C86.6814 77.0768 86.6814 77.0432 86.6863 77.01V76.9C86.6863 76.9 86.6863 76.83 86.6863 76.79C86.6863 76.75 86.6863 76.73 86.6863 76.69V76.59V76.5C86.6846 76.4667 86.6846 76.4333 86.6863 76.4L86.7463 76.31L86.8163 76.23L86.8963 76.16L86.9763 76.08H87.0263C89.32 75.2049 91.807 74.9631 94.2263 75.38C93.5475 72.6766 92.1678 70.2 90.2263 68.2C87.7463 65.52 85.3263 64.2 84.6463 64.09H84.4663L84.2963 64.01L84.1463 63.9L84.0263 63.76C84.0263 63.76 84.0263 63.76 84.0263 63.71L83.9663 63.61V63.51C83.9574 63.4739 83.9574 63.4361 83.9663 63.4C83.9616 63.3669 83.9616 63.3332 83.9663 63.3C83.9619 63.2668 83.9619 63.2332 83.9663 63.2V63.02V62.91V62.81V62.71V62.62L84.0363 62.53L84.0963 62.45L84.1763 62.38L84.2563 62.31C85.551 61.6131 86.9486 61.127 88.3963 60.87C88.8963 60.77 89.3163 60.69 89.6863 60.64C88.0891 58.5702 86.1474 56.7908 83.9463 55.38C80.3663 52.9 77.3563 51.62 76.6463 51.68H76.4463L76.3463 51.14ZM84.8163 49.84C83.1556 49.41 81.4087 49.4445 79.7663 49.94C81.6221 50.8347 83.4043 51.8746 85.0963 53.05C87.5463 54.75 91.7563 58.05 92.3263 60.96C92.3309 61.0066 92.3309 61.0535 92.3263 61.1C92.3263 61.1 92.3263 61.15 92.3263 61.18C92.3263 61.21 92.3263 61.26 92.3263 61.29C92.3263 61.32 92.3263 61.36 92.3263 61.39C92.3307 61.4232 92.3307 61.4568 92.3263 61.49V61.59C92.3135 61.622 92.2967 61.6522 92.2763 61.68C92.2635 61.712 92.2467 61.7422 92.2263 61.77V61.83L92.1363 61.94L92.0063 62.05L91.8663 62.12H91.8163L91.6263 62.18H91.2063H91.0763C89.952 62.2474 88.8387 62.4385 87.7563 62.75C89.3247 63.7782 90.759 64.9976 92.0263 66.38C93.7963 68.3 96.7663 72.19 96.7763 76.69V76.79C96.7763 76.79 96.7763 76.88 96.7763 76.92C96.7801 76.9532 96.7801 76.9868 96.7763 77.02C96.7803 77.0532 96.7803 77.0868 96.7763 77.12C96.7658 77.1561 96.7489 77.19 96.7263 77.22C96.7296 77.2499 96.7296 77.2801 96.7263 77.31C96.7054 77.3449 96.682 77.3784 96.6563 77.41L96.6063 77.47L96.4963 77.56C96.4963 77.56 96.4963 77.56 96.4363 77.56L96.3363 77.62H96.2563H96.1663H96.0463H95.9763H95.8363H95.6163H95.5163H95.4163H95.3163H95.2263L95.1263 77.54L95.0663 77.49C94.5163 76.97 91.3563 76.88 89.4163 77.32C91.3663 82.32 87.6063 90.06 85.0463 94.42C84.0463 96.16 82.8863 97.9 81.6963 99.55C82.3863 99.18 83.1163 98.84 83.8063 98.55L84.2563 98.35L84.6363 98.19C85.1252 97.9799 85.6564 97.8867 86.1876 97.918C86.7188 97.9492 87.2354 98.104 87.6963 98.37C91.5063 100.37 95.2263 108.59 95.8463 111.7C96.4663 114.81 94.6363 116.94 93.5263 118.13C93.2981 118.363 93.0843 118.611 92.8863 118.87C92.8863 120.11 95.0263 125.72 96.0863 127.72C97.0073 127.297 98.0034 127.063 99.0163 127.03H99.1663H99.2863H99.3963H99.4563C101.146 127.78 104.646 131.11 107.796 134.55C108.076 129.95 106.876 123.55 105.106 121.32C105.003 121.209 104.923 121.077 104.873 120.934C104.823 120.791 104.802 120.638 104.814 120.487C104.825 120.335 104.868 120.188 104.94 120.053C105.011 119.919 105.109 119.801 105.229 119.707C105.348 119.613 105.485 119.544 105.632 119.506C105.779 119.467 105.933 119.46 106.083 119.483C106.233 119.507 106.377 119.562 106.505 119.644C106.632 119.726 106.742 119.834 106.826 119.96C109.406 123.23 110.586 131.96 109.746 136.76C111.906 139.28 113.606 141.58 113.956 142.63C114.046 142.906 114.024 143.206 113.895 143.466C113.766 143.725 113.54 143.924 113.266 144.02C113.15 144.034 113.033 144.034 112.916 144.02C112.693 144.013 112.477 143.937 112.298 143.803C112.119 143.668 111.986 143.482 111.916 143.27C111.216 141.17 101.696 130.61 98.7863 129.07C97.9066 129.201 97.0549 129.478 96.2663 129.89C94.4644 130.749 92.8132 131.894 91.3763 133.28C91.3243 133.35 91.2639 133.414 91.1963 133.47C90.5206 134.142 90.0015 134.954 89.6763 135.85C89.4163 136.69 89.3263 137.93 91.3763 139.22C93.4442 136.952 95.912 135.084 98.6563 133.71C98.7888 133.652 98.9314 133.622 99.0758 133.62C99.2203 133.618 99.3636 133.645 99.4976 133.699C99.6316 133.753 99.7535 133.833 99.8563 133.934C99.9591 134.036 100.041 134.157 100.096 134.29C100.206 134.559 100.206 134.861 100.096 135.131C99.9855 135.4 99.7738 135.615 99.5063 135.73C97.5563 136.55 91.6763 140.73 91.6963 143.25C91.7005 143.497 91.7703 143.738 91.8986 143.949C92.0269 144.16 92.209 144.333 92.4263 144.45C92.7392 144.663 93.0745 144.841 93.4263 144.98C96.6963 141.98 104.096 140.31 104.186 140.29C104.327 140.26 104.472 140.259 104.613 140.285C104.754 140.312 104.889 140.366 105.009 140.444C105.129 140.523 105.233 140.624 105.314 140.743C105.395 140.861 105.452 140.995 105.481 141.135C105.511 141.276 105.512 141.42 105.486 141.562C105.459 141.703 105.405 141.837 105.327 141.957C105.249 142.078 105.147 142.181 105.029 142.263C104.91 142.344 104.777 142.4 104.636 142.43C99.9263 143.43 93.9663 146.25 94.0963 147.93C94.101 148.138 94.162 148.341 94.273 148.517C94.3839 148.693 94.5406 148.836 94.7263 148.93C95.9063 149.61 98.3263 149.41 99.9663 148.77C99.5102 148.368 99.1657 147.854 98.9663 147.28C98.8841 147.001 98.9158 146.702 99.0546 146.447C99.1934 146.192 99.4278 146.002 99.7063 145.92C99.9848 145.838 100.285 145.87 100.54 146.008C100.795 146.147 100.984 146.382 101.066 146.66C101.166 147.01 102.296 148.11 104.996 149.14C107.461 150.118 110.109 150.548 112.756 150.4C113.186 150.4 113.586 149.86 113.836 149.4C117.006 144.19 116.336 125.3 115.046 122.16C114.971 122.026 114.926 121.877 114.912 121.724C114.899 121.571 114.918 121.416 114.968 121.271C115.019 121.126 115.099 120.993 115.205 120.881C115.31 120.769 115.438 120.681 115.58 120.622C115.722 120.563 115.875 120.535 116.029 120.539C116.183 120.543 116.334 120.58 116.472 120.647C116.611 120.714 116.733 120.809 116.832 120.927C116.931 121.045 117.004 121.182 117.046 121.33C118.576 125.04 119.236 144.71 115.686 150.54C115.424 151.073 115.035 151.533 114.554 151.882C114.073 152.231 113.514 152.456 112.926 152.54C112.506 152.54 112.086 152.54 111.646 152.54C108.208 152.498 104.829 151.63 101.796 150.01C101.682 150.217 101.508 150.385 101.296 150.49C99.8711 151.131 98.329 151.472 96.7663 151.49C95.6684 151.527 94.5796 151.279 93.6063 150.77C93.1159 150.502 92.7017 150.113 92.4026 149.641C92.1035 149.169 91.9293 148.628 91.8963 148.07C91.8621 147.624 91.9305 147.176 92.0963 146.76C92.0067 146.723 91.9199 146.679 91.8363 146.63C90.056 148.179 88.3853 149.85 86.8363 151.63C89.6272 154.464 91.9375 157.733 93.6763 161.31C94.1935 162.415 94.6054 163.567 94.9063 164.75C95.7537 163.224 96.7378 161.778 97.8463 160.43C97.9394 160.321 98.0531 160.231 98.181 160.166C98.3088 160.101 98.4483 160.061 98.5914 160.05C98.7345 160.039 98.8783 160.056 99.0148 160.101C99.1512 160.145 99.2774 160.216 99.3863 160.31C99.6053 160.501 99.7405 160.771 99.763 161.06C99.7854 161.35 99.6933 161.637 99.5063 161.86C97.8632 163.955 96.4517 166.221 95.2963 168.62C95.2242 170.441 94.6345 172.203 93.5963 173.7C93.0667 174.627 92.4684 175.513 91.8063 176.35C88.5063 184.59 85.5163 195.21 86.0163 202.74C91.8163 198.74 103.516 186.24 105.966 176.53C106.606 170.53 107.966 164.93 109.196 162.29C109.256 162.159 109.341 162.04 109.447 161.942C109.552 161.843 109.676 161.767 109.811 161.716C109.946 161.666 110.09 161.642 110.234 161.647C110.378 161.652 110.52 161.685 110.651 161.745C110.783 161.805 110.901 161.89 110.999 161.995C111.098 162.101 111.175 162.225 111.225 162.36C111.276 162.495 111.299 162.638 111.294 162.783C111.289 162.927 111.256 163.069 111.196 163.2C110.086 165.62 108.786 170.91 108.196 176.59C108.216 176.699 108.216 176.811 108.196 176.92C108.201 176.946 108.201 176.974 108.196 177C107.656 182.19 107.686 187.65 108.956 191.53L109.006 191.46C114.326 184.33 126.756 167.69 127.576 140.72C124.576 136.72 120.966 121.72 120.386 116.26C114.883 112.843 109.972 108.554 105.846 103.56C99.0463 95.56 94.7463 87.39 94.0463 81.06C94.0185 80.7669 94.1082 80.4748 94.2957 80.2479C94.4832 80.021 94.7532 79.8779 95.0463 79.85C95.1919 79.8335 95.3393 79.8464 95.4798 79.8881C95.6203 79.9298 95.7509 79.9995 95.8638 80.0928C95.9768 80.1862 96.0698 80.3014 96.1372 80.4315C96.2046 80.5616 96.2451 80.7039 96.2563 80.85C96.8963 86.67 101.116 94.63 107.536 102.16C113.696 109.38 120.686 114.8 125.756 116.3C125.895 116.339 126.025 116.406 126.139 116.495C126.252 116.585 126.346 116.697 126.416 116.823C126.486 116.95 126.53 117.089 126.545 117.232C126.561 117.376 126.547 117.521 126.506 117.66C126.438 117.886 126.3 118.085 126.111 118.227C125.922 118.369 125.693 118.447 125.456 118.45C125.35 118.464 125.242 118.464 125.136 118.45C124.333 118.208 123.548 117.91 122.786 117.56C123.636 123.26 126.416 134.2 128.686 138.43C133.586 130.13 134.636 116.43 131.626 99.64C129.026 85.11 123.966 71.5 120.566 66.73C120.421 66.4922 120.372 66.2082 120.428 65.9353C120.484 65.6624 120.641 65.4209 120.869 65.2597C121.096 65.0985 121.376 65.0295 121.652 65.0667C121.928 65.1039 122.18 65.2444 122.356 65.46C125.886 70.46 131.126 84.46 133.786 99.26C134.576 103.612 135.11 108.006 135.386 112.42C138.226 100.97 137.076 85.19 132.016 67.95C129.739 60.0262 126.649 52.3589 122.796 45.07C119.366 38.79 115.946 34.54 113.156 33.07C110.692 31.755 107.978 30.9755 105.191 30.7825C102.404 30.5895 99.6084 30.9873 96.9863 31.95C92.2763 33.63 88.8763 36.68 87.6063 38.95C87.5354 39.0761 87.4403 39.187 87.3266 39.2763C87.2128 39.3656 87.0826 39.4316 86.9433 39.4706C86.804 39.5096 86.6584 39.5209 86.5148 39.5036C86.3712 39.4863 86.2324 39.4409 86.1063 39.37C85.9802 39.2991 85.8694 39.204 85.78 39.0903C85.6907 38.9765 85.6246 38.8463 85.5856 38.707C85.5466 38.5677 85.5354 38.4221 85.5527 38.2785C85.57 38.1349 85.6154 37.9961 85.6863 37.87C87.0924 35.6277 88.9989 33.7417 91.2563 32.36C88.319 31.6106 85.2771 31.3571 82.2563 31.61H82.0663C79.0384 31.8241 76.0609 32.4985 73.2363 33.61C70.9825 34.4142 68.9886 35.8138 67.4663 37.66C70.4744 37.788 73.4423 38.3992 76.2563 39.47C78.9363 40.47 85.3163 43.36 86.7263 48.35C86.731 48.3999 86.731 48.4501 86.7263 48.5C86.7263 48.5 86.7263 48.5 86.7263 48.56V48.67C86.7263 48.67 86.7263 48.74 86.7263 48.78C86.7263 48.82 86.7263 48.78 86.7263 48.84C86.7308 48.8899 86.7308 48.9401 86.7263 48.99V49.06C86.7104 49.1019 86.6903 49.1421 86.6663 49.18C86.6521 49.2106 86.6317 49.2379 86.6063 49.26L86.5463 49.35C86.5245 49.3784 86.4973 49.4022 86.4663 49.42L86.3963 49.5L86.2963 49.56L86.2163 49.61H86.0863H86.0163C85.9631 49.6147 85.9095 49.6147 85.8563 49.61H85.6063L84.8163 49.84ZM70.7363 110.28C69.071 112.793 67.1978 115.161 65.1363 117.36C66.0263 118.46 66.9263 119.51 67.8563 120.52C74.3763 127.59 81.7763 132.19 88.3263 133.13C88.4963 132.9 88.6763 132.67 88.8663 132.45C88.3163 130.63 86.6063 125 85.8663 123.23C85.4763 122.23 84.6063 121.95 83.2063 121.54C82.5706 121.379 81.9538 121.151 81.3663 120.86C80.8963 120.6 80.3663 120.02 79.5863 117.59C79.0582 115.858 78.6242 114.099 78.2863 112.32C77.7353 109.738 77.4306 107.11 77.3763 104.47C75.6086 106.565 73.5939 108.439 71.3763 110.05L71.2363 110.12H71.0863H70.8963H70.7363V110.28ZM34.4063 10.77C34.4375 10.9117 34.4375 11.0584 34.4063 11.2C34.4101 11.2332 34.4101 11.2668 34.4063 11.3C34.4112 11.3331 34.4112 11.3669 34.4063 11.4C34.4022 11.4366 34.4022 11.4735 34.4063 11.51C34.4025 11.5399 34.4025 11.5702 34.4063 11.6C34.403 11.6299 34.403 11.6601 34.4063 11.69L34.3363 11.78L34.2663 11.86L34.1963 11.94L34.0163 12.07L33.8463 12.14H33.6463C31.6332 12.4416 29.7048 13.1582 27.9834 14.2444C26.2619 15.3307 24.785 16.7628 23.6463 18.45C20.8923 22.3758 19.273 26.9844 18.9663 31.77C19.0113 31.8984 19.0317 32.0341 19.0263 32.17C19.0243 32.2867 19.0005 32.402 18.9563 32.51C18.9563 33.1405 19.0132 33.7697 19.1263 34.39C19.2401 35.3461 19.5692 36.2639 20.0888 37.0745C20.6085 37.8851 21.3051 38.5674 22.1263 39.07C22.7313 39.4037 23.3973 39.6119 24.0845 39.6824C24.7718 39.7528 25.4662 39.684 26.1263 39.48C26.5663 39.3 27.1263 39.02 27.7463 38.72C29.9863 37.6 32.7463 36.22 35.0963 36.99C36.4972 37.7162 37.7356 38.7199 38.7363 39.94C40.2863 41.45 42.0263 43.15 43.5063 43.15C46.5063 43.15 56.6663 39.31 58.1763 37.9C58.7763 36.28 58.9863 33.03 58.4463 29.17C58.4501 29.1535 58.4501 29.1364 58.4463 29.12C58.3063 28.12 58.1163 27.12 57.8663 25.99C57.0663 22.57 55.0763 16.42 50.6263 13.61C44.3763 9.60999 41.7563 6.26999 40.6963 3.85999C40.0612 5.40809 39.7843 7.07978 39.8863 8.75C39.8912 8.7865 39.8912 8.82349 39.8863 8.85999C40.0275 10.3799 40.7427 11.7889 41.8863 12.8C42.0539 12.9467 42.1725 13.1413 42.2261 13.3575C42.2798 13.5737 42.2659 13.8011 42.1864 14.0092C42.1069 14.2173 41.9655 14.396 41.7813 14.5213C41.5972 14.6466 41.379 14.7125 41.1563 14.71C40.8865 14.7111 40.6261 14.6112 40.4263 14.43C39.0392 13.1914 38.1269 11.5083 37.8463 9.66998C35.8818 8.37095 34.24 6.64025 33.0463 4.60999C32.7512 6.70362 33.2198 8.8335 34.3663 10.61C34.3868 10.6613 34.4003 10.7151 34.4063 10.77ZM10.6663 82.14H10.5563H10.1963H10.1063H10.0463H9.9563H9.89629H9.82629C3.51629 78.37 -0.173705 71.23 0.00629488 63.02C0.116295 57.02 2.26629 51.93 5.35629 50.25C6.86937 49.422 8.56647 48.988 10.2913 48.988C12.0161 48.988 13.7132 49.422 15.2263 50.25C16.2037 49.9177 17.112 49.4093 17.9063 48.75C17.4563 48.35 16.7763 47.82 16.2363 47.39C13.8963 45.54 10.9763 43.23 10.6663 40.93C10.3563 38.63 11.5663 35.46 13.4763 33.35C14.315 32.3786 15.4265 31.6818 16.6663 31.35C17.0768 26.3146 18.8274 21.4807 21.7363 17.35C24.0988 13.8817 27.6606 11.4098 31.7363 10.41C31.0944 9.00978 30.7537 7.4903 30.7363 5.95001C30.7399 4.18979 31.2165 2.46287 32.1163 0.950012C32.1539 0.88606 32.1974 0.8258 32.2463 0.77002C32.278 0.73159 32.315 0.697876 32.3563 0.669983L32.4763 0.590027H32.5363H32.6563H32.7363H32.8663H32.9463C33.0886 0.565585 33.234 0.565585 33.3763 0.590027L33.5763 0.679993L33.7563 0.809998L33.8263 0.890015L33.8963 0.960022L33.9563 1.06V1.14001C33.9603 1.17323 33.9603 1.20678 33.9563 1.23999C33.9546 1.2733 33.9546 1.30671 33.9563 1.34003C33.9563 1.34003 33.9563 1.42002 33.9563 1.46002C33.9516 1.48984 33.9516 1.52017 33.9563 1.54999C33.9613 1.62324 33.9613 1.69677 33.9563 1.77002C33.8263 2.85002 35.9563 5.66002 37.5463 7.15002C37.7556 4.68156 38.6338 2.3168 40.0863 0.309998L40.1463 0.25L40.2363 0.169983L40.3263 0.109985L40.4063 0.0499878L40.5163 0H40.6063H40.7163H40.8163H41.0263H41.1563H41.2363H41.3363L41.4363 0.0499878H41.5063L41.6263 0.130005V0.190002L41.7163 0.280029L41.7763 0.359985L41.8363 0.450012C41.8307 0.483111 41.8307 0.516889 41.8363 0.549988V0.650024C41.8363 0.650024 41.8363 0.72 41.8363 0.75C41.841 0.786515 41.841 0.82347 41.8363 0.859985C41.8413 0.899828 41.8413 0.940199 41.8363 0.980042C41.8363 0.980042 41.8363 1.03 41.8363 1.06C41.6563 3.29 44.0863 7.34003 51.3963 11.97C56.5063 15.21 58.7263 21.97 59.5963 25.72C59.7263 26.24 59.8363 26.77 59.9363 27.3C62.3963 26.07 66.1463 25.74 69.2263 25.88C74.2263 26.12 78.6963 27.51 81.5463 29.72C85.4252 29.4075 89.3265 29.9151 92.9963 31.21C93.7821 30.8359 94.5865 30.5022 95.4063 30.21C98.3541 29.0485 101.518 28.5374 104.682 28.7117C107.845 28.886 110.934 29.7417 113.736 31.22C120.216 34.58 128.416 49.46 133.686 67.4C139.786 88.16 140.296 106.96 135.096 118.99C134.916 126.99 133.406 134.87 129.386 140.82C128.576 168.53 115.836 185.59 110.386 192.89L109.186 194.51L109.056 194.64C108.97 194.71 108.872 194.765 108.766 194.8C108.654 194.841 108.536 194.861 108.416 194.86H108.206H108.106H108.036H107.956H107.896L107.806 194.8L107.656 194.67C107.62 194.629 107.586 194.586 107.556 194.54V194.48C106.146 191.67 105.556 187.73 105.556 183.48C100.556 193.09 90.3963 203.23 85.5563 205.76C85.5182 205.79 85.4737 205.81 85.4263 205.82H85.2463H84.7363H84.5763H84.5163H84.3963H84.3463C84.2357 205.78 84.1339 205.719 84.0463 205.64L83.9463 205.54L83.8663 205.43V205.37C83.8663 205.37 83.8663 205.3 83.8663 205.26V205.15C83.8663 205.15 83.8663 205.15 83.8663 205.09C82.7263 197.52 85.4763 187.43 87.8663 180.64C86.0055 182.364 83.7599 183.619 81.3163 184.3C75.0363 188.76 68.0063 192.55 65.0463 193.52H64.9763H64.7363H64.5363H64.4463H64.2963H64.2363L64.0863 193.46L63.9163 193.35C63.8781 193.322 63.8444 193.288 63.8163 193.25L63.7463 193.14V193.08L63.6863 192.96V192.9C63.6808 192.877 63.6808 192.853 63.6863 192.83C63.6806 192.787 63.6806 192.743 63.6863 192.7C63.6814 192.66 63.6814 192.62 63.6863 192.58V192.48C64.1032 187.3 65.3948 182.228 67.5063 177.48C63.6332 175.865 59.4611 175.091 55.2663 175.21C54.9063 175.21 54.5463 175.21 54.1863 175.21C46.8263 175.21 39.7563 169.3 38.1863 165.82C36.6163 162.34 36.6863 153.75 37.4363 149.63C37.1063 147.63 37.9163 145.32 39.7263 143.19C42.0917 140.557 45.1099 138.594 48.4763 137.5C50.9677 136.614 53.6034 136.203 56.2463 136.29C62.7363 136.56 70.6263 139.57 77.8963 144.54C80.4866 146.308 82.9281 148.284 85.1963 150.45C86.6072 148.693 88.1233 147.023 89.7363 145.45C89.312 144.869 89.0811 144.169 89.0763 143.45C89.099 142.663 89.3154 141.894 89.7063 141.21C86.5663 139.21 86.7563 136.72 87.1663 135.39C87.1606 135.347 87.1606 135.303 87.1663 135.26C82.7765 134.325 78.6331 132.474 75.0063 129.83C73.0063 131.39 69.9063 131.99 66.9363 131.99C64.9003 132.023 62.8729 131.719 60.9363 131.09C59.7018 132.648 58.1195 133.894 56.3163 134.73C56.1634 134.773 56.005 134.793 55.8463 134.79C55.3624 134.78 54.8951 134.611 54.5163 134.31C53.983 133.901 53.5432 133.383 53.2263 132.79C52.4536 133.24 51.5703 133.466 50.6763 133.44C50.6169 134.065 50.4302 134.672 50.1275 135.222C49.8248 135.772 49.4126 136.255 48.9163 136.64C48.6529 136.831 48.3632 136.982 48.0563 137.09C47.6395 137.224 47.2042 137.292 46.7663 137.29C45.8122 137.259 44.8739 137.038 44.0063 136.64C40.5463 135.18 39.4563 131.52 39.5863 128.57C39.7063 125.92 40.7463 123.65 42.1963 122.66C42.138 121.81 42.2612 120.958 42.5578 120.16C42.8543 119.362 43.3174 118.635 43.9163 118.03C44.5729 117.398 45.4203 117 46.3263 116.9C46.9563 114.9 47.9363 113.9 49.0463 114.16C50.4569 114.447 51.7795 115.064 52.9063 115.96C53.9063 114.84 55.7063 112.68 57.6563 110.38C55.834 107.284 54.546 103.904 53.8463 100.38H52.9863C50.4554 100.373 47.9584 99.7974 45.6804 98.6948C43.4023 97.5921 41.4015 95.9909 39.8263 94.01C34.0258 86.3131 31.483 76.6447 32.7463 67.09C31.3563 66.96 29.9863 66.76 28.7463 66.58C26.9585 66.2315 25.1364 66.0906 23.3163 66.16C21.9163 70.84 18.1963 74.43 15.1563 77.35C13.6923 78.6353 12.3774 80.081 11.2363 81.66V81.72V81.78L11.1763 81.84L11.1163 81.9L11.0463 81.95H10.9663L10.6663 82.14ZM91.5963 116.64C92.5963 115.53 93.8063 114.27 93.3763 112.13C92.7563 109.03 89.2163 101.78 86.3763 100.32C86.2214 100.219 86.047 100.152 85.8644 100.122C85.6818 100.093 85.495 100.103 85.3163 100.15L89.5363 110.45C89.6454 110.719 89.6436 111.021 89.5312 111.289C89.4187 111.557 89.2049 111.769 88.9363 111.88C88.8057 111.932 88.6667 111.959 88.5263 111.96C88.312 111.954 88.1039 111.887 87.9266 111.767C87.7494 111.646 87.6104 111.477 87.5263 111.28L83.3263 101.05C82.9763 101.22 82.5963 101.41 82.2163 101.62L84.9763 112.26C85.0492 112.543 85.0069 112.842 84.8588 113.094C84.7106 113.345 84.4687 113.527 84.1863 113.6C84.0932 113.61 83.9994 113.61 83.9063 113.6C83.6644 113.598 83.4299 113.516 83.2386 113.368C83.0472 113.22 82.9095 113.013 82.8463 112.78L80.3063 102.95C80.072 103.182 79.8793 103.453 79.7363 103.75C79.5163 104.28 79.5763 107.05 80.4363 111.54C81.2563 115.86 82.1763 118.54 82.5763 119.02C83.0009 119.214 83.4429 119.368 83.8963 119.48C85.2663 119.89 87.1463 120.48 87.9663 122.48C88.6163 124.08 89.9663 128.41 90.6863 130.82C91.6673 130.021 92.7182 129.311 93.8263 128.7C93.1153 127.263 92.4778 125.791 91.9163 124.29C90.0763 119.44 90.3663 118.6 90.4863 118.29C90.7363 117.668 91.1145 117.106 91.5963 116.64ZM92.7363 168.45C92.7334 166.368 92.251 164.315 91.3263 162.45C89.5599 158.843 87.1928 155.563 84.3263 152.75H84.2663C84.2048 152.698 84.1509 152.637 84.1063 152.57C76.3363 144.82 64.9763 138.75 55.8863 138.37C53.133 138.283 50.393 138.785 47.8493 139.842C45.3056 140.899 43.0169 142.487 41.1363 144.5C39.7063 146.18 39.0763 147.89 39.3663 149.31C40.3663 153.98 46.7663 163.04 57.3663 163.04H58.2063C68.3763 163.04 78.1063 167.12 83.1063 173.53C83.8731 174.475 84.9678 175.097 86.1725 175.271C87.3771 175.445 88.6031 175.159 89.6063 174.47C90.5956 173.814 91.4019 172.918 91.9494 171.865C92.497 170.811 92.7677 169.637 92.7363 168.45ZM87.8263 177.31C87.4585 177.361 87.0877 177.388 86.7163 177.39C85.6789 177.4 84.6534 177.169 83.72 176.716C82.7866 176.264 81.9707 175.601 81.3363 174.78C76.6463 168.78 67.3363 165 57.6263 165.14H57.3163C52.1929 165.107 47.2671 163.159 43.5063 159.68C41.6784 158.035 40.1224 156.111 38.8963 153.98C38.7363 157.98 39.0563 162.77 39.8963 164.72C40.9863 167.2 47.0763 172.81 53.7963 172.81H54.7963C59.0663 172.46 64.3463 173.69 68.8863 175.58L69.0963 175.65L69.2363 175.73C72.9663 177.33 76.1663 179.35 77.8363 181.3C78.12 181.621 78.4817 181.863 78.8864 182.003C79.291 182.143 79.725 182.177 80.1463 182.1C82.4163 181.82 85.4063 179.75 87.8563 177.29L87.8263 177.31ZM69.8863 88.58C75.9963 80.3 78.1063 69.58 77.4763 66.4C77.0263 64.16 75.0863 62.2 72.2563 61.14C69.2563 60.03 66.0663 60.23 64.2563 61.62C62.7863 62.77 62.0563 64.89 61.2563 67.14C60.1163 70.5 58.8263 74.28 54.7263 75.92C55.4563 78.41 56.4963 80.26 57.7263 81.18C57.9189 81.3152 58.063 81.5087 58.1375 81.7319C58.212 81.9551 58.2129 82.1964 58.1402 82.4202C58.0674 82.644 57.9249 82.8385 57.7334 82.9753C57.5419 83.1121 57.3116 83.1838 57.0763 83.18C56.8405 83.1856 56.6102 83.1077 56.4263 82.96C54.2763 81.37 53.0563 78.38 52.3563 75.56C52.3516 75.5403 52.3516 75.5197 52.3563 75.5C51.9434 73.7743 51.6659 72.0189 51.5263 70.25C51.1664 66.3447 51.5775 62.4068 52.7363 58.66H51.8663C51.3363 58.66 50.7963 58.66 50.2563 58.58C48.7333 58.4366 47.2347 58.1006 45.7963 57.58C45.4675 59.305 45.0334 61.0081 44.4963 62.68C43.3163 66.31 39.8163 67.25 35.9563 67.25H35.0363C33.7663 73.43 35.5263 85.43 41.5863 92.6C43.1242 94.5766 45.1465 96.1225 47.4574 97.0878C49.7683 98.0532 52.2894 98.4053 54.7763 98.11C60.5963 97.5 65.7363 94.28 69.9163 88.56L69.8863 88.58ZM77.6363 183.85C77.0706 183.575 76.567 183.187 76.1563 182.71C74.1685 180.722 71.8063 179.149 69.2063 178.08C67.4473 182.079 66.2687 186.308 65.7063 190.64C69.8646 188.686 73.8635 186.409 77.6663 183.83L77.6363 183.85ZM71.8763 31.76C73.9672 30.9073 76.1477 30.2934 78.3763 29.93C75.5729 28.668 72.5491 27.9681 69.4763 27.87C65.6963 27.7 62.2063 28.33 60.6463 29.43C61.0276 32.086 60.9905 34.7854 60.5363 37.43C61.1513 37.7156 61.7128 38.1046 62.1963 38.58C62.8816 38.2792 63.6051 38.0739 64.3463 37.97C65.4463 35.45 68.0463 33.33 71.9063 31.74L71.8763 31.76ZM69.3463 108.45C73.3463 102.07 74.0063 97.21 73.8863 94.97C71.2063 97.88 64.3963 105.97 59.9463 111.16L59.7763 111.37C57.1763 114.43 55.4663 116.45 54.5563 117.49C54.7448 117.714 54.9217 117.948 55.0863 118.19C56.5663 117.19 58.1363 117.75 59.1563 118.19C60.3763 118.66 60.7763 118.72 61.2363 118.27C64.2631 115.388 66.9475 112.167 69.2363 108.67C69.2565 108.59 69.2941 108.514 69.3463 108.45ZM73.2163 128.45C71.0089 126.749 68.936 124.88 67.0163 122.86C65.478 124.079 63.7242 124.999 61.8463 125.57C62.1715 125.96 62.3992 126.422 62.5104 126.918C62.6217 127.413 62.6135 127.928 62.4863 128.42C62.4224 128.673 62.3388 128.92 62.2363 129.16C65.0963 130.02 70.4463 130.13 73.2163 128.45ZM65.5363 121.25C64.8763 120.51 64.2263 119.75 63.5963 118.97L62.7663 119.79C61.2263 121.28 59.5063 120.62 58.3663 120.19C57.2263 119.76 56.7163 119.6 56.1763 120.12C56.3897 120.61 56.5668 121.114 56.7063 121.63C56.8764 122.224 56.9837 122.834 57.0263 123.45C57.7499 123.438 58.4703 123.549 59.1563 123.78C61.4263 123.84 64.2963 122.18 65.5363 121.23V121.25ZM60.2663 53.07C63.9163 49.52 63.7163 46.02 62.9163 43.7C62.5459 42.603 61.9726 41.5853 61.2263 40.7C60.8229 40.1834 60.3152 39.7575 59.7363 39.45C57.3763 41.61 46.7363 45.36 43.5063 45.36C41.1363 45.36 39.0463 43.36 37.2063 41.52C36.3674 40.5667 35.3734 39.762 34.2663 39.14C32.8063 38.65 30.3563 39.87 28.5763 40.75C27.9363 41.07 27.3263 41.37 26.7963 41.58C25.8373 41.9071 24.8205 42.0297 23.8113 41.9402C22.802 41.8506 21.8227 41.5508 20.9363 41.06C19.4563 40.26 17.5363 38.53 16.8263 34.89C16.7413 34.444 16.6846 33.9932 16.6563 33.54C16.0526 33.8266 15.5172 34.2392 15.0863 34.75C13.6263 36.36 12.6063 38.97 12.8263 40.55C13.0163 41.98 15.7663 44.15 17.5863 45.55C18.3963 46.19 19.0063 46.68 19.4563 47.09C19.6748 46.8233 19.8658 46.5352 20.0263 46.23C20.2563 45.75 20.2463 45.48 20.2063 45.4C20.1412 45.2715 20.1022 45.1313 20.0916 44.9875C20.081 44.8438 20.099 44.6995 20.1446 44.5628C20.1902 44.4261 20.2624 44.2998 20.3571 44.1912C20.4518 44.0826 20.5671 43.9938 20.6963 43.93C20.8246 43.8635 20.9649 43.8234 21.1089 43.8121C21.253 43.8008 21.3978 43.8186 21.5349 43.8643C21.6719 43.9099 21.7985 43.9827 21.9069 44.0781C22.0154 44.1736 22.1036 44.2898 22.1663 44.42C22.3633 44.8634 22.4499 45.348 22.4186 45.8322C22.3872 46.3163 22.2389 46.7857 21.9863 47.2C20.8299 49.2091 19.0846 50.8148 16.9863 51.8C17.1539 52.1074 17.2464 52.45 17.2563 52.8C17.2302 53.0723 17.1036 53.3253 16.9011 53.5093C16.6987 53.6933 16.4349 53.7952 16.1613 53.7952C15.8877 53.7952 15.6239 53.6933 15.4214 53.5093C15.219 53.3253 15.0924 53.0723 15.0663 52.8C14.7048 52.2532 14.1692 51.8444 13.5463 51.64C12.4113 51.1497 11.1796 50.9237 9.94446 50.9791C8.70928 51.0346 7.50285 51.37 6.41629 51.96C4.07629 53.24 2.3063 57.82 2.2063 62.86C2.0663 69.86 5.00629 76.02 10.1063 79.5C11.2269 78.1758 12.4399 76.9327 13.7363 75.78C18.4763 71.17 24.4363 65.45 20.3563 56.45C20.2965 56.3187 20.2632 56.1769 20.2583 56.0327C20.2533 55.8885 20.2768 55.7447 20.3274 55.6096C20.3781 55.4745 20.4548 55.3507 20.5532 55.2452C20.6517 55.1398 20.77 55.0547 20.9013 54.995C21.0326 54.9352 21.1744 54.902 21.3186 54.897C21.4628 54.8921 21.6066 54.9156 21.7417 54.9662C21.8768 55.0168 22.0006 55.0935 22.1061 55.192C22.2115 55.2904 22.2965 55.4087 22.3563 55.54C23.6274 58.1282 24.1437 61.022 23.8463 63.89C25.6167 63.909 27.3826 64.0729 29.1263 64.38C30.7663 64.62 32.5363 64.87 34.2363 64.98H34.2963C38.0563 65.23 41.4563 64.79 42.3763 61.98C43.0159 59.9728 43.5039 57.9203 43.8363 55.84C44.3763 52.74 44.7363 50.69 48.2663 50L49.7163 49.73C52.4263 49.25 56.5263 48.51 57.3063 46.96C57.3863 46.81 57.6163 46.35 57.1463 45.4C57.0137 45.1348 56.9919 44.8278 57.0856 44.5464C57.1794 44.2651 57.3811 44.0326 57.6463 43.9C57.9115 43.7674 58.2185 43.7456 58.4998 43.8394C58.7811 43.9331 59.0137 44.1348 59.1463 44.4C59.4536 44.9292 59.6277 45.5251 59.6539 46.1365C59.68 46.7479 59.5573 47.3565 59.2963 47.91C58.0263 50.44 53.6463 51.23 50.1363 51.91L48.7163 52.17C46.9263 52.52 46.6163 53.04 46.1763 55.38C48.7037 56.4316 51.4761 56.7504 54.1763 56.3L54.4063 56.25C56.6264 55.7681 58.6607 54.6572 60.2663 53.05V53.07ZM60.3663 127.87C60.4115 127.615 60.3783 127.353 60.2712 127.117C60.1641 126.881 59.988 126.684 59.7663 126.55C58.9307 125.905 57.8897 125.585 56.8363 125.65C56.6435 126.386 56.2445 127.052 55.6863 127.57C55.5563 127.689 55.4158 127.796 55.2663 127.89C55.3795 128.904 55.2563 129.931 54.9063 130.89C55.0654 131.531 55.4139 132.11 55.9063 132.55C57.4327 131.683 58.7504 130.492 59.7663 129.06C60.0334 128.694 60.2363 128.284 60.3663 127.85V127.87ZM59.2663 108.57L61.0763 106.44C59.6229 105.578 58.2594 104.573 57.0063 103.44C57.6324 105.197 58.3878 106.905 59.2663 108.55V108.57ZM54.8063 124.62C54.8976 123.807 54.8262 122.985 54.5963 122.2C54.1838 120.722 53.4027 119.373 52.3263 118.28C51.4328 117.364 50.3053 116.71 49.0663 116.39C48.2368 117.884 47.9305 119.612 48.1963 121.3C48.3166 122.345 48.7282 123.335 49.3842 124.157C50.0402 124.979 50.9142 125.601 51.9063 125.95C52.6563 126.24 53.6663 126.49 54.2463 125.95C54.5865 125.594 54.7917 125.131 54.8263 124.64L54.8063 124.62ZM52.5863 130.56C52.9936 129.932 53.1769 129.185 53.1063 128.44C52.4179 128.39 51.7423 128.228 51.1063 127.96C49.3971 127.309 47.9582 126.099 47.0233 124.527C46.0884 122.955 45.7124 121.113 45.9563 119.3C45.8034 119.385 45.6622 119.489 45.5363 119.61C45.1149 120.089 44.8063 120.657 44.6333 121.271C44.4602 121.886 44.4271 122.531 44.5363 123.16C44.8563 126.34 46.7563 131.16 50.6863 131.16C51.0294 131.211 51.3796 131.181 51.7093 131.074C52.039 130.966 52.3392 130.783 52.5863 130.54V130.56ZM47.7563 134.83C48.2538 134.37 48.5547 133.736 48.5963 133.06C45.4763 132.06 43.4963 128.83 42.6763 125.44C42.1752 126.438 41.8988 127.534 41.8663 128.65C41.8663 129.72 41.8663 133.32 44.9463 134.65C45.8363 134.96 47.0363 135.3 47.7363 134.81L47.7563 134.83Z" fill="#231F20"/>
<path d="M56.8237 150.199C59.4361 150.199 61.5537 149.147 61.5537 147.849C61.5537 146.551 59.4361 145.499 56.8237 145.499C54.2114 145.499 52.0938 146.551 52.0938 147.849C52.0938 149.147 54.2114 150.199 56.8237 150.199Z" fill="#F1CDBD"/>
<path d="M56.485 151.681C59.915 151.681 62.595 149.881 62.595 147.591C62.595 145.301 59.915 143.511 56.485 143.511C53.055 143.511 50.375 145.301 50.375 147.591C50.375 149.881 53.055 151.681 56.485 151.681ZM56.485 145.681C58.725 145.681 60.405 146.681 60.405 147.571C60.405 148.461 58.725 149.471 56.485 149.471C54.245 149.471 52.565 148.471 52.565 147.571C52.565 146.671 54.245 145.701 56.485 145.701V145.681Z" fill="#231F20"/>
<path d="M17.5071 62.3016C16.9671 56.3616 8.95713 53.3016 4.50713 53.9216C2.95228 56.6653 2.14213 59.768 2.15713 62.9216C2.01713 69.9216 4.95713 76.0816 10.0571 79.5616C10.5271 73.7216 18.0671 68.4516 17.5071 62.3016Z" fill="#DD9224"/>
<path d="M99.3353 146.051C99.6138 145.97 99.9128 146.003 100.168 146.141C100.422 146.28 100.612 146.513 100.695 146.791C100.795 147.141 101.925 148.241 104.625 149.271C107.09 150.249 109.738 150.679 112.385 150.531C112.815 150.531 113.215 149.991 113.465 149.531C116.635 144.321 115.965 125.441 114.675 122.301C113.664 122.972 112.517 123.41 111.315 123.581C110.162 122.528 108.799 121.731 107.315 121.241C109.315 125.101 110.205 132.491 109.455 136.811C111.615 139.331 113.315 141.631 113.665 142.681C113.755 142.957 113.732 143.257 113.604 143.517C113.475 143.777 113.249 143.976 112.975 144.071C112.859 144.085 112.742 144.085 112.625 144.071C112.402 144.064 112.186 143.988 112.007 143.854C111.828 143.72 111.695 143.534 111.625 143.321C110.925 141.221 101.405 130.661 98.4953 129.121C97.6155 129.253 96.7639 129.53 95.9753 129.941C94.1734 130.801 92.5221 131.945 91.0853 133.331C91.0333 133.402 90.9728 133.465 90.9053 133.521C90.2296 134.193 89.7105 135.006 89.3853 135.901C89.1253 136.741 89.0353 137.981 91.0853 139.271C93.1532 137.003 95.621 135.135 98.3653 133.761C98.4978 133.704 98.6404 133.673 98.7848 133.671C98.9293 133.669 99.0726 133.696 99.2066 133.75C99.3406 133.804 99.4625 133.884 99.5653 133.985C99.6681 134.087 99.7497 134.208 99.8053 134.341C99.9154 134.611 99.9152 134.913 99.8049 135.182C99.6945 135.451 99.4828 135.666 99.2153 135.781C97.2653 136.601 91.3853 140.781 91.4053 143.301C91.4094 143.548 91.4793 143.789 91.6076 144C91.7359 144.211 91.918 144.384 92.1353 144.501C92.4481 144.714 92.7835 144.892 93.1353 145.031C96.4053 142.031 103.805 140.361 103.895 140.341C104.036 140.312 104.181 140.31 104.322 140.337C104.463 140.363 104.598 140.417 104.718 140.495C104.838 140.574 104.942 140.675 105.023 140.794C105.104 140.912 105.161 141.046 105.19 141.186C105.22 141.327 105.221 141.472 105.195 141.613C105.168 141.754 105.114 141.888 105.036 142.009C104.958 142.129 104.856 142.233 104.738 142.314C104.619 142.395 104.486 142.452 104.345 142.481C99.6353 143.481 93.6753 146.301 93.8053 147.981C93.81 148.189 93.871 148.392 93.982 148.568C94.0929 148.744 94.2496 148.887 94.4353 148.981C95.6153 149.661 98.0353 149.461 99.6753 148.821C99.2192 148.419 98.8747 147.906 98.6753 147.331C98.613 147.074 98.6455 146.803 98.7667 146.568C98.8879 146.333 99.0898 146.15 99.3353 146.051Z" fill="#F9B94D"/>
<path d="M120.365 65.2709C120.602 65.1032 120.897 65.0364 121.183 65.0851C121.47 65.1339 121.726 65.2941 121.895 65.5309C125.425 70.5309 130.665 84.5309 133.325 99.3309C134.114 103.683 134.648 108.077 134.925 112.491C137.765 101.041 136.615 85.2609 131.555 68.0209C129.277 60.0971 126.188 52.4298 122.335 45.1409C118.905 38.8609 115.485 34.6109 112.695 33.1409C111.786 32.6645 110.844 32.2566 109.875 31.9209C102.255 32.2909 92.9246 37.0409 92.7646 42.4309C92.5646 49.5109 94.0046 95.0409 123.935 113.221C124.601 114.165 125.052 115.244 125.255 116.381C125.449 116.436 125.623 116.544 125.76 116.692C125.896 116.841 125.989 117.024 126.027 117.222C126.065 117.42 126.048 117.625 125.977 117.813C125.906 118.002 125.784 118.167 125.625 118.291C126.525 123.041 127.245 129.991 129.425 136.071C133.235 127.651 133.855 114.971 131.125 99.6709C128.525 85.1409 123.465 71.5309 120.065 66.7609C119.913 66.5217 119.86 66.2333 119.916 65.9558C119.972 65.6783 120.132 65.433 120.365 65.2709Z" fill="#303644"/>
</svg>
